%TF.GenerationSoftware,KiCad,Pcbnew,8.0.1*%
%TF.CreationDate,2024-07-30T22:51:40-07:00*%
%TF.ProjectId,2024_def_con_badge_v1,32303234-5f64-4656-965f-636f6e5f6261,rev?*%
%TF.SameCoordinates,Original*%
%TF.FileFunction,Drillmap*%
%TF.FilePolarity,Positive*%
%FSLAX45Y45*%
G04 Gerber Fmt 4.5, Leading zero omitted, Abs format (unit mm)*
G04 Created by KiCad (PCBNEW 8.0.1) date 2024-07-30 22:51:40*
%MOMM*%
%LPD*%
G01*
G04 APERTURE LIST*
%ADD10C,0.200000*%
%ADD11C,0.050000*%
%ADD12C,0.100000*%
%ADD13C,0.102000*%
G04 APERTURE END LIST*
D10*
X8340000Y-8660000D02*
X8300000Y-8740000D01*
X19817784Y-5916764D02*
X19780754Y-5902469D01*
X10003054Y-13701716D02*
X10035019Y-13708220D01*
X19992535Y-13701716D02*
X19967169Y-13706803D01*
X19925708Y-13721685D01*
X19897460Y-13732318D01*
X19863408Y-13744823D01*
X19822960Y-13759009D01*
X19775524Y-13774683D01*
X19720505Y-13791652D01*
X19657310Y-13809726D01*
X19585348Y-13828711D01*
X19504024Y-13848417D01*
X19412746Y-13868650D01*
X19310920Y-13889218D01*
X19197953Y-13909931D01*
X19073253Y-13930594D01*
X18936226Y-13951018D01*
X18786279Y-13971008D01*
X18622820Y-13990374D01*
X18445254Y-14008923D01*
X18252989Y-14026463D01*
X18045433Y-14042802D01*
X17821991Y-14057748D01*
X17582071Y-14071109D01*
X17325079Y-14082693D01*
X17050423Y-14092307D01*
X16757510Y-14099761D01*
X16445746Y-14104860D01*
X16114539Y-14107415D01*
X15763295Y-14107231D01*
X15391421Y-14104118D01*
X14998324Y-14097884D01*
X10035019Y-13708220D02*
X10070634Y-13713944D01*
X10091297Y-13721054D01*
X10117334Y-13730427D01*
X10149333Y-13741861D01*
X10187882Y-13755152D01*
X10233567Y-13770097D01*
X10286977Y-13786495D01*
X10348698Y-13804141D01*
X10419318Y-13822834D01*
X10499425Y-13842370D01*
X10589606Y-13862547D01*
X10690447Y-13883162D01*
X10802538Y-13904011D01*
X10926464Y-13924893D01*
X11062814Y-13945604D01*
X11212175Y-13965942D01*
X11375134Y-13985703D01*
X11552279Y-14004685D01*
X11744198Y-14022686D01*
X11951476Y-14039501D01*
X12174703Y-14054930D01*
X12414465Y-14068768D01*
X12671350Y-14080813D01*
X12945945Y-14090862D01*
X13238837Y-14098712D01*
X13550615Y-14104160D01*
X13881865Y-14107005D01*
X14233175Y-14107042D01*
X14605132Y-14104069D01*
X14998324Y-14097884D01*
X21676354Y-8703569D02*
X21694952Y-8746828D01*
X21716311Y-8799123D01*
X21744032Y-8870278D01*
X21776856Y-8959107D01*
X21813524Y-9064423D01*
X21852778Y-9185039D01*
X21893359Y-9319769D01*
X21934008Y-9467426D01*
X21973465Y-9626823D01*
X22010474Y-9796773D01*
X22043774Y-9976089D01*
X22072107Y-10163585D01*
X22094214Y-10358074D01*
X22108837Y-10558368D01*
X22114716Y-10763283D01*
X22110593Y-10971629D01*
X22095209Y-11182222D01*
X22067306Y-11393873D01*
X22025624Y-11605396D01*
X21968905Y-11815605D01*
X21895890Y-12023312D01*
X21805320Y-12227332D01*
X21695937Y-12426476D01*
X21566482Y-12619558D01*
X21415695Y-12805392D01*
X21242319Y-12982791D01*
X21045094Y-13150567D01*
X20822762Y-13307535D01*
X20574064Y-13452507D01*
X20297741Y-13584296D01*
X19992535Y-13701716D01*
X8300000Y-8740000D02*
X8284788Y-8776847D01*
X8264961Y-8826238D01*
X8238671Y-8894684D01*
X8207179Y-8980990D01*
X8171747Y-9083964D01*
X8133639Y-9202411D01*
X8094115Y-9335139D01*
X8054439Y-9480953D01*
X8015873Y-9638661D01*
X7979679Y-9807069D01*
X7947119Y-9984983D01*
X7919456Y-10171211D01*
X7897951Y-10364558D01*
X7883868Y-10563831D01*
X7878469Y-10767837D01*
X7883015Y-10975382D01*
X7898769Y-11185272D01*
X7926994Y-11396315D01*
X7968951Y-11607317D01*
X8025903Y-11817085D01*
X8099112Y-12024424D01*
X8189841Y-12228142D01*
X8299351Y-12427045D01*
X8428906Y-12619940D01*
X8579767Y-12805632D01*
X8753196Y-12982930D01*
X8950457Y-13150638D01*
X9172811Y-13307565D01*
X9421520Y-13452515D01*
X9697847Y-13584297D01*
X10003054Y-13701716D01*
X14997795Y-7297714D02*
X15037623Y-7296053D01*
X15067494Y-7295082D01*
X15104972Y-7294102D01*
X15149641Y-7293234D01*
X15201086Y-7292598D01*
X15258894Y-7292314D01*
X15322649Y-7292502D01*
X15391936Y-7293282D01*
X15466340Y-7294775D01*
X15545447Y-7297101D01*
X15628842Y-7300379D01*
X15716110Y-7304731D01*
X15806837Y-7310276D01*
X15900607Y-7317135D01*
X15997005Y-7325427D01*
X16095617Y-7335273D01*
X16196029Y-7346793D01*
X16297824Y-7360107D01*
X16400589Y-7375335D01*
X16503909Y-7392599D01*
X16607368Y-7412016D01*
X16710553Y-7433709D01*
X16813048Y-7457797D01*
X16914438Y-7484400D01*
X17014309Y-7513638D01*
X17112245Y-7545632D01*
X17207833Y-7580502D01*
X17300657Y-7618368D01*
X17390302Y-7659350D01*
X17476354Y-7703569D01*
X14997795Y-7297714D02*
X14957966Y-7296053D01*
X14928095Y-7295082D01*
X14890617Y-7294102D01*
X14845948Y-7293234D01*
X14794503Y-7292598D01*
X14736695Y-7292314D01*
X14672940Y-7292502D01*
X14603653Y-7293282D01*
X14529249Y-7294775D01*
X14450142Y-7297101D01*
X14366747Y-7300379D01*
X14279479Y-7304731D01*
X14188752Y-7310276D01*
X14094982Y-7317135D01*
X13998584Y-7325427D01*
X13899972Y-7335273D01*
X13799560Y-7346793D01*
X13697765Y-7360107D01*
X13595000Y-7375335D01*
X13491680Y-7392599D01*
X13388221Y-7412016D01*
X13285036Y-7433709D01*
X13182541Y-7457797D01*
X13081151Y-7484400D01*
X12981280Y-7513638D01*
X12883344Y-7545632D01*
X12787756Y-7580502D01*
X12694932Y-7618368D01*
X12605287Y-7659350D01*
X12519235Y-7703569D01*
X19817784Y-5916764D02*
X19845486Y-5929729D01*
X19866335Y-5940520D01*
X19892556Y-5954987D01*
X19923888Y-5973394D01*
X19960069Y-5996009D01*
X20000839Y-6023094D01*
X20045935Y-6054916D01*
X20095097Y-6091739D01*
X20148063Y-6133828D01*
X20204572Y-6181449D01*
X20264362Y-6234866D01*
X20327173Y-6294344D01*
X20392743Y-6360148D01*
X20460810Y-6432545D01*
X20531114Y-6511797D01*
X20603393Y-6598171D01*
X20677386Y-6691931D01*
X20752832Y-6793343D01*
X20829468Y-6902672D01*
X20907034Y-7020181D01*
X20985269Y-7146138D01*
X21063912Y-7280806D01*
X21142700Y-7424450D01*
X21221372Y-7577337D01*
X21299669Y-7739729D01*
X21377327Y-7911894D01*
X21454086Y-8094095D01*
X21529684Y-8286598D01*
X21603861Y-8489667D01*
X21676354Y-8703569D01*
X10215601Y-5896431D02*
X10193752Y-5909414D01*
X10174616Y-5919927D01*
X10150323Y-5933484D01*
X10121109Y-5950361D01*
X10087213Y-5970830D01*
X10048871Y-5995164D01*
X10006321Y-6023638D01*
X9959800Y-6056525D01*
X9909546Y-6094098D01*
X9855797Y-6136631D01*
X9798789Y-6184398D01*
X9738760Y-6237672D01*
X9675947Y-6296726D01*
X9610589Y-6361834D01*
X9542922Y-6433270D01*
X9473183Y-6511307D01*
X9401611Y-6596219D01*
X9328442Y-6688279D01*
X9253914Y-6787761D01*
X9178265Y-6894938D01*
X9101732Y-7010083D01*
X9024551Y-7133471D01*
X8946962Y-7265375D01*
X8869200Y-7406068D01*
X8791504Y-7555825D01*
X8714111Y-7714917D01*
X8637259Y-7883620D01*
X8561184Y-8062206D01*
X8486124Y-8250949D01*
X8412317Y-8450122D01*
X8340000Y-8660000D01*
X17476354Y-7703569D02*
X17593506Y-7562722D01*
X17708939Y-7429420D01*
X17822532Y-7303453D01*
X17934168Y-7184611D01*
X18043727Y-7072687D01*
X18151089Y-6967471D01*
X18256135Y-6868755D01*
X18358746Y-6776330D01*
X18458803Y-6689987D01*
X18556186Y-6609517D01*
X18650776Y-6534712D01*
X18742454Y-6465362D01*
X18831101Y-6401259D01*
X18916597Y-6342194D01*
X18998822Y-6287958D01*
X19077659Y-6238342D01*
X19152986Y-6193138D01*
X19224686Y-6152137D01*
X19292639Y-6115130D01*
X19356725Y-6081907D01*
X19416825Y-6052261D01*
X19472820Y-6025983D01*
X19524591Y-6002863D01*
X19572019Y-5982693D01*
X19614983Y-5965264D01*
X19653365Y-5950367D01*
X19687046Y-5937793D01*
X19715906Y-5927334D01*
X19739827Y-5918781D01*
X19758687Y-5911925D01*
X19780754Y-5902469D01*
X12519235Y-7703569D02*
X12399929Y-7560218D01*
X12282333Y-7424495D01*
X12166582Y-7296197D01*
X12052810Y-7175122D01*
X11941151Y-7061068D01*
X11831739Y-6953832D01*
X11724709Y-6853213D01*
X11620195Y-6759008D01*
X11518332Y-6671014D01*
X11419252Y-6589030D01*
X11323091Y-6512853D01*
X11229983Y-6442281D01*
X11140062Y-6377112D01*
X11053462Y-6317143D01*
X10970317Y-6262173D01*
X10890762Y-6211999D01*
X10814931Y-6166418D01*
X10742958Y-6125229D01*
X10674977Y-6088229D01*
X10611123Y-6055216D01*
X10551530Y-6025988D01*
X10496331Y-6000343D01*
X10445662Y-5978078D01*
X10399656Y-5958990D01*
X10358448Y-5942879D01*
X10322172Y-5929541D01*
X10290962Y-5918774D01*
X10264952Y-5910377D01*
X10244277Y-5904146D01*
X10219467Y-5897375D01*
X10215601Y-5896431D01*
D11*
X14600000Y-8000000D02*
G75*
G02*
X14600000Y-7500000I0J250000D01*
G01*
X15400000Y-7500000D02*
G75*
G02*
X15400000Y-8000000I0J-250000D01*
G01*
X15400000Y-8000000D02*
X14600000Y-8000000D01*
X14600000Y-7500000D02*
X15400000Y-7500000D01*
D10*
D12*
X8555000Y-9760000D02*
X8585000Y-9790000D01*
X8585000Y-9760000D02*
X8555000Y-9790000D01*
X8615000Y-11710000D02*
X8645000Y-11740000D01*
X8645000Y-11710000D02*
X8615000Y-11740000D01*
X8715000Y-10075000D02*
X8745000Y-10105000D01*
X8745000Y-10075000D02*
X8715000Y-10105000D01*
X8795000Y-8085000D02*
X8825000Y-8115000D01*
X8825000Y-8085000D02*
X8795000Y-8115000D01*
X8995000Y-7645000D02*
X9025000Y-7675000D01*
X9025000Y-7645000D02*
X8995000Y-7675000D01*
X9295000Y-7195000D02*
X9325000Y-7225000D01*
X9325000Y-7195000D02*
X9295000Y-7225000D01*
X9405000Y-11185000D02*
X9435000Y-11215000D01*
X9435000Y-11185000D02*
X9405000Y-11215000D01*
X9445000Y-10560000D02*
X9475000Y-10590000D01*
X9475000Y-10560000D02*
X9445000Y-10590000D01*
X9455000Y-11965000D02*
X9485000Y-11995000D01*
X9485000Y-11965000D02*
X9455000Y-11995000D01*
X9465000Y-8960000D02*
X9495000Y-8990000D01*
X9495000Y-8960000D02*
X9465000Y-8990000D01*
X9605000Y-6735000D02*
X9635000Y-6765000D01*
X9635000Y-6735000D02*
X9605000Y-6765000D01*
X9645000Y-9275000D02*
X9675000Y-9305000D01*
X9675000Y-9275000D02*
X9645000Y-9305000D01*
X9715000Y-8545000D02*
X9745000Y-8575000D01*
X9745000Y-8545000D02*
X9715000Y-8575000D01*
X9795000Y-10855000D02*
X9825000Y-10885000D01*
X9825000Y-10855000D02*
X9795000Y-10885000D01*
X9925000Y-7785000D02*
X9955000Y-7815000D01*
X9955000Y-7785000D02*
X9925000Y-7815000D01*
X9935000Y-7585000D02*
X9965000Y-7615000D01*
X9965000Y-7585000D02*
X9935000Y-7615000D01*
X10045000Y-6295000D02*
X10075000Y-6325000D01*
X10075000Y-6295000D02*
X10045000Y-6325000D01*
X10055000Y-11195000D02*
X10085000Y-11225000D01*
X10085000Y-11195000D02*
X10055000Y-11225000D01*
X10105000Y-8365000D02*
X10135000Y-8395000D01*
X10135000Y-8365000D02*
X10105000Y-8395000D01*
X10145000Y-6065000D02*
X10175000Y-6095000D01*
X10175000Y-6065000D02*
X10145000Y-6095000D01*
X10225000Y-13335000D02*
X10255000Y-13365000D01*
X10255000Y-13335000D02*
X10225000Y-13365000D01*
X10285000Y-12170000D02*
X10315000Y-12200000D01*
X10315000Y-12170000D02*
X10285000Y-12200000D01*
X10355000Y-9760000D02*
X10385000Y-9790000D01*
X10385000Y-9760000D02*
X10355000Y-9790000D01*
X10397500Y-7492500D02*
X10427500Y-7522500D01*
X10427500Y-7492500D02*
X10397500Y-7522500D01*
X10515000Y-10065000D02*
X10545000Y-10095000D01*
X10545000Y-10065000D02*
X10515000Y-10095000D01*
X10575000Y-9365000D02*
X10605000Y-9395000D01*
X10605000Y-9365000D02*
X10575000Y-9395000D01*
X10655000Y-9295000D02*
X10685000Y-9325000D01*
X10685000Y-9295000D02*
X10655000Y-9325000D01*
X10665000Y-10935000D02*
X10695000Y-10965000D01*
X10695000Y-10935000D02*
X10665000Y-10965000D01*
X10727700Y-11025000D02*
X10757700Y-11055000D01*
X10757700Y-11025000D02*
X10727700Y-11055000D01*
X10745000Y-9225000D02*
X10775000Y-9255000D01*
X10775000Y-9225000D02*
X10745000Y-9255000D01*
X10795000Y-11105000D02*
X10825000Y-11135000D01*
X10825000Y-11105000D02*
X10795000Y-11135000D01*
X10857700Y-11195000D02*
X10887700Y-11225000D01*
X10887700Y-11195000D02*
X10857700Y-11225000D01*
X11015000Y-7185000D02*
X11045000Y-7215000D01*
X11045000Y-7185000D02*
X11015000Y-7215000D01*
X11190000Y-11370000D02*
X11220000Y-11400000D01*
X11220000Y-11370000D02*
X11190000Y-11400000D01*
X11215000Y-11095000D02*
X11245000Y-11125000D01*
X11245000Y-11095000D02*
X11215000Y-11125000D01*
X11255000Y-11460000D02*
X11285000Y-11490000D01*
X11285000Y-11460000D02*
X11255000Y-11490000D01*
X11281052Y-13455000D02*
X11311052Y-13485000D01*
X11311052Y-13455000D02*
X11281052Y-13485000D01*
X11285000Y-11015000D02*
X11315000Y-11045000D01*
X11315000Y-11015000D02*
X11285000Y-11045000D01*
X11355000Y-10935000D02*
X11385000Y-10965000D01*
X11385000Y-10935000D02*
X11355000Y-10965000D01*
X11390000Y-13425000D02*
X11420000Y-13455000D01*
X11420000Y-13425000D02*
X11390000Y-13455000D01*
X11475000Y-7785000D02*
X11505000Y-7815000D01*
X11505000Y-7785000D02*
X11475000Y-7815000D01*
X11485000Y-7185000D02*
X11515000Y-7215000D01*
X11515000Y-7185000D02*
X11485000Y-7215000D01*
X11495000Y-13490000D02*
X11525000Y-13520000D01*
X11525000Y-13490000D02*
X11495000Y-13520000D01*
X11525000Y-11985000D02*
X11555000Y-12015000D01*
X11555000Y-11985000D02*
X11525000Y-12015000D01*
X11555000Y-7925000D02*
X11585000Y-7955000D01*
X11585000Y-7925000D02*
X11555000Y-7955000D01*
X11645664Y-11774336D02*
X11675664Y-11804336D01*
X11675664Y-11774336D02*
X11645664Y-11804336D01*
X11712377Y-13530000D02*
X11742377Y-13560000D01*
X11742377Y-13530000D02*
X11712377Y-13560000D01*
X11795000Y-12265000D02*
X11825000Y-12295000D01*
X11825000Y-12265000D02*
X11795000Y-12295000D01*
X11800000Y-11740000D02*
X11830000Y-11770000D01*
X11830000Y-11740000D02*
X11800000Y-11770000D01*
X11805000Y-11845000D02*
X11835000Y-11875000D01*
X11835000Y-11845000D02*
X11805000Y-11875000D01*
X11815000Y-11605000D02*
X11845000Y-11635000D01*
X11845000Y-11605000D02*
X11815000Y-11635000D01*
X11875000Y-12305000D02*
X11905000Y-12335000D01*
X11905000Y-12305000D02*
X11875000Y-12335000D01*
X11955000Y-8745000D02*
X11985000Y-8775000D01*
X11985000Y-8745000D02*
X11955000Y-8775000D01*
X11965000Y-12355000D02*
X11995000Y-12385000D01*
X11995000Y-12355000D02*
X11965000Y-12385000D01*
X12105000Y-7825000D02*
X12135000Y-7855000D01*
X12135000Y-7825000D02*
X12105000Y-7855000D01*
X12125000Y-10915000D02*
X12155000Y-10945000D01*
X12155000Y-10915000D02*
X12125000Y-10945000D01*
X12740000Y-8035000D02*
X12770000Y-8065000D01*
X12770000Y-8035000D02*
X12740000Y-8065000D01*
X12815000Y-7965000D02*
X12845000Y-7995000D01*
X12845000Y-7965000D02*
X12815000Y-7995000D01*
X12915000Y-7935000D02*
X12945000Y-7965000D01*
X12945000Y-7935000D02*
X12915000Y-7965000D01*
X13405000Y-9075000D02*
X13435000Y-9105000D01*
X13435000Y-9075000D02*
X13405000Y-9105000D01*
X13605000Y-9085000D02*
X13635000Y-9115000D01*
X13635000Y-9085000D02*
X13605000Y-9115000D01*
X14315000Y-10215000D02*
X14345000Y-10245000D01*
X14345000Y-10215000D02*
X14315000Y-10245000D01*
X14315000Y-10430000D02*
X14345000Y-10460000D01*
X14345000Y-10430000D02*
X14315000Y-10460000D01*
X14317500Y-10322500D02*
X14347500Y-10352500D01*
X14347500Y-10322500D02*
X14317500Y-10352500D01*
X14805000Y-13535000D02*
X14835000Y-13565000D01*
X14835000Y-13535000D02*
X14805000Y-13565000D01*
X14930000Y-12165000D02*
X14960000Y-12195000D01*
X14960000Y-12165000D02*
X14930000Y-12195000D01*
X14985000Y-13535000D02*
X15015000Y-13565000D01*
X15015000Y-13535000D02*
X14985000Y-13565000D01*
X15245000Y-9535000D02*
X15275000Y-9565000D01*
X15275000Y-9535000D02*
X15245000Y-9565000D01*
X15325000Y-9675000D02*
X15355000Y-9705000D01*
X15355000Y-9675000D02*
X15325000Y-9705000D01*
X15410000Y-9760000D02*
X15440000Y-9790000D01*
X15440000Y-9760000D02*
X15410000Y-9790000D01*
X15455000Y-9615000D02*
X15485000Y-9645000D01*
X15485000Y-9615000D02*
X15455000Y-9645000D01*
X15775000Y-11595000D02*
X15805000Y-11625000D01*
X15805000Y-11595000D02*
X15775000Y-11625000D01*
X15865000Y-10500000D02*
X15895000Y-10530000D01*
X15895000Y-10500000D02*
X15865000Y-10530000D01*
X15900000Y-11495000D02*
X15930000Y-11525000D01*
X15930000Y-11495000D02*
X15900000Y-11525000D01*
X16235000Y-13705000D02*
X16265000Y-13735000D01*
X16265000Y-13705000D02*
X16235000Y-13735000D01*
X16305000Y-10750000D02*
X16335000Y-10780000D01*
X16335000Y-10750000D02*
X16305000Y-10780000D01*
X16325000Y-13345000D02*
X16355000Y-13375000D01*
X16355000Y-13345000D02*
X16325000Y-13375000D01*
X16355000Y-10095000D02*
X16385000Y-10125000D01*
X16385000Y-10095000D02*
X16355000Y-10125000D01*
X16415000Y-11985000D02*
X16445000Y-12015000D01*
X16445000Y-11985000D02*
X16415000Y-12015000D01*
X16445000Y-10115000D02*
X16475000Y-10145000D01*
X16475000Y-10115000D02*
X16445000Y-10145000D01*
X16557500Y-9767500D02*
X16587500Y-9797500D01*
X16587500Y-9767500D02*
X16557500Y-9797500D01*
X16705000Y-9760000D02*
X16735000Y-9790000D01*
X16735000Y-9760000D02*
X16705000Y-9790000D01*
X16795000Y-11135000D02*
X16825000Y-11165000D01*
X16825000Y-11135000D02*
X16795000Y-11165000D01*
X16965000Y-12245000D02*
X16995000Y-12275000D01*
X16995000Y-12245000D02*
X16965000Y-12275000D01*
X16965000Y-12345000D02*
X16995000Y-12375000D01*
X16995000Y-12345000D02*
X16965000Y-12375000D01*
X16965000Y-12445000D02*
X16995000Y-12475000D01*
X16995000Y-12445000D02*
X16965000Y-12475000D01*
X17095000Y-8335000D02*
X17125000Y-8365000D01*
X17125000Y-8335000D02*
X17095000Y-8365000D01*
X17115000Y-10500000D02*
X17145000Y-10530000D01*
X17145000Y-10500000D02*
X17115000Y-10530000D01*
X17120000Y-10615000D02*
X17150000Y-10645000D01*
X17150000Y-10615000D02*
X17120000Y-10645000D01*
X17125000Y-10750000D02*
X17155000Y-10780000D01*
X17155000Y-10750000D02*
X17125000Y-10780000D01*
X17126018Y-8006018D02*
X17156018Y-8036018D01*
X17156018Y-8006018D02*
X17126018Y-8036018D01*
X17145000Y-10115000D02*
X17175000Y-10145000D01*
X17175000Y-10115000D02*
X17145000Y-10145000D01*
X17145000Y-10210000D02*
X17175000Y-10240000D01*
X17175000Y-10210000D02*
X17145000Y-10240000D01*
X17151425Y-10291306D02*
X17181425Y-10321306D01*
X17181425Y-10291306D02*
X17151425Y-10321306D01*
X17195000Y-8365000D02*
X17225000Y-8395000D01*
X17225000Y-8365000D02*
X17195000Y-8395000D01*
X17245000Y-12825000D02*
X17275000Y-12855000D01*
X17275000Y-12825000D02*
X17245000Y-12855000D01*
X17405000Y-11115000D02*
X17435000Y-11145000D01*
X17435000Y-11115000D02*
X17405000Y-11145000D01*
X17435000Y-13415000D02*
X17465000Y-13445000D01*
X17465000Y-13415000D02*
X17435000Y-13445000D01*
X17510000Y-10285000D02*
X17540000Y-10315000D01*
X17540000Y-10285000D02*
X17510000Y-10315000D01*
X17535000Y-10115000D02*
X17565000Y-10145000D01*
X17565000Y-10115000D02*
X17535000Y-10145000D01*
X17595000Y-10460000D02*
X17625000Y-10490000D01*
X17625000Y-10460000D02*
X17595000Y-10490000D01*
X17655000Y-11110000D02*
X17685000Y-11140000D01*
X17685000Y-11110000D02*
X17655000Y-11140000D01*
X17780664Y-10999336D02*
X17810664Y-11029336D01*
X17810664Y-10999336D02*
X17780664Y-11029336D01*
X17855000Y-11580000D02*
X17885000Y-11610000D01*
X17885000Y-11580000D02*
X17855000Y-11610000D01*
X17865000Y-13645000D02*
X17895000Y-13675000D01*
X17895000Y-13645000D02*
X17865000Y-13675000D01*
X17905000Y-11035000D02*
X17935000Y-11065000D01*
X17935000Y-11035000D02*
X17905000Y-11065000D01*
X18035000Y-11075000D02*
X18065000Y-11105000D01*
X18065000Y-11075000D02*
X18035000Y-11105000D01*
X18060000Y-11720000D02*
X18090000Y-11750000D01*
X18090000Y-11720000D02*
X18060000Y-11750000D01*
X18065000Y-11815000D02*
X18095000Y-11845000D01*
X18095000Y-11815000D02*
X18065000Y-11845000D01*
X18140000Y-11760000D02*
X18170000Y-11790000D01*
X18170000Y-11760000D02*
X18140000Y-11790000D01*
X18165000Y-9745000D02*
X18195000Y-9775000D01*
X18195000Y-9745000D02*
X18165000Y-9775000D01*
X18175000Y-9605000D02*
X18205000Y-9635000D01*
X18205000Y-9605000D02*
X18175000Y-9635000D01*
X18290000Y-11395000D02*
X18320000Y-11425000D01*
X18320000Y-11395000D02*
X18290000Y-11425000D01*
X18305000Y-10705000D02*
X18335000Y-10735000D01*
X18335000Y-10705000D02*
X18305000Y-10735000D01*
X18400000Y-10114000D02*
X18430000Y-10144000D01*
X18430000Y-10114000D02*
X18400000Y-10144000D01*
X18420000Y-10985000D02*
X18450000Y-11015000D01*
X18450000Y-10985000D02*
X18420000Y-11015000D01*
X18595000Y-9735000D02*
X18625000Y-9765000D01*
X18625000Y-9735000D02*
X18595000Y-9765000D01*
X18745000Y-11885000D02*
X18775000Y-11915000D01*
X18775000Y-11885000D02*
X18745000Y-11915000D01*
X18815000Y-11325000D02*
X18845000Y-11355000D01*
X18845000Y-11325000D02*
X18815000Y-11355000D01*
X18865000Y-9605000D02*
X18895000Y-9635000D01*
X18895000Y-9605000D02*
X18865000Y-9635000D01*
X18865000Y-11005000D02*
X18895000Y-11035000D01*
X18895000Y-11005000D02*
X18865000Y-11035000D01*
X18885000Y-10815000D02*
X18915000Y-10845000D01*
X18915000Y-10815000D02*
X18885000Y-10845000D01*
X18895000Y-10365000D02*
X18925000Y-10395000D01*
X18925000Y-10365000D02*
X18895000Y-10395000D01*
X18925000Y-11215000D02*
X18955000Y-11245000D01*
X18955000Y-11215000D02*
X18925000Y-11245000D01*
X19375000Y-7375000D02*
X19405000Y-7405000D01*
X19405000Y-7375000D02*
X19375000Y-7405000D01*
X19524500Y-9785000D02*
X19554500Y-9815000D01*
X19554500Y-9785000D02*
X19524500Y-9815000D01*
X19565000Y-9695000D02*
X19595000Y-9725000D01*
X19595000Y-9695000D02*
X19565000Y-9725000D01*
X19910000Y-12640000D02*
X19940000Y-12670000D01*
X19940000Y-12640000D02*
X19910000Y-12670000D01*
X19915000Y-9615000D02*
X19945000Y-9645000D01*
X19945000Y-9615000D02*
X19915000Y-9645000D01*
X19920000Y-9530000D02*
X19950000Y-9560000D01*
X19950000Y-9530000D02*
X19920000Y-9560000D01*
X19925000Y-6175000D02*
X19955000Y-6205000D01*
X19955000Y-6175000D02*
X19925000Y-6205000D01*
X19935000Y-9785000D02*
X19965000Y-9815000D01*
X19965000Y-9785000D02*
X19935000Y-9815000D01*
X20185000Y-12205000D02*
X20215000Y-12235000D01*
X20215000Y-12205000D02*
X20185000Y-12235000D01*
X20235000Y-10730000D02*
X20265000Y-10760000D01*
X20265000Y-10730000D02*
X20235000Y-10760000D01*
X20275000Y-6525000D02*
X20305000Y-6555000D01*
X20305000Y-6525000D02*
X20275000Y-6555000D01*
X20285000Y-10915000D02*
X20315000Y-10945000D01*
X20315000Y-10915000D02*
X20285000Y-10945000D01*
X20575000Y-6975000D02*
X20605000Y-7005000D01*
X20605000Y-6975000D02*
X20575000Y-7005000D01*
X20635000Y-8385000D02*
X20665000Y-8415000D01*
X20665000Y-8385000D02*
X20635000Y-8415000D01*
X20745000Y-11855000D02*
X20775000Y-11885000D01*
X20775000Y-11855000D02*
X20745000Y-11885000D01*
X20865000Y-9460000D02*
X20895000Y-9490000D01*
X20895000Y-9460000D02*
X20865000Y-9490000D01*
X20875000Y-7425000D02*
X20905000Y-7455000D01*
X20905000Y-7425000D02*
X20875000Y-7455000D01*
X20910000Y-11654197D02*
X20940000Y-11684197D01*
X20940000Y-11654197D02*
X20910000Y-11684197D01*
X21020000Y-11360000D02*
X21050000Y-11390000D01*
X21050000Y-11360000D02*
X21020000Y-11390000D01*
X21025000Y-9775000D02*
X21055000Y-9805000D01*
X21055000Y-9775000D02*
X21025000Y-9805000D01*
X21045000Y-11195000D02*
X21075000Y-11225000D01*
X21075000Y-11195000D02*
X21045000Y-11225000D01*
X21075000Y-7875000D02*
X21105000Y-7905000D01*
X21105000Y-7875000D02*
X21075000Y-7905000D01*
X21075000Y-8325000D02*
X21105000Y-8355000D01*
X21105000Y-8325000D02*
X21075000Y-8355000D01*
X21320000Y-11560000D02*
X21350000Y-11590000D01*
X21350000Y-11560000D02*
X21320000Y-11590000D01*
X17794500Y-10195000D02*
G75*
G02*
X17764500Y-10195000I-15000J0D01*
G01*
X17764500Y-10195000D02*
G75*
G02*
X17794500Y-10195000I15000J0D01*
G01*
X17794500Y-10335000D02*
G75*
G02*
X17764500Y-10335000I-15000J0D01*
G01*
X17764500Y-10335000D02*
G75*
G02*
X17794500Y-10335000I15000J0D01*
G01*
X17954500Y-10025000D02*
G75*
G02*
X17924500Y-10025000I-15000J0D01*
G01*
X17924500Y-10025000D02*
G75*
G02*
X17954500Y-10025000I15000J0D01*
G01*
X17954500Y-10495000D02*
G75*
G02*
X17924500Y-10495000I-15000J0D01*
G01*
X17924500Y-10495000D02*
G75*
G02*
X17954500Y-10495000I15000J0D01*
G01*
X18094500Y-10025000D02*
G75*
G02*
X18064500Y-10025000I-15000J0D01*
G01*
X18064500Y-10025000D02*
G75*
G02*
X18094500Y-10025000I15000J0D01*
G01*
X18094500Y-10495000D02*
G75*
G02*
X18064500Y-10495000I-15000J0D01*
G01*
X18064500Y-10495000D02*
G75*
G02*
X18094500Y-10495000I15000J0D01*
G01*
X18254500Y-10195000D02*
G75*
G02*
X18224500Y-10195000I-15000J0D01*
G01*
X18224500Y-10195000D02*
G75*
G02*
X18254500Y-10195000I15000J0D01*
G01*
X18254500Y-10335000D02*
G75*
G02*
X18224500Y-10335000I-15000J0D01*
G01*
X18224500Y-10335000D02*
G75*
G02*
X18254500Y-10335000I15000J0D01*
G01*
X21107768Y-11894793D02*
X21107768Y-11956793D01*
X21076768Y-11925793D02*
X21138768Y-11925793D01*
X21168206Y-11910820D02*
X21064362Y-11881151D01*
X21047329Y-11940766D02*
G75*
G02*
X21064362Y-11881151I8516J29807D01*
G01*
X21047329Y-11940766D02*
X21151174Y-11970435D01*
X21151174Y-11970435D02*
G75*
G03*
X21168206Y-11910820I8516J29807D01*
G01*
X21345121Y-11064035D02*
X21345121Y-11126035D01*
X21314121Y-11095035D02*
X21376121Y-11095035D01*
X21405560Y-11080062D02*
X21301715Y-11050393D01*
X21284683Y-11110008D02*
G75*
G02*
X21301715Y-11050393I8516J29807D01*
G01*
X21284683Y-11110008D02*
X21388527Y-11139677D01*
X21388528Y-11139677D02*
G75*
G03*
X21405560Y-11080062I8516J29807D01*
G01*
X21509686Y-12009624D02*
X21509686Y-12071624D01*
X21478686Y-12040624D02*
X21540686Y-12040624D01*
X21546086Y-12018783D02*
X21490318Y-12002850D01*
X21473285Y-12062464D02*
G75*
G02*
X21490318Y-12002850I8516J29807D01*
G01*
X21473285Y-12062464D02*
X21529054Y-12078398D01*
X21529054Y-12078398D02*
G75*
G03*
X21546086Y-12018783I8516J29807D01*
G01*
X21747039Y-11178866D02*
X21747039Y-11240865D01*
X21716039Y-11209865D02*
X21778039Y-11209865D01*
X21783439Y-11188025D02*
X21727671Y-11172092D01*
X21710639Y-11231706D02*
G75*
G02*
X21727671Y-11172092I8516J29807D01*
G01*
X21710639Y-11231706D02*
X21766407Y-11247639D01*
X21766407Y-11247639D02*
G75*
G03*
X21783439Y-11188025I8516J29807D01*
G01*
X10028285Y-12428284D02*
X10028285Y-12371715D01*
X9971716Y-12371715D01*
X9971716Y-12428284D01*
X10028285Y-12428284D01*
X10528285Y-12428284D02*
X10528285Y-12371715D01*
X10471716Y-12371715D01*
X10471716Y-12428284D01*
X10528285Y-12428284D01*
X11850284Y-10446285D02*
X11850284Y-10389716D01*
X11793715Y-10389716D01*
X11793715Y-10446285D01*
X11850284Y-10446285D01*
X11752000Y-10458000D02*
X11892000Y-10458000D01*
X11892000Y-10378000D02*
G75*
G02*
X11892000Y-10458000I0J-40000D01*
G01*
X11892000Y-10378000D02*
X11752000Y-10378000D01*
X11752000Y-10378000D02*
G75*
G03*
X11752000Y-10458000I0J-40000D01*
G01*
X11850284Y-10700285D02*
X11850284Y-10643716D01*
X11793715Y-10643716D01*
X11793715Y-10700285D01*
X11850284Y-10700285D01*
X11752000Y-10712000D02*
X11892000Y-10712000D01*
X11892000Y-10632000D02*
G75*
G02*
X11892000Y-10712000I0J-40000D01*
G01*
X11892000Y-10632000D02*
X11752000Y-10632000D01*
X11752000Y-10632000D02*
G75*
G03*
X11752000Y-10712000I0J-40000D01*
G01*
X11850284Y-10954285D02*
X11850284Y-10897716D01*
X11793715Y-10897716D01*
X11793715Y-10954285D01*
X11850284Y-10954285D01*
X11752000Y-10966000D02*
X11892000Y-10966000D01*
X11892000Y-10886000D02*
G75*
G02*
X11892000Y-10966000I0J-40000D01*
G01*
X11892000Y-10886000D02*
X11752000Y-10886000D01*
X11752000Y-10886000D02*
G75*
G03*
X11752000Y-10966000I0J-40000D01*
G01*
X11850284Y-11208284D02*
X11850284Y-11151716D01*
X11793715Y-11151716D01*
X11793715Y-11208284D01*
X11850284Y-11208284D01*
X11752000Y-11220000D02*
X11892000Y-11220000D01*
X11892000Y-11140000D02*
G75*
G02*
X11892000Y-11220000I0J-40000D01*
G01*
X11892000Y-11140000D02*
X11752000Y-11140000D01*
X11752000Y-11140000D02*
G75*
G03*
X11752000Y-11220000I0J-40000D01*
G01*
X8725806Y-12651405D02*
X8775806Y-12601405D01*
X8725806Y-12551405D01*
X8675806Y-12601405D01*
X8725806Y-12651405D01*
X8931296Y-12800703D02*
X8981296Y-12750703D01*
X8931296Y-12700703D01*
X8881296Y-12750703D01*
X8931296Y-12800703D01*
X9136787Y-12950000D02*
X9186787Y-12900000D01*
X9136787Y-12850000D01*
X9086787Y-12900000D01*
X9136787Y-12950000D01*
X9342277Y-13099297D02*
X9392277Y-13049297D01*
X9342277Y-12999297D01*
X9292277Y-13049297D01*
X9342277Y-13099297D01*
X9547767Y-13248595D02*
X9597767Y-13198595D01*
X9547767Y-13148595D01*
X9497767Y-13198595D01*
X9547767Y-13248595D01*
X9753258Y-13397892D02*
X9803258Y-13347892D01*
X9753258Y-13297892D01*
X9703258Y-13347892D01*
X9753258Y-13397892D01*
X11090000Y-6650000D02*
X11140000Y-6600000D01*
X11090000Y-6550000D01*
X11040000Y-6600000D01*
X11090000Y-6650000D01*
X18587089Y-6956069D02*
X18637089Y-6906069D01*
X18587089Y-6856069D01*
X18537089Y-6906069D01*
X18587089Y-6956069D01*
X18743467Y-7156223D02*
X18793467Y-7106223D01*
X18743467Y-7056223D01*
X18693467Y-7106223D01*
X18743467Y-7156223D01*
X18787244Y-6799691D02*
X18837244Y-6749691D01*
X18787244Y-6699691D01*
X18737244Y-6749691D01*
X18787244Y-6799691D01*
X18899845Y-7356378D02*
X18949845Y-7306378D01*
X18899845Y-7256378D01*
X18849845Y-7306378D01*
X18899845Y-7356378D01*
X18943622Y-6999845D02*
X18993622Y-6949845D01*
X18943622Y-6899845D01*
X18893622Y-6949845D01*
X18943622Y-6999845D01*
X19100000Y-7200000D02*
X19150000Y-7150000D01*
X19100000Y-7100000D01*
X19050000Y-7150000D01*
X19100000Y-7200000D01*
X19140000Y-9198000D02*
X19190000Y-9148000D01*
X19140000Y-9098000D01*
X19090000Y-9148000D01*
X19140000Y-9198000D01*
X19140000Y-9452000D02*
X19190000Y-9402000D01*
X19140000Y-9352000D01*
X19090000Y-9402000D01*
X19140000Y-9452000D01*
X19140000Y-9706000D02*
X19190000Y-9656000D01*
X19140000Y-9606000D01*
X19090000Y-9656000D01*
X19140000Y-9706000D01*
X19140000Y-9960000D02*
X19190000Y-9910000D01*
X19140000Y-9860000D01*
X19090000Y-9910000D01*
X19140000Y-9960000D01*
X19140000Y-10214000D02*
X19190000Y-10164000D01*
X19140000Y-10114000D01*
X19090000Y-10164000D01*
X19140000Y-10214000D01*
X19140000Y-10468000D02*
X19190000Y-10418000D01*
X19140000Y-10368000D01*
X19090000Y-10418000D01*
X19140000Y-10468000D01*
X19140000Y-10722000D02*
X19190000Y-10672000D01*
X19140000Y-10622000D01*
X19090000Y-10672000D01*
X19140000Y-10722000D01*
X19140000Y-10976000D02*
X19190000Y-10926000D01*
X19140000Y-10876000D01*
X19090000Y-10926000D01*
X19140000Y-10976000D01*
X19140000Y-11230000D02*
X19190000Y-11180000D01*
X19140000Y-11130000D01*
X19090000Y-11180000D01*
X19140000Y-11230000D01*
X19140000Y-11484000D02*
X19190000Y-11434000D01*
X19140000Y-11384000D01*
X19090000Y-11434000D01*
X19140000Y-11484000D01*
X19140000Y-11738000D02*
X19190000Y-11688000D01*
X19140000Y-11638000D01*
X19090000Y-11688000D01*
X19140000Y-11738000D01*
X19140000Y-11992000D02*
X19190000Y-11942000D01*
X19140000Y-11892000D01*
X19090000Y-11942000D01*
X19140000Y-11992000D01*
X19140000Y-12246000D02*
X19190000Y-12196000D01*
X19140000Y-12146000D01*
X19090000Y-12196000D01*
X19140000Y-12246000D01*
X19140000Y-12500000D02*
X19190000Y-12450000D01*
X19140000Y-12400000D01*
X19090000Y-12450000D01*
X19140000Y-12500000D01*
D13*
X14199500Y-13665500D02*
X14301500Y-13767500D01*
X14301500Y-13665500D02*
X14199500Y-13767500D01*
X14301500Y-13716500D02*
G75*
G02*
X14199500Y-13716500I-51000J0D01*
G01*
X14199500Y-13716500D02*
G75*
G02*
X14301500Y-13716500I51000J0D01*
G01*
X15698500Y-13665500D02*
X15800500Y-13767500D01*
X15800500Y-13665500D02*
X15698500Y-13767500D01*
X15800500Y-13716500D02*
G75*
G02*
X15698500Y-13716500I-51000J0D01*
G01*
X15698500Y-13716500D02*
G75*
G02*
X15800500Y-13716500I51000J0D01*
G01*
D10*
X6839774Y-14503203D02*
X6839774Y-14303203D01*
X6839774Y-14303203D02*
X6887393Y-14303203D01*
X6887393Y-14303203D02*
X6915964Y-14312726D01*
X6915964Y-14312726D02*
X6935012Y-14331774D01*
X6935012Y-14331774D02*
X6944536Y-14350822D01*
X6944536Y-14350822D02*
X6954059Y-14388917D01*
X6954059Y-14388917D02*
X6954059Y-14417488D01*
X6954059Y-14417488D02*
X6944536Y-14455584D01*
X6944536Y-14455584D02*
X6935012Y-14474631D01*
X6935012Y-14474631D02*
X6915964Y-14493679D01*
X6915964Y-14493679D02*
X6887393Y-14503203D01*
X6887393Y-14503203D02*
X6839774Y-14503203D01*
X7039774Y-14503203D02*
X7039774Y-14369869D01*
X7039774Y-14407965D02*
X7049298Y-14388917D01*
X7049298Y-14388917D02*
X7058821Y-14379393D01*
X7058821Y-14379393D02*
X7077869Y-14369869D01*
X7077869Y-14369869D02*
X7096917Y-14369869D01*
X7163583Y-14503203D02*
X7163583Y-14369869D01*
X7163583Y-14303203D02*
X7154059Y-14312726D01*
X7154059Y-14312726D02*
X7163583Y-14322250D01*
X7163583Y-14322250D02*
X7173107Y-14312726D01*
X7173107Y-14312726D02*
X7163583Y-14303203D01*
X7163583Y-14303203D02*
X7163583Y-14322250D01*
X7287393Y-14503203D02*
X7268345Y-14493679D01*
X7268345Y-14493679D02*
X7258821Y-14474631D01*
X7258821Y-14474631D02*
X7258821Y-14303203D01*
X7392155Y-14503203D02*
X7373107Y-14493679D01*
X7373107Y-14493679D02*
X7363583Y-14474631D01*
X7363583Y-14474631D02*
X7363583Y-14303203D01*
X7620726Y-14503203D02*
X7620726Y-14303203D01*
X7620726Y-14303203D02*
X7687393Y-14446060D01*
X7687393Y-14446060D02*
X7754059Y-14303203D01*
X7754059Y-14303203D02*
X7754059Y-14503203D01*
X7935012Y-14503203D02*
X7935012Y-14398441D01*
X7935012Y-14398441D02*
X7925488Y-14379393D01*
X7925488Y-14379393D02*
X7906440Y-14369869D01*
X7906440Y-14369869D02*
X7868345Y-14369869D01*
X7868345Y-14369869D02*
X7849298Y-14379393D01*
X7935012Y-14493679D02*
X7915964Y-14503203D01*
X7915964Y-14503203D02*
X7868345Y-14503203D01*
X7868345Y-14503203D02*
X7849298Y-14493679D01*
X7849298Y-14493679D02*
X7839774Y-14474631D01*
X7839774Y-14474631D02*
X7839774Y-14455584D01*
X7839774Y-14455584D02*
X7849298Y-14436536D01*
X7849298Y-14436536D02*
X7868345Y-14427012D01*
X7868345Y-14427012D02*
X7915964Y-14427012D01*
X7915964Y-14427012D02*
X7935012Y-14417488D01*
X8030250Y-14369869D02*
X8030250Y-14569869D01*
X8030250Y-14379393D02*
X8049298Y-14369869D01*
X8049298Y-14369869D02*
X8087393Y-14369869D01*
X8087393Y-14369869D02*
X8106440Y-14379393D01*
X8106440Y-14379393D02*
X8115964Y-14388917D01*
X8115964Y-14388917D02*
X8125488Y-14407965D01*
X8125488Y-14407965D02*
X8125488Y-14465107D01*
X8125488Y-14465107D02*
X8115964Y-14484155D01*
X8115964Y-14484155D02*
X8106440Y-14493679D01*
X8106440Y-14493679D02*
X8087393Y-14503203D01*
X8087393Y-14503203D02*
X8049298Y-14503203D01*
X8049298Y-14503203D02*
X8030250Y-14493679D01*
X8211202Y-14484155D02*
X8220726Y-14493679D01*
X8220726Y-14493679D02*
X8211202Y-14503203D01*
X8211202Y-14503203D02*
X8201679Y-14493679D01*
X8201679Y-14493679D02*
X8211202Y-14484155D01*
X8211202Y-14484155D02*
X8211202Y-14503203D01*
X8211202Y-14379393D02*
X8220726Y-14388917D01*
X8220726Y-14388917D02*
X8211202Y-14398441D01*
X8211202Y-14398441D02*
X8201679Y-14388917D01*
X8201679Y-14388917D02*
X8211202Y-14379393D01*
X8211202Y-14379393D02*
X8211202Y-14398441D01*
D12*
X6548997Y-14816719D02*
X6578997Y-14846719D01*
X6578997Y-14816719D02*
X6548997Y-14846719D01*
D10*
X6877869Y-14723203D02*
X6896917Y-14723203D01*
X6896917Y-14723203D02*
X6915964Y-14732726D01*
X6915964Y-14732726D02*
X6925488Y-14742250D01*
X6925488Y-14742250D02*
X6935012Y-14761298D01*
X6935012Y-14761298D02*
X6944536Y-14799393D01*
X6944536Y-14799393D02*
X6944536Y-14847012D01*
X6944536Y-14847012D02*
X6935012Y-14885107D01*
X6935012Y-14885107D02*
X6925488Y-14904155D01*
X6925488Y-14904155D02*
X6915964Y-14913679D01*
X6915964Y-14913679D02*
X6896917Y-14923203D01*
X6896917Y-14923203D02*
X6877869Y-14923203D01*
X6877869Y-14923203D02*
X6858821Y-14913679D01*
X6858821Y-14913679D02*
X6849298Y-14904155D01*
X6849298Y-14904155D02*
X6839774Y-14885107D01*
X6839774Y-14885107D02*
X6830250Y-14847012D01*
X6830250Y-14847012D02*
X6830250Y-14799393D01*
X6830250Y-14799393D02*
X6839774Y-14761298D01*
X6839774Y-14761298D02*
X6849298Y-14742250D01*
X6849298Y-14742250D02*
X6858821Y-14732726D01*
X6858821Y-14732726D02*
X6877869Y-14723203D01*
X7030250Y-14904155D02*
X7039774Y-14913679D01*
X7039774Y-14913679D02*
X7030250Y-14923203D01*
X7030250Y-14923203D02*
X7020726Y-14913679D01*
X7020726Y-14913679D02*
X7030250Y-14904155D01*
X7030250Y-14904155D02*
X7030250Y-14923203D01*
X7106440Y-14723203D02*
X7230250Y-14723203D01*
X7230250Y-14723203D02*
X7163583Y-14799393D01*
X7163583Y-14799393D02*
X7192155Y-14799393D01*
X7192155Y-14799393D02*
X7211202Y-14808917D01*
X7211202Y-14808917D02*
X7220726Y-14818441D01*
X7220726Y-14818441D02*
X7230250Y-14837488D01*
X7230250Y-14837488D02*
X7230250Y-14885107D01*
X7230250Y-14885107D02*
X7220726Y-14904155D01*
X7220726Y-14904155D02*
X7211202Y-14913679D01*
X7211202Y-14913679D02*
X7192155Y-14923203D01*
X7192155Y-14923203D02*
X7135012Y-14923203D01*
X7135012Y-14923203D02*
X7115964Y-14913679D01*
X7115964Y-14913679D02*
X7106440Y-14904155D01*
X7354059Y-14723203D02*
X7373107Y-14723203D01*
X7373107Y-14723203D02*
X7392155Y-14732726D01*
X7392155Y-14732726D02*
X7401679Y-14742250D01*
X7401679Y-14742250D02*
X7411202Y-14761298D01*
X7411202Y-14761298D02*
X7420726Y-14799393D01*
X7420726Y-14799393D02*
X7420726Y-14847012D01*
X7420726Y-14847012D02*
X7411202Y-14885107D01*
X7411202Y-14885107D02*
X7401679Y-14904155D01*
X7401679Y-14904155D02*
X7392155Y-14913679D01*
X7392155Y-14913679D02*
X7373107Y-14923203D01*
X7373107Y-14923203D02*
X7354059Y-14923203D01*
X7354059Y-14923203D02*
X7335012Y-14913679D01*
X7335012Y-14913679D02*
X7325488Y-14904155D01*
X7325488Y-14904155D02*
X7315964Y-14885107D01*
X7315964Y-14885107D02*
X7306440Y-14847012D01*
X7306440Y-14847012D02*
X7306440Y-14799393D01*
X7306440Y-14799393D02*
X7315964Y-14761298D01*
X7315964Y-14761298D02*
X7325488Y-14742250D01*
X7325488Y-14742250D02*
X7335012Y-14732726D01*
X7335012Y-14732726D02*
X7354059Y-14723203D01*
X7544536Y-14723203D02*
X7563583Y-14723203D01*
X7563583Y-14723203D02*
X7582631Y-14732726D01*
X7582631Y-14732726D02*
X7592155Y-14742250D01*
X7592155Y-14742250D02*
X7601679Y-14761298D01*
X7601679Y-14761298D02*
X7611202Y-14799393D01*
X7611202Y-14799393D02*
X7611202Y-14847012D01*
X7611202Y-14847012D02*
X7601679Y-14885107D01*
X7601679Y-14885107D02*
X7592155Y-14904155D01*
X7592155Y-14904155D02*
X7582631Y-14913679D01*
X7582631Y-14913679D02*
X7563583Y-14923203D01*
X7563583Y-14923203D02*
X7544536Y-14923203D01*
X7544536Y-14923203D02*
X7525488Y-14913679D01*
X7525488Y-14913679D02*
X7515964Y-14904155D01*
X7515964Y-14904155D02*
X7506440Y-14885107D01*
X7506440Y-14885107D02*
X7496917Y-14847012D01*
X7496917Y-14847012D02*
X7496917Y-14799393D01*
X7496917Y-14799393D02*
X7506440Y-14761298D01*
X7506440Y-14761298D02*
X7515964Y-14742250D01*
X7515964Y-14742250D02*
X7525488Y-14732726D01*
X7525488Y-14732726D02*
X7544536Y-14723203D01*
X7696917Y-14923203D02*
X7696917Y-14789869D01*
X7696917Y-14808917D02*
X7706440Y-14799393D01*
X7706440Y-14799393D02*
X7725488Y-14789869D01*
X7725488Y-14789869D02*
X7754060Y-14789869D01*
X7754060Y-14789869D02*
X7773107Y-14799393D01*
X7773107Y-14799393D02*
X7782631Y-14818441D01*
X7782631Y-14818441D02*
X7782631Y-14923203D01*
X7782631Y-14818441D02*
X7792155Y-14799393D01*
X7792155Y-14799393D02*
X7811202Y-14789869D01*
X7811202Y-14789869D02*
X7839774Y-14789869D01*
X7839774Y-14789869D02*
X7858821Y-14799393D01*
X7858821Y-14799393D02*
X7868345Y-14818441D01*
X7868345Y-14818441D02*
X7868345Y-14923203D01*
X7963583Y-14923203D02*
X7963583Y-14789869D01*
X7963583Y-14808917D02*
X7973107Y-14799393D01*
X7973107Y-14799393D02*
X7992155Y-14789869D01*
X7992155Y-14789869D02*
X8020726Y-14789869D01*
X8020726Y-14789869D02*
X8039774Y-14799393D01*
X8039774Y-14799393D02*
X8049298Y-14818441D01*
X8049298Y-14818441D02*
X8049298Y-14923203D01*
X8049298Y-14818441D02*
X8058821Y-14799393D01*
X8058821Y-14799393D02*
X8077869Y-14789869D01*
X8077869Y-14789869D02*
X8106440Y-14789869D01*
X8106440Y-14789869D02*
X8125488Y-14799393D01*
X8125488Y-14799393D02*
X8135012Y-14818441D01*
X8135012Y-14818441D02*
X8135012Y-14923203D01*
X8525488Y-14713679D02*
X8354060Y-14970822D01*
X8782631Y-14723203D02*
X8801679Y-14723203D01*
X8801679Y-14723203D02*
X8820726Y-14732726D01*
X8820726Y-14732726D02*
X8830250Y-14742250D01*
X8830250Y-14742250D02*
X8839774Y-14761298D01*
X8839774Y-14761298D02*
X8849298Y-14799393D01*
X8849298Y-14799393D02*
X8849298Y-14847012D01*
X8849298Y-14847012D02*
X8839774Y-14885107D01*
X8839774Y-14885107D02*
X8830250Y-14904155D01*
X8830250Y-14904155D02*
X8820726Y-14913679D01*
X8820726Y-14913679D02*
X8801679Y-14923203D01*
X8801679Y-14923203D02*
X8782631Y-14923203D01*
X8782631Y-14923203D02*
X8763584Y-14913679D01*
X8763584Y-14913679D02*
X8754060Y-14904155D01*
X8754060Y-14904155D02*
X8744536Y-14885107D01*
X8744536Y-14885107D02*
X8735012Y-14847012D01*
X8735012Y-14847012D02*
X8735012Y-14799393D01*
X8735012Y-14799393D02*
X8744536Y-14761298D01*
X8744536Y-14761298D02*
X8754060Y-14742250D01*
X8754060Y-14742250D02*
X8763584Y-14732726D01*
X8763584Y-14732726D02*
X8782631Y-14723203D01*
X8935012Y-14904155D02*
X8944536Y-14913679D01*
X8944536Y-14913679D02*
X8935012Y-14923203D01*
X8935012Y-14923203D02*
X8925488Y-14913679D01*
X8925488Y-14913679D02*
X8935012Y-14904155D01*
X8935012Y-14904155D02*
X8935012Y-14923203D01*
X9068345Y-14723203D02*
X9087393Y-14723203D01*
X9087393Y-14723203D02*
X9106441Y-14732726D01*
X9106441Y-14732726D02*
X9115965Y-14742250D01*
X9115965Y-14742250D02*
X9125488Y-14761298D01*
X9125488Y-14761298D02*
X9135012Y-14799393D01*
X9135012Y-14799393D02*
X9135012Y-14847012D01*
X9135012Y-14847012D02*
X9125488Y-14885107D01*
X9125488Y-14885107D02*
X9115965Y-14904155D01*
X9115965Y-14904155D02*
X9106441Y-14913679D01*
X9106441Y-14913679D02*
X9087393Y-14923203D01*
X9087393Y-14923203D02*
X9068345Y-14923203D01*
X9068345Y-14923203D02*
X9049298Y-14913679D01*
X9049298Y-14913679D02*
X9039774Y-14904155D01*
X9039774Y-14904155D02*
X9030250Y-14885107D01*
X9030250Y-14885107D02*
X9020726Y-14847012D01*
X9020726Y-14847012D02*
X9020726Y-14799393D01*
X9020726Y-14799393D02*
X9030250Y-14761298D01*
X9030250Y-14761298D02*
X9039774Y-14742250D01*
X9039774Y-14742250D02*
X9049298Y-14732726D01*
X9049298Y-14732726D02*
X9068345Y-14723203D01*
X9325488Y-14923203D02*
X9211203Y-14923203D01*
X9268345Y-14923203D02*
X9268345Y-14723203D01*
X9268345Y-14723203D02*
X9249298Y-14751774D01*
X9249298Y-14751774D02*
X9230250Y-14770822D01*
X9230250Y-14770822D02*
X9211203Y-14780345D01*
X9515965Y-14923203D02*
X9401679Y-14923203D01*
X9458822Y-14923203D02*
X9458822Y-14723203D01*
X9458822Y-14723203D02*
X9439774Y-14751774D01*
X9439774Y-14751774D02*
X9420726Y-14770822D01*
X9420726Y-14770822D02*
X9401679Y-14780345D01*
X9630250Y-14808917D02*
X9611203Y-14799393D01*
X9611203Y-14799393D02*
X9601679Y-14789869D01*
X9601679Y-14789869D02*
X9592155Y-14770822D01*
X9592155Y-14770822D02*
X9592155Y-14761298D01*
X9592155Y-14761298D02*
X9601679Y-14742250D01*
X9601679Y-14742250D02*
X9611203Y-14732726D01*
X9611203Y-14732726D02*
X9630250Y-14723203D01*
X9630250Y-14723203D02*
X9668346Y-14723203D01*
X9668346Y-14723203D02*
X9687393Y-14732726D01*
X9687393Y-14732726D02*
X9696917Y-14742250D01*
X9696917Y-14742250D02*
X9706441Y-14761298D01*
X9706441Y-14761298D02*
X9706441Y-14770822D01*
X9706441Y-14770822D02*
X9696917Y-14789869D01*
X9696917Y-14789869D02*
X9687393Y-14799393D01*
X9687393Y-14799393D02*
X9668346Y-14808917D01*
X9668346Y-14808917D02*
X9630250Y-14808917D01*
X9630250Y-14808917D02*
X9611203Y-14818441D01*
X9611203Y-14818441D02*
X9601679Y-14827965D01*
X9601679Y-14827965D02*
X9592155Y-14847012D01*
X9592155Y-14847012D02*
X9592155Y-14885107D01*
X9592155Y-14885107D02*
X9601679Y-14904155D01*
X9601679Y-14904155D02*
X9611203Y-14913679D01*
X9611203Y-14913679D02*
X9630250Y-14923203D01*
X9630250Y-14923203D02*
X9668346Y-14923203D01*
X9668346Y-14923203D02*
X9687393Y-14913679D01*
X9687393Y-14913679D02*
X9696917Y-14904155D01*
X9696917Y-14904155D02*
X9706441Y-14885107D01*
X9706441Y-14885107D02*
X9706441Y-14847012D01*
X9706441Y-14847012D02*
X9696917Y-14827965D01*
X9696917Y-14827965D02*
X9687393Y-14818441D01*
X9687393Y-14818441D02*
X9668346Y-14808917D01*
X9782631Y-14723203D02*
X9782631Y-14761298D01*
X9858822Y-14723203D02*
X9858822Y-14761298D01*
X10154060Y-14999393D02*
X10144536Y-14989869D01*
X10144536Y-14989869D02*
X10125488Y-14961298D01*
X10125488Y-14961298D02*
X10115965Y-14942250D01*
X10115965Y-14942250D02*
X10106441Y-14913679D01*
X10106441Y-14913679D02*
X10096917Y-14866060D01*
X10096917Y-14866060D02*
X10096917Y-14827965D01*
X10096917Y-14827965D02*
X10106441Y-14780345D01*
X10106441Y-14780345D02*
X10115965Y-14751774D01*
X10115965Y-14751774D02*
X10125488Y-14732726D01*
X10125488Y-14732726D02*
X10144536Y-14704155D01*
X10144536Y-14704155D02*
X10154060Y-14694631D01*
X10335012Y-14923203D02*
X10220727Y-14923203D01*
X10277869Y-14923203D02*
X10277869Y-14723203D01*
X10277869Y-14723203D02*
X10258822Y-14751774D01*
X10258822Y-14751774D02*
X10239774Y-14770822D01*
X10239774Y-14770822D02*
X10220727Y-14780345D01*
X10506441Y-14789869D02*
X10506441Y-14923203D01*
X10458822Y-14713679D02*
X10411203Y-14856536D01*
X10411203Y-14856536D02*
X10535012Y-14856536D01*
X10639774Y-14808917D02*
X10620727Y-14799393D01*
X10620727Y-14799393D02*
X10611203Y-14789869D01*
X10611203Y-14789869D02*
X10601679Y-14770822D01*
X10601679Y-14770822D02*
X10601679Y-14761298D01*
X10601679Y-14761298D02*
X10611203Y-14742250D01*
X10611203Y-14742250D02*
X10620727Y-14732726D01*
X10620727Y-14732726D02*
X10639774Y-14723203D01*
X10639774Y-14723203D02*
X10677869Y-14723203D01*
X10677869Y-14723203D02*
X10696917Y-14732726D01*
X10696917Y-14732726D02*
X10706441Y-14742250D01*
X10706441Y-14742250D02*
X10715965Y-14761298D01*
X10715965Y-14761298D02*
X10715965Y-14770822D01*
X10715965Y-14770822D02*
X10706441Y-14789869D01*
X10706441Y-14789869D02*
X10696917Y-14799393D01*
X10696917Y-14799393D02*
X10677869Y-14808917D01*
X10677869Y-14808917D02*
X10639774Y-14808917D01*
X10639774Y-14808917D02*
X10620727Y-14818441D01*
X10620727Y-14818441D02*
X10611203Y-14827965D01*
X10611203Y-14827965D02*
X10601679Y-14847012D01*
X10601679Y-14847012D02*
X10601679Y-14885107D01*
X10601679Y-14885107D02*
X10611203Y-14904155D01*
X10611203Y-14904155D02*
X10620727Y-14913679D01*
X10620727Y-14913679D02*
X10639774Y-14923203D01*
X10639774Y-14923203D02*
X10677869Y-14923203D01*
X10677869Y-14923203D02*
X10696917Y-14913679D01*
X10696917Y-14913679D02*
X10706441Y-14904155D01*
X10706441Y-14904155D02*
X10715965Y-14885107D01*
X10715965Y-14885107D02*
X10715965Y-14847012D01*
X10715965Y-14847012D02*
X10706441Y-14827965D01*
X10706441Y-14827965D02*
X10696917Y-14818441D01*
X10696917Y-14818441D02*
X10677869Y-14808917D01*
X10954060Y-14923203D02*
X10954060Y-14723203D01*
X11039774Y-14923203D02*
X11039774Y-14818441D01*
X11039774Y-14818441D02*
X11030250Y-14799393D01*
X11030250Y-14799393D02*
X11011203Y-14789869D01*
X11011203Y-14789869D02*
X10982631Y-14789869D01*
X10982631Y-14789869D02*
X10963584Y-14799393D01*
X10963584Y-14799393D02*
X10954060Y-14808917D01*
X11163584Y-14923203D02*
X11144536Y-14913679D01*
X11144536Y-14913679D02*
X11135012Y-14904155D01*
X11135012Y-14904155D02*
X11125489Y-14885107D01*
X11125489Y-14885107D02*
X11125489Y-14827965D01*
X11125489Y-14827965D02*
X11135012Y-14808917D01*
X11135012Y-14808917D02*
X11144536Y-14799393D01*
X11144536Y-14799393D02*
X11163584Y-14789869D01*
X11163584Y-14789869D02*
X11192155Y-14789869D01*
X11192155Y-14789869D02*
X11211203Y-14799393D01*
X11211203Y-14799393D02*
X11220727Y-14808917D01*
X11220727Y-14808917D02*
X11230250Y-14827965D01*
X11230250Y-14827965D02*
X11230250Y-14885107D01*
X11230250Y-14885107D02*
X11220727Y-14904155D01*
X11220727Y-14904155D02*
X11211203Y-14913679D01*
X11211203Y-14913679D02*
X11192155Y-14923203D01*
X11192155Y-14923203D02*
X11163584Y-14923203D01*
X11344536Y-14923203D02*
X11325488Y-14913679D01*
X11325488Y-14913679D02*
X11315965Y-14894631D01*
X11315965Y-14894631D02*
X11315965Y-14723203D01*
X11496917Y-14913679D02*
X11477869Y-14923203D01*
X11477869Y-14923203D02*
X11439774Y-14923203D01*
X11439774Y-14923203D02*
X11420727Y-14913679D01*
X11420727Y-14913679D02*
X11411203Y-14894631D01*
X11411203Y-14894631D02*
X11411203Y-14818441D01*
X11411203Y-14818441D02*
X11420727Y-14799393D01*
X11420727Y-14799393D02*
X11439774Y-14789869D01*
X11439774Y-14789869D02*
X11477869Y-14789869D01*
X11477869Y-14789869D02*
X11496917Y-14799393D01*
X11496917Y-14799393D02*
X11506441Y-14818441D01*
X11506441Y-14818441D02*
X11506441Y-14837488D01*
X11506441Y-14837488D02*
X11411203Y-14856536D01*
X11582631Y-14913679D02*
X11601679Y-14923203D01*
X11601679Y-14923203D02*
X11639774Y-14923203D01*
X11639774Y-14923203D02*
X11658822Y-14913679D01*
X11658822Y-14913679D02*
X11668346Y-14894631D01*
X11668346Y-14894631D02*
X11668346Y-14885107D01*
X11668346Y-14885107D02*
X11658822Y-14866060D01*
X11658822Y-14866060D02*
X11639774Y-14856536D01*
X11639774Y-14856536D02*
X11611203Y-14856536D01*
X11611203Y-14856536D02*
X11592155Y-14847012D01*
X11592155Y-14847012D02*
X11582631Y-14827965D01*
X11582631Y-14827965D02*
X11582631Y-14818441D01*
X11582631Y-14818441D02*
X11592155Y-14799393D01*
X11592155Y-14799393D02*
X11611203Y-14789869D01*
X11611203Y-14789869D02*
X11639774Y-14789869D01*
X11639774Y-14789869D02*
X11658822Y-14799393D01*
X11735012Y-14999393D02*
X11744536Y-14989869D01*
X11744536Y-14989869D02*
X11763584Y-14961298D01*
X11763584Y-14961298D02*
X11773108Y-14942250D01*
X11773108Y-14942250D02*
X11782631Y-14913679D01*
X11782631Y-14913679D02*
X11792155Y-14866060D01*
X11792155Y-14866060D02*
X11792155Y-14827965D01*
X11792155Y-14827965D02*
X11782631Y-14780345D01*
X11782631Y-14780345D02*
X11773108Y-14751774D01*
X11773108Y-14751774D02*
X11763584Y-14732726D01*
X11763584Y-14732726D02*
X11744536Y-14704155D01*
X11744536Y-14704155D02*
X11735012Y-14694631D01*
D12*
X6578997Y-15095719D02*
G75*
G02*
X6548997Y-15095719I-15000J0D01*
G01*
X6548997Y-15095719D02*
G75*
G02*
X6578997Y-15095719I15000J0D01*
G01*
D10*
X6877869Y-14987203D02*
X6896917Y-14987203D01*
X6896917Y-14987203D02*
X6915964Y-14996726D01*
X6915964Y-14996726D02*
X6925488Y-15006250D01*
X6925488Y-15006250D02*
X6935012Y-15025298D01*
X6935012Y-15025298D02*
X6944536Y-15063393D01*
X6944536Y-15063393D02*
X6944536Y-15111012D01*
X6944536Y-15111012D02*
X6935012Y-15149107D01*
X6935012Y-15149107D02*
X6925488Y-15168155D01*
X6925488Y-15168155D02*
X6915964Y-15177679D01*
X6915964Y-15177679D02*
X6896917Y-15187203D01*
X6896917Y-15187203D02*
X6877869Y-15187203D01*
X6877869Y-15187203D02*
X6858821Y-15177679D01*
X6858821Y-15177679D02*
X6849298Y-15168155D01*
X6849298Y-15168155D02*
X6839774Y-15149107D01*
X6839774Y-15149107D02*
X6830250Y-15111012D01*
X6830250Y-15111012D02*
X6830250Y-15063393D01*
X6830250Y-15063393D02*
X6839774Y-15025298D01*
X6839774Y-15025298D02*
X6849298Y-15006250D01*
X6849298Y-15006250D02*
X6858821Y-14996726D01*
X6858821Y-14996726D02*
X6877869Y-14987203D01*
X7030250Y-15168155D02*
X7039774Y-15177679D01*
X7039774Y-15177679D02*
X7030250Y-15187203D01*
X7030250Y-15187203D02*
X7020726Y-15177679D01*
X7020726Y-15177679D02*
X7030250Y-15168155D01*
X7030250Y-15168155D02*
X7030250Y-15187203D01*
X7106440Y-14987203D02*
X7230250Y-14987203D01*
X7230250Y-14987203D02*
X7163583Y-15063393D01*
X7163583Y-15063393D02*
X7192155Y-15063393D01*
X7192155Y-15063393D02*
X7211202Y-15072917D01*
X7211202Y-15072917D02*
X7220726Y-15082441D01*
X7220726Y-15082441D02*
X7230250Y-15101488D01*
X7230250Y-15101488D02*
X7230250Y-15149107D01*
X7230250Y-15149107D02*
X7220726Y-15168155D01*
X7220726Y-15168155D02*
X7211202Y-15177679D01*
X7211202Y-15177679D02*
X7192155Y-15187203D01*
X7192155Y-15187203D02*
X7135012Y-15187203D01*
X7135012Y-15187203D02*
X7115964Y-15177679D01*
X7115964Y-15177679D02*
X7106440Y-15168155D01*
X7354059Y-14987203D02*
X7373107Y-14987203D01*
X7373107Y-14987203D02*
X7392155Y-14996726D01*
X7392155Y-14996726D02*
X7401679Y-15006250D01*
X7401679Y-15006250D02*
X7411202Y-15025298D01*
X7411202Y-15025298D02*
X7420726Y-15063393D01*
X7420726Y-15063393D02*
X7420726Y-15111012D01*
X7420726Y-15111012D02*
X7411202Y-15149107D01*
X7411202Y-15149107D02*
X7401679Y-15168155D01*
X7401679Y-15168155D02*
X7392155Y-15177679D01*
X7392155Y-15177679D02*
X7373107Y-15187203D01*
X7373107Y-15187203D02*
X7354059Y-15187203D01*
X7354059Y-15187203D02*
X7335012Y-15177679D01*
X7335012Y-15177679D02*
X7325488Y-15168155D01*
X7325488Y-15168155D02*
X7315964Y-15149107D01*
X7315964Y-15149107D02*
X7306440Y-15111012D01*
X7306440Y-15111012D02*
X7306440Y-15063393D01*
X7306440Y-15063393D02*
X7315964Y-15025298D01*
X7315964Y-15025298D02*
X7325488Y-15006250D01*
X7325488Y-15006250D02*
X7335012Y-14996726D01*
X7335012Y-14996726D02*
X7354059Y-14987203D01*
X7544536Y-14987203D02*
X7563583Y-14987203D01*
X7563583Y-14987203D02*
X7582631Y-14996726D01*
X7582631Y-14996726D02*
X7592155Y-15006250D01*
X7592155Y-15006250D02*
X7601679Y-15025298D01*
X7601679Y-15025298D02*
X7611202Y-15063393D01*
X7611202Y-15063393D02*
X7611202Y-15111012D01*
X7611202Y-15111012D02*
X7601679Y-15149107D01*
X7601679Y-15149107D02*
X7592155Y-15168155D01*
X7592155Y-15168155D02*
X7582631Y-15177679D01*
X7582631Y-15177679D02*
X7563583Y-15187203D01*
X7563583Y-15187203D02*
X7544536Y-15187203D01*
X7544536Y-15187203D02*
X7525488Y-15177679D01*
X7525488Y-15177679D02*
X7515964Y-15168155D01*
X7515964Y-15168155D02*
X7506440Y-15149107D01*
X7506440Y-15149107D02*
X7496917Y-15111012D01*
X7496917Y-15111012D02*
X7496917Y-15063393D01*
X7496917Y-15063393D02*
X7506440Y-15025298D01*
X7506440Y-15025298D02*
X7515964Y-15006250D01*
X7515964Y-15006250D02*
X7525488Y-14996726D01*
X7525488Y-14996726D02*
X7544536Y-14987203D01*
X7696917Y-15187203D02*
X7696917Y-15053869D01*
X7696917Y-15072917D02*
X7706440Y-15063393D01*
X7706440Y-15063393D02*
X7725488Y-15053869D01*
X7725488Y-15053869D02*
X7754060Y-15053869D01*
X7754060Y-15053869D02*
X7773107Y-15063393D01*
X7773107Y-15063393D02*
X7782631Y-15082441D01*
X7782631Y-15082441D02*
X7782631Y-15187203D01*
X7782631Y-15082441D02*
X7792155Y-15063393D01*
X7792155Y-15063393D02*
X7811202Y-15053869D01*
X7811202Y-15053869D02*
X7839774Y-15053869D01*
X7839774Y-15053869D02*
X7858821Y-15063393D01*
X7858821Y-15063393D02*
X7868345Y-15082441D01*
X7868345Y-15082441D02*
X7868345Y-15187203D01*
X7963583Y-15187203D02*
X7963583Y-15053869D01*
X7963583Y-15072917D02*
X7973107Y-15063393D01*
X7973107Y-15063393D02*
X7992155Y-15053869D01*
X7992155Y-15053869D02*
X8020726Y-15053869D01*
X8020726Y-15053869D02*
X8039774Y-15063393D01*
X8039774Y-15063393D02*
X8049298Y-15082441D01*
X8049298Y-15082441D02*
X8049298Y-15187203D01*
X8049298Y-15082441D02*
X8058821Y-15063393D01*
X8058821Y-15063393D02*
X8077869Y-15053869D01*
X8077869Y-15053869D02*
X8106440Y-15053869D01*
X8106440Y-15053869D02*
X8125488Y-15063393D01*
X8125488Y-15063393D02*
X8135012Y-15082441D01*
X8135012Y-15082441D02*
X8135012Y-15187203D01*
X8525488Y-14977679D02*
X8354060Y-15234822D01*
X8782631Y-14987203D02*
X8801679Y-14987203D01*
X8801679Y-14987203D02*
X8820726Y-14996726D01*
X8820726Y-14996726D02*
X8830250Y-15006250D01*
X8830250Y-15006250D02*
X8839774Y-15025298D01*
X8839774Y-15025298D02*
X8849298Y-15063393D01*
X8849298Y-15063393D02*
X8849298Y-15111012D01*
X8849298Y-15111012D02*
X8839774Y-15149107D01*
X8839774Y-15149107D02*
X8830250Y-15168155D01*
X8830250Y-15168155D02*
X8820726Y-15177679D01*
X8820726Y-15177679D02*
X8801679Y-15187203D01*
X8801679Y-15187203D02*
X8782631Y-15187203D01*
X8782631Y-15187203D02*
X8763584Y-15177679D01*
X8763584Y-15177679D02*
X8754060Y-15168155D01*
X8754060Y-15168155D02*
X8744536Y-15149107D01*
X8744536Y-15149107D02*
X8735012Y-15111012D01*
X8735012Y-15111012D02*
X8735012Y-15063393D01*
X8735012Y-15063393D02*
X8744536Y-15025298D01*
X8744536Y-15025298D02*
X8754060Y-15006250D01*
X8754060Y-15006250D02*
X8763584Y-14996726D01*
X8763584Y-14996726D02*
X8782631Y-14987203D01*
X8935012Y-15168155D02*
X8944536Y-15177679D01*
X8944536Y-15177679D02*
X8935012Y-15187203D01*
X8935012Y-15187203D02*
X8925488Y-15177679D01*
X8925488Y-15177679D02*
X8935012Y-15168155D01*
X8935012Y-15168155D02*
X8935012Y-15187203D01*
X9068345Y-14987203D02*
X9087393Y-14987203D01*
X9087393Y-14987203D02*
X9106441Y-14996726D01*
X9106441Y-14996726D02*
X9115965Y-15006250D01*
X9115965Y-15006250D02*
X9125488Y-15025298D01*
X9125488Y-15025298D02*
X9135012Y-15063393D01*
X9135012Y-15063393D02*
X9135012Y-15111012D01*
X9135012Y-15111012D02*
X9125488Y-15149107D01*
X9125488Y-15149107D02*
X9115965Y-15168155D01*
X9115965Y-15168155D02*
X9106441Y-15177679D01*
X9106441Y-15177679D02*
X9087393Y-15187203D01*
X9087393Y-15187203D02*
X9068345Y-15187203D01*
X9068345Y-15187203D02*
X9049298Y-15177679D01*
X9049298Y-15177679D02*
X9039774Y-15168155D01*
X9039774Y-15168155D02*
X9030250Y-15149107D01*
X9030250Y-15149107D02*
X9020726Y-15111012D01*
X9020726Y-15111012D02*
X9020726Y-15063393D01*
X9020726Y-15063393D02*
X9030250Y-15025298D01*
X9030250Y-15025298D02*
X9039774Y-15006250D01*
X9039774Y-15006250D02*
X9049298Y-14996726D01*
X9049298Y-14996726D02*
X9068345Y-14987203D01*
X9325488Y-15187203D02*
X9211203Y-15187203D01*
X9268345Y-15187203D02*
X9268345Y-14987203D01*
X9268345Y-14987203D02*
X9249298Y-15015774D01*
X9249298Y-15015774D02*
X9230250Y-15034822D01*
X9230250Y-15034822D02*
X9211203Y-15044345D01*
X9515965Y-15187203D02*
X9401679Y-15187203D01*
X9458822Y-15187203D02*
X9458822Y-14987203D01*
X9458822Y-14987203D02*
X9439774Y-15015774D01*
X9439774Y-15015774D02*
X9420726Y-15034822D01*
X9420726Y-15034822D02*
X9401679Y-15044345D01*
X9630250Y-15072917D02*
X9611203Y-15063393D01*
X9611203Y-15063393D02*
X9601679Y-15053869D01*
X9601679Y-15053869D02*
X9592155Y-15034822D01*
X9592155Y-15034822D02*
X9592155Y-15025298D01*
X9592155Y-15025298D02*
X9601679Y-15006250D01*
X9601679Y-15006250D02*
X9611203Y-14996726D01*
X9611203Y-14996726D02*
X9630250Y-14987203D01*
X9630250Y-14987203D02*
X9668346Y-14987203D01*
X9668346Y-14987203D02*
X9687393Y-14996726D01*
X9687393Y-14996726D02*
X9696917Y-15006250D01*
X9696917Y-15006250D02*
X9706441Y-15025298D01*
X9706441Y-15025298D02*
X9706441Y-15034822D01*
X9706441Y-15034822D02*
X9696917Y-15053869D01*
X9696917Y-15053869D02*
X9687393Y-15063393D01*
X9687393Y-15063393D02*
X9668346Y-15072917D01*
X9668346Y-15072917D02*
X9630250Y-15072917D01*
X9630250Y-15072917D02*
X9611203Y-15082441D01*
X9611203Y-15082441D02*
X9601679Y-15091965D01*
X9601679Y-15091965D02*
X9592155Y-15111012D01*
X9592155Y-15111012D02*
X9592155Y-15149107D01*
X9592155Y-15149107D02*
X9601679Y-15168155D01*
X9601679Y-15168155D02*
X9611203Y-15177679D01*
X9611203Y-15177679D02*
X9630250Y-15187203D01*
X9630250Y-15187203D02*
X9668346Y-15187203D01*
X9668346Y-15187203D02*
X9687393Y-15177679D01*
X9687393Y-15177679D02*
X9696917Y-15168155D01*
X9696917Y-15168155D02*
X9706441Y-15149107D01*
X9706441Y-15149107D02*
X9706441Y-15111012D01*
X9706441Y-15111012D02*
X9696917Y-15091965D01*
X9696917Y-15091965D02*
X9687393Y-15082441D01*
X9687393Y-15082441D02*
X9668346Y-15072917D01*
X9782631Y-14987203D02*
X9782631Y-15025298D01*
X9858822Y-14987203D02*
X9858822Y-15025298D01*
X10154060Y-15263393D02*
X10144536Y-15253869D01*
X10144536Y-15253869D02*
X10125488Y-15225298D01*
X10125488Y-15225298D02*
X10115965Y-15206250D01*
X10115965Y-15206250D02*
X10106441Y-15177679D01*
X10106441Y-15177679D02*
X10096917Y-15130060D01*
X10096917Y-15130060D02*
X10096917Y-15091965D01*
X10096917Y-15091965D02*
X10106441Y-15044345D01*
X10106441Y-15044345D02*
X10115965Y-15015774D01*
X10115965Y-15015774D02*
X10125488Y-14996726D01*
X10125488Y-14996726D02*
X10144536Y-14968155D01*
X10144536Y-14968155D02*
X10154060Y-14958631D01*
X10258822Y-15072917D02*
X10239774Y-15063393D01*
X10239774Y-15063393D02*
X10230250Y-15053869D01*
X10230250Y-15053869D02*
X10220727Y-15034822D01*
X10220727Y-15034822D02*
X10220727Y-15025298D01*
X10220727Y-15025298D02*
X10230250Y-15006250D01*
X10230250Y-15006250D02*
X10239774Y-14996726D01*
X10239774Y-14996726D02*
X10258822Y-14987203D01*
X10258822Y-14987203D02*
X10296917Y-14987203D01*
X10296917Y-14987203D02*
X10315965Y-14996726D01*
X10315965Y-14996726D02*
X10325488Y-15006250D01*
X10325488Y-15006250D02*
X10335012Y-15025298D01*
X10335012Y-15025298D02*
X10335012Y-15034822D01*
X10335012Y-15034822D02*
X10325488Y-15053869D01*
X10325488Y-15053869D02*
X10315965Y-15063393D01*
X10315965Y-15063393D02*
X10296917Y-15072917D01*
X10296917Y-15072917D02*
X10258822Y-15072917D01*
X10258822Y-15072917D02*
X10239774Y-15082441D01*
X10239774Y-15082441D02*
X10230250Y-15091965D01*
X10230250Y-15091965D02*
X10220727Y-15111012D01*
X10220727Y-15111012D02*
X10220727Y-15149107D01*
X10220727Y-15149107D02*
X10230250Y-15168155D01*
X10230250Y-15168155D02*
X10239774Y-15177679D01*
X10239774Y-15177679D02*
X10258822Y-15187203D01*
X10258822Y-15187203D02*
X10296917Y-15187203D01*
X10296917Y-15187203D02*
X10315965Y-15177679D01*
X10315965Y-15177679D02*
X10325488Y-15168155D01*
X10325488Y-15168155D02*
X10335012Y-15149107D01*
X10335012Y-15149107D02*
X10335012Y-15111012D01*
X10335012Y-15111012D02*
X10325488Y-15091965D01*
X10325488Y-15091965D02*
X10315965Y-15082441D01*
X10315965Y-15082441D02*
X10296917Y-15072917D01*
X10573108Y-15187203D02*
X10573108Y-14987203D01*
X10658822Y-15187203D02*
X10658822Y-15082441D01*
X10658822Y-15082441D02*
X10649298Y-15063393D01*
X10649298Y-15063393D02*
X10630250Y-15053869D01*
X10630250Y-15053869D02*
X10601679Y-15053869D01*
X10601679Y-15053869D02*
X10582631Y-15063393D01*
X10582631Y-15063393D02*
X10573108Y-15072917D01*
X10782631Y-15187203D02*
X10763584Y-15177679D01*
X10763584Y-15177679D02*
X10754060Y-15168155D01*
X10754060Y-15168155D02*
X10744536Y-15149107D01*
X10744536Y-15149107D02*
X10744536Y-15091965D01*
X10744536Y-15091965D02*
X10754060Y-15072917D01*
X10754060Y-15072917D02*
X10763584Y-15063393D01*
X10763584Y-15063393D02*
X10782631Y-15053869D01*
X10782631Y-15053869D02*
X10811203Y-15053869D01*
X10811203Y-15053869D02*
X10830250Y-15063393D01*
X10830250Y-15063393D02*
X10839774Y-15072917D01*
X10839774Y-15072917D02*
X10849298Y-15091965D01*
X10849298Y-15091965D02*
X10849298Y-15149107D01*
X10849298Y-15149107D02*
X10839774Y-15168155D01*
X10839774Y-15168155D02*
X10830250Y-15177679D01*
X10830250Y-15177679D02*
X10811203Y-15187203D01*
X10811203Y-15187203D02*
X10782631Y-15187203D01*
X10963584Y-15187203D02*
X10944536Y-15177679D01*
X10944536Y-15177679D02*
X10935012Y-15158631D01*
X10935012Y-15158631D02*
X10935012Y-14987203D01*
X11115965Y-15177679D02*
X11096917Y-15187203D01*
X11096917Y-15187203D02*
X11058822Y-15187203D01*
X11058822Y-15187203D02*
X11039774Y-15177679D01*
X11039774Y-15177679D02*
X11030250Y-15158631D01*
X11030250Y-15158631D02*
X11030250Y-15082441D01*
X11030250Y-15082441D02*
X11039774Y-15063393D01*
X11039774Y-15063393D02*
X11058822Y-15053869D01*
X11058822Y-15053869D02*
X11096917Y-15053869D01*
X11096917Y-15053869D02*
X11115965Y-15063393D01*
X11115965Y-15063393D02*
X11125489Y-15082441D01*
X11125489Y-15082441D02*
X11125489Y-15101488D01*
X11125489Y-15101488D02*
X11030250Y-15120536D01*
X11201679Y-15177679D02*
X11220727Y-15187203D01*
X11220727Y-15187203D02*
X11258822Y-15187203D01*
X11258822Y-15187203D02*
X11277869Y-15177679D01*
X11277869Y-15177679D02*
X11287393Y-15158631D01*
X11287393Y-15158631D02*
X11287393Y-15149107D01*
X11287393Y-15149107D02*
X11277869Y-15130060D01*
X11277869Y-15130060D02*
X11258822Y-15120536D01*
X11258822Y-15120536D02*
X11230250Y-15120536D01*
X11230250Y-15120536D02*
X11211203Y-15111012D01*
X11211203Y-15111012D02*
X11201679Y-15091965D01*
X11201679Y-15091965D02*
X11201679Y-15082441D01*
X11201679Y-15082441D02*
X11211203Y-15063393D01*
X11211203Y-15063393D02*
X11230250Y-15053869D01*
X11230250Y-15053869D02*
X11258822Y-15053869D01*
X11258822Y-15053869D02*
X11277869Y-15063393D01*
X11354060Y-15263393D02*
X11363584Y-15253869D01*
X11363584Y-15253869D02*
X11382631Y-15225298D01*
X11382631Y-15225298D02*
X11392155Y-15206250D01*
X11392155Y-15206250D02*
X11401679Y-15177679D01*
X11401679Y-15177679D02*
X11411203Y-15130060D01*
X11411203Y-15130060D02*
X11411203Y-15091965D01*
X11411203Y-15091965D02*
X11401679Y-15044345D01*
X11401679Y-15044345D02*
X11392155Y-15015774D01*
X11392155Y-15015774D02*
X11382631Y-14996726D01*
X11382631Y-14996726D02*
X11363584Y-14968155D01*
X11363584Y-14968155D02*
X11354060Y-14958631D01*
D12*
X6547997Y-15328719D02*
X6547997Y-15390719D01*
X6516997Y-15359719D02*
X6578997Y-15359719D01*
D10*
X6877869Y-15251203D02*
X6896917Y-15251203D01*
X6896917Y-15251203D02*
X6915964Y-15260726D01*
X6915964Y-15260726D02*
X6925488Y-15270250D01*
X6925488Y-15270250D02*
X6935012Y-15289298D01*
X6935012Y-15289298D02*
X6944536Y-15327393D01*
X6944536Y-15327393D02*
X6944536Y-15375012D01*
X6944536Y-15375012D02*
X6935012Y-15413107D01*
X6935012Y-15413107D02*
X6925488Y-15432155D01*
X6925488Y-15432155D02*
X6915964Y-15441679D01*
X6915964Y-15441679D02*
X6896917Y-15451203D01*
X6896917Y-15451203D02*
X6877869Y-15451203D01*
X6877869Y-15451203D02*
X6858821Y-15441679D01*
X6858821Y-15441679D02*
X6849298Y-15432155D01*
X6849298Y-15432155D02*
X6839774Y-15413107D01*
X6839774Y-15413107D02*
X6830250Y-15375012D01*
X6830250Y-15375012D02*
X6830250Y-15327393D01*
X6830250Y-15327393D02*
X6839774Y-15289298D01*
X6839774Y-15289298D02*
X6849298Y-15270250D01*
X6849298Y-15270250D02*
X6858821Y-15260726D01*
X6858821Y-15260726D02*
X6877869Y-15251203D01*
X7030250Y-15432155D02*
X7039774Y-15441679D01*
X7039774Y-15441679D02*
X7030250Y-15451203D01*
X7030250Y-15451203D02*
X7020726Y-15441679D01*
X7020726Y-15441679D02*
X7030250Y-15432155D01*
X7030250Y-15432155D02*
X7030250Y-15451203D01*
X7211202Y-15251203D02*
X7173107Y-15251203D01*
X7173107Y-15251203D02*
X7154059Y-15260726D01*
X7154059Y-15260726D02*
X7144536Y-15270250D01*
X7144536Y-15270250D02*
X7125488Y-15298822D01*
X7125488Y-15298822D02*
X7115964Y-15336917D01*
X7115964Y-15336917D02*
X7115964Y-15413107D01*
X7115964Y-15413107D02*
X7125488Y-15432155D01*
X7125488Y-15432155D02*
X7135012Y-15441679D01*
X7135012Y-15441679D02*
X7154059Y-15451203D01*
X7154059Y-15451203D02*
X7192155Y-15451203D01*
X7192155Y-15451203D02*
X7211202Y-15441679D01*
X7211202Y-15441679D02*
X7220726Y-15432155D01*
X7220726Y-15432155D02*
X7230250Y-15413107D01*
X7230250Y-15413107D02*
X7230250Y-15365488D01*
X7230250Y-15365488D02*
X7220726Y-15346441D01*
X7220726Y-15346441D02*
X7211202Y-15336917D01*
X7211202Y-15336917D02*
X7192155Y-15327393D01*
X7192155Y-15327393D02*
X7154059Y-15327393D01*
X7154059Y-15327393D02*
X7135012Y-15336917D01*
X7135012Y-15336917D02*
X7125488Y-15346441D01*
X7125488Y-15346441D02*
X7115964Y-15365488D01*
X7306440Y-15270250D02*
X7315964Y-15260726D01*
X7315964Y-15260726D02*
X7335012Y-15251203D01*
X7335012Y-15251203D02*
X7382631Y-15251203D01*
X7382631Y-15251203D02*
X7401679Y-15260726D01*
X7401679Y-15260726D02*
X7411202Y-15270250D01*
X7411202Y-15270250D02*
X7420726Y-15289298D01*
X7420726Y-15289298D02*
X7420726Y-15308345D01*
X7420726Y-15308345D02*
X7411202Y-15336917D01*
X7411202Y-15336917D02*
X7296917Y-15451203D01*
X7296917Y-15451203D02*
X7420726Y-15451203D01*
X7544536Y-15251203D02*
X7563583Y-15251203D01*
X7563583Y-15251203D02*
X7582631Y-15260726D01*
X7582631Y-15260726D02*
X7592155Y-15270250D01*
X7592155Y-15270250D02*
X7601679Y-15289298D01*
X7601679Y-15289298D02*
X7611202Y-15327393D01*
X7611202Y-15327393D02*
X7611202Y-15375012D01*
X7611202Y-15375012D02*
X7601679Y-15413107D01*
X7601679Y-15413107D02*
X7592155Y-15432155D01*
X7592155Y-15432155D02*
X7582631Y-15441679D01*
X7582631Y-15441679D02*
X7563583Y-15451203D01*
X7563583Y-15451203D02*
X7544536Y-15451203D01*
X7544536Y-15451203D02*
X7525488Y-15441679D01*
X7525488Y-15441679D02*
X7515964Y-15432155D01*
X7515964Y-15432155D02*
X7506440Y-15413107D01*
X7506440Y-15413107D02*
X7496917Y-15375012D01*
X7496917Y-15375012D02*
X7496917Y-15327393D01*
X7496917Y-15327393D02*
X7506440Y-15289298D01*
X7506440Y-15289298D02*
X7515964Y-15270250D01*
X7515964Y-15270250D02*
X7525488Y-15260726D01*
X7525488Y-15260726D02*
X7544536Y-15251203D01*
X7696917Y-15451203D02*
X7696917Y-15317869D01*
X7696917Y-15336917D02*
X7706440Y-15327393D01*
X7706440Y-15327393D02*
X7725488Y-15317869D01*
X7725488Y-15317869D02*
X7754060Y-15317869D01*
X7754060Y-15317869D02*
X7773107Y-15327393D01*
X7773107Y-15327393D02*
X7782631Y-15346441D01*
X7782631Y-15346441D02*
X7782631Y-15451203D01*
X7782631Y-15346441D02*
X7792155Y-15327393D01*
X7792155Y-15327393D02*
X7811202Y-15317869D01*
X7811202Y-15317869D02*
X7839774Y-15317869D01*
X7839774Y-15317869D02*
X7858821Y-15327393D01*
X7858821Y-15327393D02*
X7868345Y-15346441D01*
X7868345Y-15346441D02*
X7868345Y-15451203D01*
X7963583Y-15451203D02*
X7963583Y-15317869D01*
X7963583Y-15336917D02*
X7973107Y-15327393D01*
X7973107Y-15327393D02*
X7992155Y-15317869D01*
X7992155Y-15317869D02*
X8020726Y-15317869D01*
X8020726Y-15317869D02*
X8039774Y-15327393D01*
X8039774Y-15327393D02*
X8049298Y-15346441D01*
X8049298Y-15346441D02*
X8049298Y-15451203D01*
X8049298Y-15346441D02*
X8058821Y-15327393D01*
X8058821Y-15327393D02*
X8077869Y-15317869D01*
X8077869Y-15317869D02*
X8106440Y-15317869D01*
X8106440Y-15317869D02*
X8125488Y-15327393D01*
X8125488Y-15327393D02*
X8135012Y-15346441D01*
X8135012Y-15346441D02*
X8135012Y-15451203D01*
X8525488Y-15241679D02*
X8354060Y-15498822D01*
X8782631Y-15251203D02*
X8801679Y-15251203D01*
X8801679Y-15251203D02*
X8820726Y-15260726D01*
X8820726Y-15260726D02*
X8830250Y-15270250D01*
X8830250Y-15270250D02*
X8839774Y-15289298D01*
X8839774Y-15289298D02*
X8849298Y-15327393D01*
X8849298Y-15327393D02*
X8849298Y-15375012D01*
X8849298Y-15375012D02*
X8839774Y-15413107D01*
X8839774Y-15413107D02*
X8830250Y-15432155D01*
X8830250Y-15432155D02*
X8820726Y-15441679D01*
X8820726Y-15441679D02*
X8801679Y-15451203D01*
X8801679Y-15451203D02*
X8782631Y-15451203D01*
X8782631Y-15451203D02*
X8763584Y-15441679D01*
X8763584Y-15441679D02*
X8754060Y-15432155D01*
X8754060Y-15432155D02*
X8744536Y-15413107D01*
X8744536Y-15413107D02*
X8735012Y-15375012D01*
X8735012Y-15375012D02*
X8735012Y-15327393D01*
X8735012Y-15327393D02*
X8744536Y-15289298D01*
X8744536Y-15289298D02*
X8754060Y-15270250D01*
X8754060Y-15270250D02*
X8763584Y-15260726D01*
X8763584Y-15260726D02*
X8782631Y-15251203D01*
X8935012Y-15432155D02*
X8944536Y-15441679D01*
X8944536Y-15441679D02*
X8935012Y-15451203D01*
X8935012Y-15451203D02*
X8925488Y-15441679D01*
X8925488Y-15441679D02*
X8935012Y-15432155D01*
X8935012Y-15432155D02*
X8935012Y-15451203D01*
X9068345Y-15251203D02*
X9087393Y-15251203D01*
X9087393Y-15251203D02*
X9106441Y-15260726D01*
X9106441Y-15260726D02*
X9115965Y-15270250D01*
X9115965Y-15270250D02*
X9125488Y-15289298D01*
X9125488Y-15289298D02*
X9135012Y-15327393D01*
X9135012Y-15327393D02*
X9135012Y-15375012D01*
X9135012Y-15375012D02*
X9125488Y-15413107D01*
X9125488Y-15413107D02*
X9115965Y-15432155D01*
X9115965Y-15432155D02*
X9106441Y-15441679D01*
X9106441Y-15441679D02*
X9087393Y-15451203D01*
X9087393Y-15451203D02*
X9068345Y-15451203D01*
X9068345Y-15451203D02*
X9049298Y-15441679D01*
X9049298Y-15441679D02*
X9039774Y-15432155D01*
X9039774Y-15432155D02*
X9030250Y-15413107D01*
X9030250Y-15413107D02*
X9020726Y-15375012D01*
X9020726Y-15375012D02*
X9020726Y-15327393D01*
X9020726Y-15327393D02*
X9030250Y-15289298D01*
X9030250Y-15289298D02*
X9039774Y-15270250D01*
X9039774Y-15270250D02*
X9049298Y-15260726D01*
X9049298Y-15260726D02*
X9068345Y-15251203D01*
X9211203Y-15270250D02*
X9220726Y-15260726D01*
X9220726Y-15260726D02*
X9239774Y-15251203D01*
X9239774Y-15251203D02*
X9287393Y-15251203D01*
X9287393Y-15251203D02*
X9306441Y-15260726D01*
X9306441Y-15260726D02*
X9315965Y-15270250D01*
X9315965Y-15270250D02*
X9325488Y-15289298D01*
X9325488Y-15289298D02*
X9325488Y-15308345D01*
X9325488Y-15308345D02*
X9315965Y-15336917D01*
X9315965Y-15336917D02*
X9201679Y-15451203D01*
X9201679Y-15451203D02*
X9325488Y-15451203D01*
X9496917Y-15317869D02*
X9496917Y-15451203D01*
X9449298Y-15241679D02*
X9401679Y-15384536D01*
X9401679Y-15384536D02*
X9525488Y-15384536D01*
X9687393Y-15317869D02*
X9687393Y-15451203D01*
X9639774Y-15241679D02*
X9592155Y-15384536D01*
X9592155Y-15384536D02*
X9715965Y-15384536D01*
X9782631Y-15251203D02*
X9782631Y-15289298D01*
X9858822Y-15251203D02*
X9858822Y-15289298D01*
X10154060Y-15527393D02*
X10144536Y-15517869D01*
X10144536Y-15517869D02*
X10125488Y-15489298D01*
X10125488Y-15489298D02*
X10115965Y-15470250D01*
X10115965Y-15470250D02*
X10106441Y-15441679D01*
X10106441Y-15441679D02*
X10096917Y-15394060D01*
X10096917Y-15394060D02*
X10096917Y-15355965D01*
X10096917Y-15355965D02*
X10106441Y-15308345D01*
X10106441Y-15308345D02*
X10115965Y-15279774D01*
X10115965Y-15279774D02*
X10125488Y-15260726D01*
X10125488Y-15260726D02*
X10144536Y-15232155D01*
X10144536Y-15232155D02*
X10154060Y-15222631D01*
X10268346Y-15251203D02*
X10287393Y-15251203D01*
X10287393Y-15251203D02*
X10306441Y-15260726D01*
X10306441Y-15260726D02*
X10315965Y-15270250D01*
X10315965Y-15270250D02*
X10325488Y-15289298D01*
X10325488Y-15289298D02*
X10335012Y-15327393D01*
X10335012Y-15327393D02*
X10335012Y-15375012D01*
X10335012Y-15375012D02*
X10325488Y-15413107D01*
X10325488Y-15413107D02*
X10315965Y-15432155D01*
X10315965Y-15432155D02*
X10306441Y-15441679D01*
X10306441Y-15441679D02*
X10287393Y-15451203D01*
X10287393Y-15451203D02*
X10268346Y-15451203D01*
X10268346Y-15451203D02*
X10249298Y-15441679D01*
X10249298Y-15441679D02*
X10239774Y-15432155D01*
X10239774Y-15432155D02*
X10230250Y-15413107D01*
X10230250Y-15413107D02*
X10220727Y-15375012D01*
X10220727Y-15375012D02*
X10220727Y-15327393D01*
X10220727Y-15327393D02*
X10230250Y-15289298D01*
X10230250Y-15289298D02*
X10239774Y-15270250D01*
X10239774Y-15270250D02*
X10249298Y-15260726D01*
X10249298Y-15260726D02*
X10268346Y-15251203D01*
X10573108Y-15451203D02*
X10573108Y-15251203D01*
X10658822Y-15451203D02*
X10658822Y-15346441D01*
X10658822Y-15346441D02*
X10649298Y-15327393D01*
X10649298Y-15327393D02*
X10630250Y-15317869D01*
X10630250Y-15317869D02*
X10601679Y-15317869D01*
X10601679Y-15317869D02*
X10582631Y-15327393D01*
X10582631Y-15327393D02*
X10573108Y-15336917D01*
X10782631Y-15451203D02*
X10763584Y-15441679D01*
X10763584Y-15441679D02*
X10754060Y-15432155D01*
X10754060Y-15432155D02*
X10744536Y-15413107D01*
X10744536Y-15413107D02*
X10744536Y-15355965D01*
X10744536Y-15355965D02*
X10754060Y-15336917D01*
X10754060Y-15336917D02*
X10763584Y-15327393D01*
X10763584Y-15327393D02*
X10782631Y-15317869D01*
X10782631Y-15317869D02*
X10811203Y-15317869D01*
X10811203Y-15317869D02*
X10830250Y-15327393D01*
X10830250Y-15327393D02*
X10839774Y-15336917D01*
X10839774Y-15336917D02*
X10849298Y-15355965D01*
X10849298Y-15355965D02*
X10849298Y-15413107D01*
X10849298Y-15413107D02*
X10839774Y-15432155D01*
X10839774Y-15432155D02*
X10830250Y-15441679D01*
X10830250Y-15441679D02*
X10811203Y-15451203D01*
X10811203Y-15451203D02*
X10782631Y-15451203D01*
X10963584Y-15451203D02*
X10944536Y-15441679D01*
X10944536Y-15441679D02*
X10935012Y-15422631D01*
X10935012Y-15422631D02*
X10935012Y-15251203D01*
X11115965Y-15441679D02*
X11096917Y-15451203D01*
X11096917Y-15451203D02*
X11058822Y-15451203D01*
X11058822Y-15451203D02*
X11039774Y-15441679D01*
X11039774Y-15441679D02*
X11030250Y-15422631D01*
X11030250Y-15422631D02*
X11030250Y-15346441D01*
X11030250Y-15346441D02*
X11039774Y-15327393D01*
X11039774Y-15327393D02*
X11058822Y-15317869D01*
X11058822Y-15317869D02*
X11096917Y-15317869D01*
X11096917Y-15317869D02*
X11115965Y-15327393D01*
X11115965Y-15327393D02*
X11125489Y-15346441D01*
X11125489Y-15346441D02*
X11125489Y-15365488D01*
X11125489Y-15365488D02*
X11030250Y-15384536D01*
X11201679Y-15441679D02*
X11220727Y-15451203D01*
X11220727Y-15451203D02*
X11258822Y-15451203D01*
X11258822Y-15451203D02*
X11277869Y-15441679D01*
X11277869Y-15441679D02*
X11287393Y-15422631D01*
X11287393Y-15422631D02*
X11287393Y-15413107D01*
X11287393Y-15413107D02*
X11277869Y-15394060D01*
X11277869Y-15394060D02*
X11258822Y-15384536D01*
X11258822Y-15384536D02*
X11230250Y-15384536D01*
X11230250Y-15384536D02*
X11211203Y-15375012D01*
X11211203Y-15375012D02*
X11201679Y-15355965D01*
X11201679Y-15355965D02*
X11201679Y-15346441D01*
X11201679Y-15346441D02*
X11211203Y-15327393D01*
X11211203Y-15327393D02*
X11230250Y-15317869D01*
X11230250Y-15317869D02*
X11258822Y-15317869D01*
X11258822Y-15317869D02*
X11277869Y-15327393D01*
X11525489Y-15375012D02*
X11677870Y-15375012D01*
X11601679Y-15451203D02*
X11601679Y-15298822D01*
X12011203Y-15317869D02*
X12011203Y-15451203D01*
X11963584Y-15241679D02*
X11915965Y-15384536D01*
X11915965Y-15384536D02*
X12039774Y-15384536D01*
X12258822Y-15441679D02*
X12277870Y-15451203D01*
X12277870Y-15451203D02*
X12315965Y-15451203D01*
X12315965Y-15451203D02*
X12335012Y-15441679D01*
X12335012Y-15441679D02*
X12344536Y-15422631D01*
X12344536Y-15422631D02*
X12344536Y-15413107D01*
X12344536Y-15413107D02*
X12335012Y-15394060D01*
X12335012Y-15394060D02*
X12315965Y-15384536D01*
X12315965Y-15384536D02*
X12287393Y-15384536D01*
X12287393Y-15384536D02*
X12268346Y-15375012D01*
X12268346Y-15375012D02*
X12258822Y-15355965D01*
X12258822Y-15355965D02*
X12258822Y-15346441D01*
X12258822Y-15346441D02*
X12268346Y-15327393D01*
X12268346Y-15327393D02*
X12287393Y-15317869D01*
X12287393Y-15317869D02*
X12315965Y-15317869D01*
X12315965Y-15317869D02*
X12335012Y-15327393D01*
X12458822Y-15451203D02*
X12439774Y-15441679D01*
X12439774Y-15441679D02*
X12430251Y-15422631D01*
X12430251Y-15422631D02*
X12430251Y-15251203D01*
X12563584Y-15451203D02*
X12544536Y-15441679D01*
X12544536Y-15441679D02*
X12535012Y-15432155D01*
X12535012Y-15432155D02*
X12525489Y-15413107D01*
X12525489Y-15413107D02*
X12525489Y-15355965D01*
X12525489Y-15355965D02*
X12535012Y-15336917D01*
X12535012Y-15336917D02*
X12544536Y-15327393D01*
X12544536Y-15327393D02*
X12563584Y-15317869D01*
X12563584Y-15317869D02*
X12592155Y-15317869D01*
X12592155Y-15317869D02*
X12611203Y-15327393D01*
X12611203Y-15327393D02*
X12620727Y-15336917D01*
X12620727Y-15336917D02*
X12630251Y-15355965D01*
X12630251Y-15355965D02*
X12630251Y-15413107D01*
X12630251Y-15413107D02*
X12620727Y-15432155D01*
X12620727Y-15432155D02*
X12611203Y-15441679D01*
X12611203Y-15441679D02*
X12592155Y-15451203D01*
X12592155Y-15451203D02*
X12563584Y-15451203D01*
X12687393Y-15317869D02*
X12763584Y-15317869D01*
X12715965Y-15251203D02*
X12715965Y-15422631D01*
X12715965Y-15422631D02*
X12725489Y-15441679D01*
X12725489Y-15441679D02*
X12744536Y-15451203D01*
X12744536Y-15451203D02*
X12763584Y-15451203D01*
X12820727Y-15441679D02*
X12839774Y-15451203D01*
X12839774Y-15451203D02*
X12877870Y-15451203D01*
X12877870Y-15451203D02*
X12896917Y-15441679D01*
X12896917Y-15441679D02*
X12906441Y-15422631D01*
X12906441Y-15422631D02*
X12906441Y-15413107D01*
X12906441Y-15413107D02*
X12896917Y-15394060D01*
X12896917Y-15394060D02*
X12877870Y-15384536D01*
X12877870Y-15384536D02*
X12849298Y-15384536D01*
X12849298Y-15384536D02*
X12830251Y-15375012D01*
X12830251Y-15375012D02*
X12820727Y-15355965D01*
X12820727Y-15355965D02*
X12820727Y-15346441D01*
X12820727Y-15346441D02*
X12830251Y-15327393D01*
X12830251Y-15327393D02*
X12849298Y-15317869D01*
X12849298Y-15317869D02*
X12877870Y-15317869D01*
X12877870Y-15317869D02*
X12896917Y-15327393D01*
X12973108Y-15527393D02*
X12982632Y-15517869D01*
X12982632Y-15517869D02*
X13001679Y-15489298D01*
X13001679Y-15489298D02*
X13011203Y-15470250D01*
X13011203Y-15470250D02*
X13020727Y-15441679D01*
X13020727Y-15441679D02*
X13030251Y-15394060D01*
X13030251Y-15394060D02*
X13030251Y-15355965D01*
X13030251Y-15355965D02*
X13020727Y-15308345D01*
X13020727Y-15308345D02*
X13011203Y-15279774D01*
X13011203Y-15279774D02*
X13001679Y-15260726D01*
X13001679Y-15260726D02*
X12982632Y-15232155D01*
X12982632Y-15232155D02*
X12973108Y-15222631D01*
D12*
X6567281Y-15652003D02*
X6567281Y-15595434D01*
X6510712Y-15595434D01*
X6510712Y-15652003D01*
X6567281Y-15652003D01*
D10*
X6877869Y-15515203D02*
X6896917Y-15515203D01*
X6896917Y-15515203D02*
X6915964Y-15524726D01*
X6915964Y-15524726D02*
X6925488Y-15534250D01*
X6925488Y-15534250D02*
X6935012Y-15553298D01*
X6935012Y-15553298D02*
X6944536Y-15591393D01*
X6944536Y-15591393D02*
X6944536Y-15639012D01*
X6944536Y-15639012D02*
X6935012Y-15677107D01*
X6935012Y-15677107D02*
X6925488Y-15696155D01*
X6925488Y-15696155D02*
X6915964Y-15705679D01*
X6915964Y-15705679D02*
X6896917Y-15715203D01*
X6896917Y-15715203D02*
X6877869Y-15715203D01*
X6877869Y-15715203D02*
X6858821Y-15705679D01*
X6858821Y-15705679D02*
X6849298Y-15696155D01*
X6849298Y-15696155D02*
X6839774Y-15677107D01*
X6839774Y-15677107D02*
X6830250Y-15639012D01*
X6830250Y-15639012D02*
X6830250Y-15591393D01*
X6830250Y-15591393D02*
X6839774Y-15553298D01*
X6839774Y-15553298D02*
X6849298Y-15534250D01*
X6849298Y-15534250D02*
X6858821Y-15524726D01*
X6858821Y-15524726D02*
X6877869Y-15515203D01*
X7030250Y-15696155D02*
X7039774Y-15705679D01*
X7039774Y-15705679D02*
X7030250Y-15715203D01*
X7030250Y-15715203D02*
X7020726Y-15705679D01*
X7020726Y-15705679D02*
X7030250Y-15696155D01*
X7030250Y-15696155D02*
X7030250Y-15715203D01*
X7154059Y-15600917D02*
X7135012Y-15591393D01*
X7135012Y-15591393D02*
X7125488Y-15581869D01*
X7125488Y-15581869D02*
X7115964Y-15562822D01*
X7115964Y-15562822D02*
X7115964Y-15553298D01*
X7115964Y-15553298D02*
X7125488Y-15534250D01*
X7125488Y-15534250D02*
X7135012Y-15524726D01*
X7135012Y-15524726D02*
X7154059Y-15515203D01*
X7154059Y-15515203D02*
X7192155Y-15515203D01*
X7192155Y-15515203D02*
X7211202Y-15524726D01*
X7211202Y-15524726D02*
X7220726Y-15534250D01*
X7220726Y-15534250D02*
X7230250Y-15553298D01*
X7230250Y-15553298D02*
X7230250Y-15562822D01*
X7230250Y-15562822D02*
X7220726Y-15581869D01*
X7220726Y-15581869D02*
X7211202Y-15591393D01*
X7211202Y-15591393D02*
X7192155Y-15600917D01*
X7192155Y-15600917D02*
X7154059Y-15600917D01*
X7154059Y-15600917D02*
X7135012Y-15610441D01*
X7135012Y-15610441D02*
X7125488Y-15619965D01*
X7125488Y-15619965D02*
X7115964Y-15639012D01*
X7115964Y-15639012D02*
X7115964Y-15677107D01*
X7115964Y-15677107D02*
X7125488Y-15696155D01*
X7125488Y-15696155D02*
X7135012Y-15705679D01*
X7135012Y-15705679D02*
X7154059Y-15715203D01*
X7154059Y-15715203D02*
X7192155Y-15715203D01*
X7192155Y-15715203D02*
X7211202Y-15705679D01*
X7211202Y-15705679D02*
X7220726Y-15696155D01*
X7220726Y-15696155D02*
X7230250Y-15677107D01*
X7230250Y-15677107D02*
X7230250Y-15639012D01*
X7230250Y-15639012D02*
X7220726Y-15619965D01*
X7220726Y-15619965D02*
X7211202Y-15610441D01*
X7211202Y-15610441D02*
X7192155Y-15600917D01*
X7354059Y-15515203D02*
X7373107Y-15515203D01*
X7373107Y-15515203D02*
X7392155Y-15524726D01*
X7392155Y-15524726D02*
X7401679Y-15534250D01*
X7401679Y-15534250D02*
X7411202Y-15553298D01*
X7411202Y-15553298D02*
X7420726Y-15591393D01*
X7420726Y-15591393D02*
X7420726Y-15639012D01*
X7420726Y-15639012D02*
X7411202Y-15677107D01*
X7411202Y-15677107D02*
X7401679Y-15696155D01*
X7401679Y-15696155D02*
X7392155Y-15705679D01*
X7392155Y-15705679D02*
X7373107Y-15715203D01*
X7373107Y-15715203D02*
X7354059Y-15715203D01*
X7354059Y-15715203D02*
X7335012Y-15705679D01*
X7335012Y-15705679D02*
X7325488Y-15696155D01*
X7325488Y-15696155D02*
X7315964Y-15677107D01*
X7315964Y-15677107D02*
X7306440Y-15639012D01*
X7306440Y-15639012D02*
X7306440Y-15591393D01*
X7306440Y-15591393D02*
X7315964Y-15553298D01*
X7315964Y-15553298D02*
X7325488Y-15534250D01*
X7325488Y-15534250D02*
X7335012Y-15524726D01*
X7335012Y-15524726D02*
X7354059Y-15515203D01*
X7544536Y-15515203D02*
X7563583Y-15515203D01*
X7563583Y-15515203D02*
X7582631Y-15524726D01*
X7582631Y-15524726D02*
X7592155Y-15534250D01*
X7592155Y-15534250D02*
X7601679Y-15553298D01*
X7601679Y-15553298D02*
X7611202Y-15591393D01*
X7611202Y-15591393D02*
X7611202Y-15639012D01*
X7611202Y-15639012D02*
X7601679Y-15677107D01*
X7601679Y-15677107D02*
X7592155Y-15696155D01*
X7592155Y-15696155D02*
X7582631Y-15705679D01*
X7582631Y-15705679D02*
X7563583Y-15715203D01*
X7563583Y-15715203D02*
X7544536Y-15715203D01*
X7544536Y-15715203D02*
X7525488Y-15705679D01*
X7525488Y-15705679D02*
X7515964Y-15696155D01*
X7515964Y-15696155D02*
X7506440Y-15677107D01*
X7506440Y-15677107D02*
X7496917Y-15639012D01*
X7496917Y-15639012D02*
X7496917Y-15591393D01*
X7496917Y-15591393D02*
X7506440Y-15553298D01*
X7506440Y-15553298D02*
X7515964Y-15534250D01*
X7515964Y-15534250D02*
X7525488Y-15524726D01*
X7525488Y-15524726D02*
X7544536Y-15515203D01*
X7696917Y-15715203D02*
X7696917Y-15581869D01*
X7696917Y-15600917D02*
X7706440Y-15591393D01*
X7706440Y-15591393D02*
X7725488Y-15581869D01*
X7725488Y-15581869D02*
X7754060Y-15581869D01*
X7754060Y-15581869D02*
X7773107Y-15591393D01*
X7773107Y-15591393D02*
X7782631Y-15610441D01*
X7782631Y-15610441D02*
X7782631Y-15715203D01*
X7782631Y-15610441D02*
X7792155Y-15591393D01*
X7792155Y-15591393D02*
X7811202Y-15581869D01*
X7811202Y-15581869D02*
X7839774Y-15581869D01*
X7839774Y-15581869D02*
X7858821Y-15591393D01*
X7858821Y-15591393D02*
X7868345Y-15610441D01*
X7868345Y-15610441D02*
X7868345Y-15715203D01*
X7963583Y-15715203D02*
X7963583Y-15581869D01*
X7963583Y-15600917D02*
X7973107Y-15591393D01*
X7973107Y-15591393D02*
X7992155Y-15581869D01*
X7992155Y-15581869D02*
X8020726Y-15581869D01*
X8020726Y-15581869D02*
X8039774Y-15591393D01*
X8039774Y-15591393D02*
X8049298Y-15610441D01*
X8049298Y-15610441D02*
X8049298Y-15715203D01*
X8049298Y-15610441D02*
X8058821Y-15591393D01*
X8058821Y-15591393D02*
X8077869Y-15581869D01*
X8077869Y-15581869D02*
X8106440Y-15581869D01*
X8106440Y-15581869D02*
X8125488Y-15591393D01*
X8125488Y-15591393D02*
X8135012Y-15610441D01*
X8135012Y-15610441D02*
X8135012Y-15715203D01*
X8525488Y-15505679D02*
X8354060Y-15762822D01*
X8782631Y-15515203D02*
X8801679Y-15515203D01*
X8801679Y-15515203D02*
X8820726Y-15524726D01*
X8820726Y-15524726D02*
X8830250Y-15534250D01*
X8830250Y-15534250D02*
X8839774Y-15553298D01*
X8839774Y-15553298D02*
X8849298Y-15591393D01*
X8849298Y-15591393D02*
X8849298Y-15639012D01*
X8849298Y-15639012D02*
X8839774Y-15677107D01*
X8839774Y-15677107D02*
X8830250Y-15696155D01*
X8830250Y-15696155D02*
X8820726Y-15705679D01*
X8820726Y-15705679D02*
X8801679Y-15715203D01*
X8801679Y-15715203D02*
X8782631Y-15715203D01*
X8782631Y-15715203D02*
X8763584Y-15705679D01*
X8763584Y-15705679D02*
X8754060Y-15696155D01*
X8754060Y-15696155D02*
X8744536Y-15677107D01*
X8744536Y-15677107D02*
X8735012Y-15639012D01*
X8735012Y-15639012D02*
X8735012Y-15591393D01*
X8735012Y-15591393D02*
X8744536Y-15553298D01*
X8744536Y-15553298D02*
X8754060Y-15534250D01*
X8754060Y-15534250D02*
X8763584Y-15524726D01*
X8763584Y-15524726D02*
X8782631Y-15515203D01*
X8935012Y-15696155D02*
X8944536Y-15705679D01*
X8944536Y-15705679D02*
X8935012Y-15715203D01*
X8935012Y-15715203D02*
X8925488Y-15705679D01*
X8925488Y-15705679D02*
X8935012Y-15696155D01*
X8935012Y-15696155D02*
X8935012Y-15715203D01*
X9068345Y-15515203D02*
X9087393Y-15515203D01*
X9087393Y-15515203D02*
X9106441Y-15524726D01*
X9106441Y-15524726D02*
X9115965Y-15534250D01*
X9115965Y-15534250D02*
X9125488Y-15553298D01*
X9125488Y-15553298D02*
X9135012Y-15591393D01*
X9135012Y-15591393D02*
X9135012Y-15639012D01*
X9135012Y-15639012D02*
X9125488Y-15677107D01*
X9125488Y-15677107D02*
X9115965Y-15696155D01*
X9115965Y-15696155D02*
X9106441Y-15705679D01*
X9106441Y-15705679D02*
X9087393Y-15715203D01*
X9087393Y-15715203D02*
X9068345Y-15715203D01*
X9068345Y-15715203D02*
X9049298Y-15705679D01*
X9049298Y-15705679D02*
X9039774Y-15696155D01*
X9039774Y-15696155D02*
X9030250Y-15677107D01*
X9030250Y-15677107D02*
X9020726Y-15639012D01*
X9020726Y-15639012D02*
X9020726Y-15591393D01*
X9020726Y-15591393D02*
X9030250Y-15553298D01*
X9030250Y-15553298D02*
X9039774Y-15534250D01*
X9039774Y-15534250D02*
X9049298Y-15524726D01*
X9049298Y-15524726D02*
X9068345Y-15515203D01*
X9201679Y-15515203D02*
X9325488Y-15515203D01*
X9325488Y-15515203D02*
X9258822Y-15591393D01*
X9258822Y-15591393D02*
X9287393Y-15591393D01*
X9287393Y-15591393D02*
X9306441Y-15600917D01*
X9306441Y-15600917D02*
X9315965Y-15610441D01*
X9315965Y-15610441D02*
X9325488Y-15629488D01*
X9325488Y-15629488D02*
X9325488Y-15677107D01*
X9325488Y-15677107D02*
X9315965Y-15696155D01*
X9315965Y-15696155D02*
X9306441Y-15705679D01*
X9306441Y-15705679D02*
X9287393Y-15715203D01*
X9287393Y-15715203D02*
X9230250Y-15715203D01*
X9230250Y-15715203D02*
X9211203Y-15705679D01*
X9211203Y-15705679D02*
X9201679Y-15696155D01*
X9515965Y-15715203D02*
X9401679Y-15715203D01*
X9458822Y-15715203D02*
X9458822Y-15515203D01*
X9458822Y-15515203D02*
X9439774Y-15543774D01*
X9439774Y-15543774D02*
X9420726Y-15562822D01*
X9420726Y-15562822D02*
X9401679Y-15572345D01*
X9696917Y-15515203D02*
X9601679Y-15515203D01*
X9601679Y-15515203D02*
X9592155Y-15610441D01*
X9592155Y-15610441D02*
X9601679Y-15600917D01*
X9601679Y-15600917D02*
X9620726Y-15591393D01*
X9620726Y-15591393D02*
X9668346Y-15591393D01*
X9668346Y-15591393D02*
X9687393Y-15600917D01*
X9687393Y-15600917D02*
X9696917Y-15610441D01*
X9696917Y-15610441D02*
X9706441Y-15629488D01*
X9706441Y-15629488D02*
X9706441Y-15677107D01*
X9706441Y-15677107D02*
X9696917Y-15696155D01*
X9696917Y-15696155D02*
X9687393Y-15705679D01*
X9687393Y-15705679D02*
X9668346Y-15715203D01*
X9668346Y-15715203D02*
X9620726Y-15715203D01*
X9620726Y-15715203D02*
X9601679Y-15705679D01*
X9601679Y-15705679D02*
X9592155Y-15696155D01*
X9782631Y-15515203D02*
X9782631Y-15553298D01*
X9858822Y-15515203D02*
X9858822Y-15553298D01*
X10154060Y-15791393D02*
X10144536Y-15781869D01*
X10144536Y-15781869D02*
X10125488Y-15753298D01*
X10125488Y-15753298D02*
X10115965Y-15734250D01*
X10115965Y-15734250D02*
X10106441Y-15705679D01*
X10106441Y-15705679D02*
X10096917Y-15658060D01*
X10096917Y-15658060D02*
X10096917Y-15619965D01*
X10096917Y-15619965D02*
X10106441Y-15572345D01*
X10106441Y-15572345D02*
X10115965Y-15543774D01*
X10115965Y-15543774D02*
X10125488Y-15524726D01*
X10125488Y-15524726D02*
X10144536Y-15496155D01*
X10144536Y-15496155D02*
X10154060Y-15486631D01*
X10220727Y-15534250D02*
X10230250Y-15524726D01*
X10230250Y-15524726D02*
X10249298Y-15515203D01*
X10249298Y-15515203D02*
X10296917Y-15515203D01*
X10296917Y-15515203D02*
X10315965Y-15524726D01*
X10315965Y-15524726D02*
X10325488Y-15534250D01*
X10325488Y-15534250D02*
X10335012Y-15553298D01*
X10335012Y-15553298D02*
X10335012Y-15572345D01*
X10335012Y-15572345D02*
X10325488Y-15600917D01*
X10325488Y-15600917D02*
X10211203Y-15715203D01*
X10211203Y-15715203D02*
X10335012Y-15715203D01*
X10573108Y-15715203D02*
X10573108Y-15515203D01*
X10658822Y-15715203D02*
X10658822Y-15610441D01*
X10658822Y-15610441D02*
X10649298Y-15591393D01*
X10649298Y-15591393D02*
X10630250Y-15581869D01*
X10630250Y-15581869D02*
X10601679Y-15581869D01*
X10601679Y-15581869D02*
X10582631Y-15591393D01*
X10582631Y-15591393D02*
X10573108Y-15600917D01*
X10782631Y-15715203D02*
X10763584Y-15705679D01*
X10763584Y-15705679D02*
X10754060Y-15696155D01*
X10754060Y-15696155D02*
X10744536Y-15677107D01*
X10744536Y-15677107D02*
X10744536Y-15619965D01*
X10744536Y-15619965D02*
X10754060Y-15600917D01*
X10754060Y-15600917D02*
X10763584Y-15591393D01*
X10763584Y-15591393D02*
X10782631Y-15581869D01*
X10782631Y-15581869D02*
X10811203Y-15581869D01*
X10811203Y-15581869D02*
X10830250Y-15591393D01*
X10830250Y-15591393D02*
X10839774Y-15600917D01*
X10839774Y-15600917D02*
X10849298Y-15619965D01*
X10849298Y-15619965D02*
X10849298Y-15677107D01*
X10849298Y-15677107D02*
X10839774Y-15696155D01*
X10839774Y-15696155D02*
X10830250Y-15705679D01*
X10830250Y-15705679D02*
X10811203Y-15715203D01*
X10811203Y-15715203D02*
X10782631Y-15715203D01*
X10963584Y-15715203D02*
X10944536Y-15705679D01*
X10944536Y-15705679D02*
X10935012Y-15686631D01*
X10935012Y-15686631D02*
X10935012Y-15515203D01*
X11115965Y-15705679D02*
X11096917Y-15715203D01*
X11096917Y-15715203D02*
X11058822Y-15715203D01*
X11058822Y-15715203D02*
X11039774Y-15705679D01*
X11039774Y-15705679D02*
X11030250Y-15686631D01*
X11030250Y-15686631D02*
X11030250Y-15610441D01*
X11030250Y-15610441D02*
X11039774Y-15591393D01*
X11039774Y-15591393D02*
X11058822Y-15581869D01*
X11058822Y-15581869D02*
X11096917Y-15581869D01*
X11096917Y-15581869D02*
X11115965Y-15591393D01*
X11115965Y-15591393D02*
X11125489Y-15610441D01*
X11125489Y-15610441D02*
X11125489Y-15629488D01*
X11125489Y-15629488D02*
X11030250Y-15648536D01*
X11201679Y-15705679D02*
X11220727Y-15715203D01*
X11220727Y-15715203D02*
X11258822Y-15715203D01*
X11258822Y-15715203D02*
X11277869Y-15705679D01*
X11277869Y-15705679D02*
X11287393Y-15686631D01*
X11287393Y-15686631D02*
X11287393Y-15677107D01*
X11287393Y-15677107D02*
X11277869Y-15658060D01*
X11277869Y-15658060D02*
X11258822Y-15648536D01*
X11258822Y-15648536D02*
X11230250Y-15648536D01*
X11230250Y-15648536D02*
X11211203Y-15639012D01*
X11211203Y-15639012D02*
X11201679Y-15619965D01*
X11201679Y-15619965D02*
X11201679Y-15610441D01*
X11201679Y-15610441D02*
X11211203Y-15591393D01*
X11211203Y-15591393D02*
X11230250Y-15581869D01*
X11230250Y-15581869D02*
X11258822Y-15581869D01*
X11258822Y-15581869D02*
X11277869Y-15591393D01*
X11525489Y-15639012D02*
X11677870Y-15639012D01*
X11601679Y-15715203D02*
X11601679Y-15562822D01*
X12011203Y-15581869D02*
X12011203Y-15715203D01*
X11963584Y-15505679D02*
X11915965Y-15648536D01*
X11915965Y-15648536D02*
X12039774Y-15648536D01*
X12258822Y-15705679D02*
X12277870Y-15715203D01*
X12277870Y-15715203D02*
X12315965Y-15715203D01*
X12315965Y-15715203D02*
X12335012Y-15705679D01*
X12335012Y-15705679D02*
X12344536Y-15686631D01*
X12344536Y-15686631D02*
X12344536Y-15677107D01*
X12344536Y-15677107D02*
X12335012Y-15658060D01*
X12335012Y-15658060D02*
X12315965Y-15648536D01*
X12315965Y-15648536D02*
X12287393Y-15648536D01*
X12287393Y-15648536D02*
X12268346Y-15639012D01*
X12268346Y-15639012D02*
X12258822Y-15619965D01*
X12258822Y-15619965D02*
X12258822Y-15610441D01*
X12258822Y-15610441D02*
X12268346Y-15591393D01*
X12268346Y-15591393D02*
X12287393Y-15581869D01*
X12287393Y-15581869D02*
X12315965Y-15581869D01*
X12315965Y-15581869D02*
X12335012Y-15591393D01*
X12458822Y-15715203D02*
X12439774Y-15705679D01*
X12439774Y-15705679D02*
X12430251Y-15686631D01*
X12430251Y-15686631D02*
X12430251Y-15515203D01*
X12563584Y-15715203D02*
X12544536Y-15705679D01*
X12544536Y-15705679D02*
X12535012Y-15696155D01*
X12535012Y-15696155D02*
X12525489Y-15677107D01*
X12525489Y-15677107D02*
X12525489Y-15619965D01*
X12525489Y-15619965D02*
X12535012Y-15600917D01*
X12535012Y-15600917D02*
X12544536Y-15591393D01*
X12544536Y-15591393D02*
X12563584Y-15581869D01*
X12563584Y-15581869D02*
X12592155Y-15581869D01*
X12592155Y-15581869D02*
X12611203Y-15591393D01*
X12611203Y-15591393D02*
X12620727Y-15600917D01*
X12620727Y-15600917D02*
X12630251Y-15619965D01*
X12630251Y-15619965D02*
X12630251Y-15677107D01*
X12630251Y-15677107D02*
X12620727Y-15696155D01*
X12620727Y-15696155D02*
X12611203Y-15705679D01*
X12611203Y-15705679D02*
X12592155Y-15715203D01*
X12592155Y-15715203D02*
X12563584Y-15715203D01*
X12687393Y-15581869D02*
X12763584Y-15581869D01*
X12715965Y-15515203D02*
X12715965Y-15686631D01*
X12715965Y-15686631D02*
X12725489Y-15705679D01*
X12725489Y-15705679D02*
X12744536Y-15715203D01*
X12744536Y-15715203D02*
X12763584Y-15715203D01*
X12820727Y-15705679D02*
X12839774Y-15715203D01*
X12839774Y-15715203D02*
X12877870Y-15715203D01*
X12877870Y-15715203D02*
X12896917Y-15705679D01*
X12896917Y-15705679D02*
X12906441Y-15686631D01*
X12906441Y-15686631D02*
X12906441Y-15677107D01*
X12906441Y-15677107D02*
X12896917Y-15658060D01*
X12896917Y-15658060D02*
X12877870Y-15648536D01*
X12877870Y-15648536D02*
X12849298Y-15648536D01*
X12849298Y-15648536D02*
X12830251Y-15639012D01*
X12830251Y-15639012D02*
X12820727Y-15619965D01*
X12820727Y-15619965D02*
X12820727Y-15610441D01*
X12820727Y-15610441D02*
X12830251Y-15591393D01*
X12830251Y-15591393D02*
X12849298Y-15581869D01*
X12849298Y-15581869D02*
X12877870Y-15581869D01*
X12877870Y-15581869D02*
X12896917Y-15591393D01*
X12973108Y-15791393D02*
X12982632Y-15781869D01*
X12982632Y-15781869D02*
X13001679Y-15753298D01*
X13001679Y-15753298D02*
X13011203Y-15734250D01*
X13011203Y-15734250D02*
X13020727Y-15705679D01*
X13020727Y-15705679D02*
X13030251Y-15658060D01*
X13030251Y-15658060D02*
X13030251Y-15619965D01*
X13030251Y-15619965D02*
X13020727Y-15572345D01*
X13020727Y-15572345D02*
X13011203Y-15543774D01*
X13011203Y-15543774D02*
X13001679Y-15524726D01*
X13001679Y-15524726D02*
X12982632Y-15496155D01*
X12982632Y-15496155D02*
X12973108Y-15486631D01*
D12*
X6528997Y-15937719D02*
X6578997Y-15887719D01*
X6528997Y-15837719D01*
X6478997Y-15887719D01*
X6528997Y-15937719D01*
D10*
X6944536Y-15979203D02*
X6830250Y-15979203D01*
X6887393Y-15979203D02*
X6887393Y-15779203D01*
X6887393Y-15779203D02*
X6868345Y-15807774D01*
X6868345Y-15807774D02*
X6849298Y-15826822D01*
X6849298Y-15826822D02*
X6830250Y-15836345D01*
X7030250Y-15960155D02*
X7039774Y-15969679D01*
X7039774Y-15969679D02*
X7030250Y-15979203D01*
X7030250Y-15979203D02*
X7020726Y-15969679D01*
X7020726Y-15969679D02*
X7030250Y-15960155D01*
X7030250Y-15960155D02*
X7030250Y-15979203D01*
X7163583Y-15779203D02*
X7182631Y-15779203D01*
X7182631Y-15779203D02*
X7201679Y-15788726D01*
X7201679Y-15788726D02*
X7211202Y-15798250D01*
X7211202Y-15798250D02*
X7220726Y-15817298D01*
X7220726Y-15817298D02*
X7230250Y-15855393D01*
X7230250Y-15855393D02*
X7230250Y-15903012D01*
X7230250Y-15903012D02*
X7220726Y-15941107D01*
X7220726Y-15941107D02*
X7211202Y-15960155D01*
X7211202Y-15960155D02*
X7201679Y-15969679D01*
X7201679Y-15969679D02*
X7182631Y-15979203D01*
X7182631Y-15979203D02*
X7163583Y-15979203D01*
X7163583Y-15979203D02*
X7144536Y-15969679D01*
X7144536Y-15969679D02*
X7135012Y-15960155D01*
X7135012Y-15960155D02*
X7125488Y-15941107D01*
X7125488Y-15941107D02*
X7115964Y-15903012D01*
X7115964Y-15903012D02*
X7115964Y-15855393D01*
X7115964Y-15855393D02*
X7125488Y-15817298D01*
X7125488Y-15817298D02*
X7135012Y-15798250D01*
X7135012Y-15798250D02*
X7144536Y-15788726D01*
X7144536Y-15788726D02*
X7163583Y-15779203D01*
X7354059Y-15779203D02*
X7373107Y-15779203D01*
X7373107Y-15779203D02*
X7392155Y-15788726D01*
X7392155Y-15788726D02*
X7401679Y-15798250D01*
X7401679Y-15798250D02*
X7411202Y-15817298D01*
X7411202Y-15817298D02*
X7420726Y-15855393D01*
X7420726Y-15855393D02*
X7420726Y-15903012D01*
X7420726Y-15903012D02*
X7411202Y-15941107D01*
X7411202Y-15941107D02*
X7401679Y-15960155D01*
X7401679Y-15960155D02*
X7392155Y-15969679D01*
X7392155Y-15969679D02*
X7373107Y-15979203D01*
X7373107Y-15979203D02*
X7354059Y-15979203D01*
X7354059Y-15979203D02*
X7335012Y-15969679D01*
X7335012Y-15969679D02*
X7325488Y-15960155D01*
X7325488Y-15960155D02*
X7315964Y-15941107D01*
X7315964Y-15941107D02*
X7306440Y-15903012D01*
X7306440Y-15903012D02*
X7306440Y-15855393D01*
X7306440Y-15855393D02*
X7315964Y-15817298D01*
X7315964Y-15817298D02*
X7325488Y-15798250D01*
X7325488Y-15798250D02*
X7335012Y-15788726D01*
X7335012Y-15788726D02*
X7354059Y-15779203D01*
X7544536Y-15779203D02*
X7563583Y-15779203D01*
X7563583Y-15779203D02*
X7582631Y-15788726D01*
X7582631Y-15788726D02*
X7592155Y-15798250D01*
X7592155Y-15798250D02*
X7601679Y-15817298D01*
X7601679Y-15817298D02*
X7611202Y-15855393D01*
X7611202Y-15855393D02*
X7611202Y-15903012D01*
X7611202Y-15903012D02*
X7601679Y-15941107D01*
X7601679Y-15941107D02*
X7592155Y-15960155D01*
X7592155Y-15960155D02*
X7582631Y-15969679D01*
X7582631Y-15969679D02*
X7563583Y-15979203D01*
X7563583Y-15979203D02*
X7544536Y-15979203D01*
X7544536Y-15979203D02*
X7525488Y-15969679D01*
X7525488Y-15969679D02*
X7515964Y-15960155D01*
X7515964Y-15960155D02*
X7506440Y-15941107D01*
X7506440Y-15941107D02*
X7496917Y-15903012D01*
X7496917Y-15903012D02*
X7496917Y-15855393D01*
X7496917Y-15855393D02*
X7506440Y-15817298D01*
X7506440Y-15817298D02*
X7515964Y-15798250D01*
X7515964Y-15798250D02*
X7525488Y-15788726D01*
X7525488Y-15788726D02*
X7544536Y-15779203D01*
X7696917Y-15979203D02*
X7696917Y-15845869D01*
X7696917Y-15864917D02*
X7706440Y-15855393D01*
X7706440Y-15855393D02*
X7725488Y-15845869D01*
X7725488Y-15845869D02*
X7754060Y-15845869D01*
X7754060Y-15845869D02*
X7773107Y-15855393D01*
X7773107Y-15855393D02*
X7782631Y-15874441D01*
X7782631Y-15874441D02*
X7782631Y-15979203D01*
X7782631Y-15874441D02*
X7792155Y-15855393D01*
X7792155Y-15855393D02*
X7811202Y-15845869D01*
X7811202Y-15845869D02*
X7839774Y-15845869D01*
X7839774Y-15845869D02*
X7858821Y-15855393D01*
X7858821Y-15855393D02*
X7868345Y-15874441D01*
X7868345Y-15874441D02*
X7868345Y-15979203D01*
X7963583Y-15979203D02*
X7963583Y-15845869D01*
X7963583Y-15864917D02*
X7973107Y-15855393D01*
X7973107Y-15855393D02*
X7992155Y-15845869D01*
X7992155Y-15845869D02*
X8020726Y-15845869D01*
X8020726Y-15845869D02*
X8039774Y-15855393D01*
X8039774Y-15855393D02*
X8049298Y-15874441D01*
X8049298Y-15874441D02*
X8049298Y-15979203D01*
X8049298Y-15874441D02*
X8058821Y-15855393D01*
X8058821Y-15855393D02*
X8077869Y-15845869D01*
X8077869Y-15845869D02*
X8106440Y-15845869D01*
X8106440Y-15845869D02*
X8125488Y-15855393D01*
X8125488Y-15855393D02*
X8135012Y-15874441D01*
X8135012Y-15874441D02*
X8135012Y-15979203D01*
X8525488Y-15769679D02*
X8354060Y-16026822D01*
X8782631Y-15779203D02*
X8801679Y-15779203D01*
X8801679Y-15779203D02*
X8820726Y-15788726D01*
X8820726Y-15788726D02*
X8830250Y-15798250D01*
X8830250Y-15798250D02*
X8839774Y-15817298D01*
X8839774Y-15817298D02*
X8849298Y-15855393D01*
X8849298Y-15855393D02*
X8849298Y-15903012D01*
X8849298Y-15903012D02*
X8839774Y-15941107D01*
X8839774Y-15941107D02*
X8830250Y-15960155D01*
X8830250Y-15960155D02*
X8820726Y-15969679D01*
X8820726Y-15969679D02*
X8801679Y-15979203D01*
X8801679Y-15979203D02*
X8782631Y-15979203D01*
X8782631Y-15979203D02*
X8763584Y-15969679D01*
X8763584Y-15969679D02*
X8754060Y-15960155D01*
X8754060Y-15960155D02*
X8744536Y-15941107D01*
X8744536Y-15941107D02*
X8735012Y-15903012D01*
X8735012Y-15903012D02*
X8735012Y-15855393D01*
X8735012Y-15855393D02*
X8744536Y-15817298D01*
X8744536Y-15817298D02*
X8754060Y-15798250D01*
X8754060Y-15798250D02*
X8763584Y-15788726D01*
X8763584Y-15788726D02*
X8782631Y-15779203D01*
X8935012Y-15960155D02*
X8944536Y-15969679D01*
X8944536Y-15969679D02*
X8935012Y-15979203D01*
X8935012Y-15979203D02*
X8925488Y-15969679D01*
X8925488Y-15969679D02*
X8935012Y-15960155D01*
X8935012Y-15960155D02*
X8935012Y-15979203D01*
X9068345Y-15779203D02*
X9087393Y-15779203D01*
X9087393Y-15779203D02*
X9106441Y-15788726D01*
X9106441Y-15788726D02*
X9115965Y-15798250D01*
X9115965Y-15798250D02*
X9125488Y-15817298D01*
X9125488Y-15817298D02*
X9135012Y-15855393D01*
X9135012Y-15855393D02*
X9135012Y-15903012D01*
X9135012Y-15903012D02*
X9125488Y-15941107D01*
X9125488Y-15941107D02*
X9115965Y-15960155D01*
X9115965Y-15960155D02*
X9106441Y-15969679D01*
X9106441Y-15969679D02*
X9087393Y-15979203D01*
X9087393Y-15979203D02*
X9068345Y-15979203D01*
X9068345Y-15979203D02*
X9049298Y-15969679D01*
X9049298Y-15969679D02*
X9039774Y-15960155D01*
X9039774Y-15960155D02*
X9030250Y-15941107D01*
X9030250Y-15941107D02*
X9020726Y-15903012D01*
X9020726Y-15903012D02*
X9020726Y-15855393D01*
X9020726Y-15855393D02*
X9030250Y-15817298D01*
X9030250Y-15817298D02*
X9039774Y-15798250D01*
X9039774Y-15798250D02*
X9049298Y-15788726D01*
X9049298Y-15788726D02*
X9068345Y-15779203D01*
X9201679Y-15779203D02*
X9325488Y-15779203D01*
X9325488Y-15779203D02*
X9258822Y-15855393D01*
X9258822Y-15855393D02*
X9287393Y-15855393D01*
X9287393Y-15855393D02*
X9306441Y-15864917D01*
X9306441Y-15864917D02*
X9315965Y-15874441D01*
X9315965Y-15874441D02*
X9325488Y-15893488D01*
X9325488Y-15893488D02*
X9325488Y-15941107D01*
X9325488Y-15941107D02*
X9315965Y-15960155D01*
X9315965Y-15960155D02*
X9306441Y-15969679D01*
X9306441Y-15969679D02*
X9287393Y-15979203D01*
X9287393Y-15979203D02*
X9230250Y-15979203D01*
X9230250Y-15979203D02*
X9211203Y-15969679D01*
X9211203Y-15969679D02*
X9201679Y-15960155D01*
X9420726Y-15979203D02*
X9458822Y-15979203D01*
X9458822Y-15979203D02*
X9477869Y-15969679D01*
X9477869Y-15969679D02*
X9487393Y-15960155D01*
X9487393Y-15960155D02*
X9506441Y-15931584D01*
X9506441Y-15931584D02*
X9515965Y-15893488D01*
X9515965Y-15893488D02*
X9515965Y-15817298D01*
X9515965Y-15817298D02*
X9506441Y-15798250D01*
X9506441Y-15798250D02*
X9496917Y-15788726D01*
X9496917Y-15788726D02*
X9477869Y-15779203D01*
X9477869Y-15779203D02*
X9439774Y-15779203D01*
X9439774Y-15779203D02*
X9420726Y-15788726D01*
X9420726Y-15788726D02*
X9411203Y-15798250D01*
X9411203Y-15798250D02*
X9401679Y-15817298D01*
X9401679Y-15817298D02*
X9401679Y-15864917D01*
X9401679Y-15864917D02*
X9411203Y-15883965D01*
X9411203Y-15883965D02*
X9420726Y-15893488D01*
X9420726Y-15893488D02*
X9439774Y-15903012D01*
X9439774Y-15903012D02*
X9477869Y-15903012D01*
X9477869Y-15903012D02*
X9496917Y-15893488D01*
X9496917Y-15893488D02*
X9506441Y-15883965D01*
X9506441Y-15883965D02*
X9515965Y-15864917D01*
X9687393Y-15845869D02*
X9687393Y-15979203D01*
X9639774Y-15769679D02*
X9592155Y-15912536D01*
X9592155Y-15912536D02*
X9715965Y-15912536D01*
X9782631Y-15779203D02*
X9782631Y-15817298D01*
X9858822Y-15779203D02*
X9858822Y-15817298D01*
X10154060Y-16055393D02*
X10144536Y-16045869D01*
X10144536Y-16045869D02*
X10125488Y-16017298D01*
X10125488Y-16017298D02*
X10115965Y-15998250D01*
X10115965Y-15998250D02*
X10106441Y-15969679D01*
X10106441Y-15969679D02*
X10096917Y-15922060D01*
X10096917Y-15922060D02*
X10096917Y-15883965D01*
X10096917Y-15883965D02*
X10106441Y-15836345D01*
X10106441Y-15836345D02*
X10115965Y-15807774D01*
X10115965Y-15807774D02*
X10125488Y-15788726D01*
X10125488Y-15788726D02*
X10144536Y-15760155D01*
X10144536Y-15760155D02*
X10154060Y-15750631D01*
X10220727Y-15798250D02*
X10230250Y-15788726D01*
X10230250Y-15788726D02*
X10249298Y-15779203D01*
X10249298Y-15779203D02*
X10296917Y-15779203D01*
X10296917Y-15779203D02*
X10315965Y-15788726D01*
X10315965Y-15788726D02*
X10325488Y-15798250D01*
X10325488Y-15798250D02*
X10335012Y-15817298D01*
X10335012Y-15817298D02*
X10335012Y-15836345D01*
X10335012Y-15836345D02*
X10325488Y-15864917D01*
X10325488Y-15864917D02*
X10211203Y-15979203D01*
X10211203Y-15979203D02*
X10335012Y-15979203D01*
X10401679Y-15779203D02*
X10535012Y-15779203D01*
X10535012Y-15779203D02*
X10449298Y-15979203D01*
X10763584Y-15979203D02*
X10763584Y-15779203D01*
X10849298Y-15979203D02*
X10849298Y-15874441D01*
X10849298Y-15874441D02*
X10839774Y-15855393D01*
X10839774Y-15855393D02*
X10820727Y-15845869D01*
X10820727Y-15845869D02*
X10792155Y-15845869D01*
X10792155Y-15845869D02*
X10773108Y-15855393D01*
X10773108Y-15855393D02*
X10763584Y-15864917D01*
X10973108Y-15979203D02*
X10954060Y-15969679D01*
X10954060Y-15969679D02*
X10944536Y-15960155D01*
X10944536Y-15960155D02*
X10935012Y-15941107D01*
X10935012Y-15941107D02*
X10935012Y-15883965D01*
X10935012Y-15883965D02*
X10944536Y-15864917D01*
X10944536Y-15864917D02*
X10954060Y-15855393D01*
X10954060Y-15855393D02*
X10973108Y-15845869D01*
X10973108Y-15845869D02*
X11001679Y-15845869D01*
X11001679Y-15845869D02*
X11020727Y-15855393D01*
X11020727Y-15855393D02*
X11030250Y-15864917D01*
X11030250Y-15864917D02*
X11039774Y-15883965D01*
X11039774Y-15883965D02*
X11039774Y-15941107D01*
X11039774Y-15941107D02*
X11030250Y-15960155D01*
X11030250Y-15960155D02*
X11020727Y-15969679D01*
X11020727Y-15969679D02*
X11001679Y-15979203D01*
X11001679Y-15979203D02*
X10973108Y-15979203D01*
X11154060Y-15979203D02*
X11135012Y-15969679D01*
X11135012Y-15969679D02*
X11125489Y-15950631D01*
X11125489Y-15950631D02*
X11125489Y-15779203D01*
X11306441Y-15969679D02*
X11287393Y-15979203D01*
X11287393Y-15979203D02*
X11249298Y-15979203D01*
X11249298Y-15979203D02*
X11230250Y-15969679D01*
X11230250Y-15969679D02*
X11220727Y-15950631D01*
X11220727Y-15950631D02*
X11220727Y-15874441D01*
X11220727Y-15874441D02*
X11230250Y-15855393D01*
X11230250Y-15855393D02*
X11249298Y-15845869D01*
X11249298Y-15845869D02*
X11287393Y-15845869D01*
X11287393Y-15845869D02*
X11306441Y-15855393D01*
X11306441Y-15855393D02*
X11315965Y-15874441D01*
X11315965Y-15874441D02*
X11315965Y-15893488D01*
X11315965Y-15893488D02*
X11220727Y-15912536D01*
X11392155Y-15969679D02*
X11411203Y-15979203D01*
X11411203Y-15979203D02*
X11449298Y-15979203D01*
X11449298Y-15979203D02*
X11468346Y-15969679D01*
X11468346Y-15969679D02*
X11477869Y-15950631D01*
X11477869Y-15950631D02*
X11477869Y-15941107D01*
X11477869Y-15941107D02*
X11468346Y-15922060D01*
X11468346Y-15922060D02*
X11449298Y-15912536D01*
X11449298Y-15912536D02*
X11420727Y-15912536D01*
X11420727Y-15912536D02*
X11401679Y-15903012D01*
X11401679Y-15903012D02*
X11392155Y-15883965D01*
X11392155Y-15883965D02*
X11392155Y-15874441D01*
X11392155Y-15874441D02*
X11401679Y-15855393D01*
X11401679Y-15855393D02*
X11420727Y-15845869D01*
X11420727Y-15845869D02*
X11449298Y-15845869D01*
X11449298Y-15845869D02*
X11468346Y-15855393D01*
X11544536Y-16055393D02*
X11554060Y-16045869D01*
X11554060Y-16045869D02*
X11573108Y-16017298D01*
X11573108Y-16017298D02*
X11582631Y-15998250D01*
X11582631Y-15998250D02*
X11592155Y-15969679D01*
X11592155Y-15969679D02*
X11601679Y-15922060D01*
X11601679Y-15922060D02*
X11601679Y-15883965D01*
X11601679Y-15883965D02*
X11592155Y-15836345D01*
X11592155Y-15836345D02*
X11582631Y-15807774D01*
X11582631Y-15807774D02*
X11573108Y-15788726D01*
X11573108Y-15788726D02*
X11554060Y-15760155D01*
X11554060Y-15760155D02*
X11544536Y-15750631D01*
D13*
X6476997Y-16100719D02*
X6578997Y-16202719D01*
X6578997Y-16100719D02*
X6476997Y-16202719D01*
X6578997Y-16151719D02*
G75*
G02*
X6476997Y-16151719I-51000J0D01*
G01*
X6476997Y-16151719D02*
G75*
G02*
X6578997Y-16151719I51000J0D01*
G01*
D10*
X6944536Y-16243203D02*
X6830250Y-16243203D01*
X6887393Y-16243203D02*
X6887393Y-16043203D01*
X6887393Y-16043203D02*
X6868345Y-16071774D01*
X6868345Y-16071774D02*
X6849298Y-16090822D01*
X6849298Y-16090822D02*
X6830250Y-16100345D01*
X7030250Y-16224155D02*
X7039774Y-16233679D01*
X7039774Y-16233679D02*
X7030250Y-16243203D01*
X7030250Y-16243203D02*
X7020726Y-16233679D01*
X7020726Y-16233679D02*
X7030250Y-16224155D01*
X7030250Y-16224155D02*
X7030250Y-16243203D01*
X7163583Y-16043203D02*
X7182631Y-16043203D01*
X7182631Y-16043203D02*
X7201679Y-16052726D01*
X7201679Y-16052726D02*
X7211202Y-16062250D01*
X7211202Y-16062250D02*
X7220726Y-16081298D01*
X7220726Y-16081298D02*
X7230250Y-16119393D01*
X7230250Y-16119393D02*
X7230250Y-16167012D01*
X7230250Y-16167012D02*
X7220726Y-16205107D01*
X7220726Y-16205107D02*
X7211202Y-16224155D01*
X7211202Y-16224155D02*
X7201679Y-16233679D01*
X7201679Y-16233679D02*
X7182631Y-16243203D01*
X7182631Y-16243203D02*
X7163583Y-16243203D01*
X7163583Y-16243203D02*
X7144536Y-16233679D01*
X7144536Y-16233679D02*
X7135012Y-16224155D01*
X7135012Y-16224155D02*
X7125488Y-16205107D01*
X7125488Y-16205107D02*
X7115964Y-16167012D01*
X7115964Y-16167012D02*
X7115964Y-16119393D01*
X7115964Y-16119393D02*
X7125488Y-16081298D01*
X7125488Y-16081298D02*
X7135012Y-16062250D01*
X7135012Y-16062250D02*
X7144536Y-16052726D01*
X7144536Y-16052726D02*
X7163583Y-16043203D01*
X7306440Y-16062250D02*
X7315964Y-16052726D01*
X7315964Y-16052726D02*
X7335012Y-16043203D01*
X7335012Y-16043203D02*
X7382631Y-16043203D01*
X7382631Y-16043203D02*
X7401679Y-16052726D01*
X7401679Y-16052726D02*
X7411202Y-16062250D01*
X7411202Y-16062250D02*
X7420726Y-16081298D01*
X7420726Y-16081298D02*
X7420726Y-16100345D01*
X7420726Y-16100345D02*
X7411202Y-16128917D01*
X7411202Y-16128917D02*
X7296917Y-16243203D01*
X7296917Y-16243203D02*
X7420726Y-16243203D01*
X7544536Y-16043203D02*
X7563583Y-16043203D01*
X7563583Y-16043203D02*
X7582631Y-16052726D01*
X7582631Y-16052726D02*
X7592155Y-16062250D01*
X7592155Y-16062250D02*
X7601679Y-16081298D01*
X7601679Y-16081298D02*
X7611202Y-16119393D01*
X7611202Y-16119393D02*
X7611202Y-16167012D01*
X7611202Y-16167012D02*
X7601679Y-16205107D01*
X7601679Y-16205107D02*
X7592155Y-16224155D01*
X7592155Y-16224155D02*
X7582631Y-16233679D01*
X7582631Y-16233679D02*
X7563583Y-16243203D01*
X7563583Y-16243203D02*
X7544536Y-16243203D01*
X7544536Y-16243203D02*
X7525488Y-16233679D01*
X7525488Y-16233679D02*
X7515964Y-16224155D01*
X7515964Y-16224155D02*
X7506440Y-16205107D01*
X7506440Y-16205107D02*
X7496917Y-16167012D01*
X7496917Y-16167012D02*
X7496917Y-16119393D01*
X7496917Y-16119393D02*
X7506440Y-16081298D01*
X7506440Y-16081298D02*
X7515964Y-16062250D01*
X7515964Y-16062250D02*
X7525488Y-16052726D01*
X7525488Y-16052726D02*
X7544536Y-16043203D01*
X7696917Y-16243203D02*
X7696917Y-16109869D01*
X7696917Y-16128917D02*
X7706440Y-16119393D01*
X7706440Y-16119393D02*
X7725488Y-16109869D01*
X7725488Y-16109869D02*
X7754060Y-16109869D01*
X7754060Y-16109869D02*
X7773107Y-16119393D01*
X7773107Y-16119393D02*
X7782631Y-16138441D01*
X7782631Y-16138441D02*
X7782631Y-16243203D01*
X7782631Y-16138441D02*
X7792155Y-16119393D01*
X7792155Y-16119393D02*
X7811202Y-16109869D01*
X7811202Y-16109869D02*
X7839774Y-16109869D01*
X7839774Y-16109869D02*
X7858821Y-16119393D01*
X7858821Y-16119393D02*
X7868345Y-16138441D01*
X7868345Y-16138441D02*
X7868345Y-16243203D01*
X7963583Y-16243203D02*
X7963583Y-16109869D01*
X7963583Y-16128917D02*
X7973107Y-16119393D01*
X7973107Y-16119393D02*
X7992155Y-16109869D01*
X7992155Y-16109869D02*
X8020726Y-16109869D01*
X8020726Y-16109869D02*
X8039774Y-16119393D01*
X8039774Y-16119393D02*
X8049298Y-16138441D01*
X8049298Y-16138441D02*
X8049298Y-16243203D01*
X8049298Y-16138441D02*
X8058821Y-16119393D01*
X8058821Y-16119393D02*
X8077869Y-16109869D01*
X8077869Y-16109869D02*
X8106440Y-16109869D01*
X8106440Y-16109869D02*
X8125488Y-16119393D01*
X8125488Y-16119393D02*
X8135012Y-16138441D01*
X8135012Y-16138441D02*
X8135012Y-16243203D01*
X8525488Y-16033679D02*
X8354060Y-16290822D01*
X8782631Y-16043203D02*
X8801679Y-16043203D01*
X8801679Y-16043203D02*
X8820726Y-16052726D01*
X8820726Y-16052726D02*
X8830250Y-16062250D01*
X8830250Y-16062250D02*
X8839774Y-16081298D01*
X8839774Y-16081298D02*
X8849298Y-16119393D01*
X8849298Y-16119393D02*
X8849298Y-16167012D01*
X8849298Y-16167012D02*
X8839774Y-16205107D01*
X8839774Y-16205107D02*
X8830250Y-16224155D01*
X8830250Y-16224155D02*
X8820726Y-16233679D01*
X8820726Y-16233679D02*
X8801679Y-16243203D01*
X8801679Y-16243203D02*
X8782631Y-16243203D01*
X8782631Y-16243203D02*
X8763584Y-16233679D01*
X8763584Y-16233679D02*
X8754060Y-16224155D01*
X8754060Y-16224155D02*
X8744536Y-16205107D01*
X8744536Y-16205107D02*
X8735012Y-16167012D01*
X8735012Y-16167012D02*
X8735012Y-16119393D01*
X8735012Y-16119393D02*
X8744536Y-16081298D01*
X8744536Y-16081298D02*
X8754060Y-16062250D01*
X8754060Y-16062250D02*
X8763584Y-16052726D01*
X8763584Y-16052726D02*
X8782631Y-16043203D01*
X8935012Y-16224155D02*
X8944536Y-16233679D01*
X8944536Y-16233679D02*
X8935012Y-16243203D01*
X8935012Y-16243203D02*
X8925488Y-16233679D01*
X8925488Y-16233679D02*
X8935012Y-16224155D01*
X8935012Y-16224155D02*
X8935012Y-16243203D01*
X9068345Y-16043203D02*
X9087393Y-16043203D01*
X9087393Y-16043203D02*
X9106441Y-16052726D01*
X9106441Y-16052726D02*
X9115965Y-16062250D01*
X9115965Y-16062250D02*
X9125488Y-16081298D01*
X9125488Y-16081298D02*
X9135012Y-16119393D01*
X9135012Y-16119393D02*
X9135012Y-16167012D01*
X9135012Y-16167012D02*
X9125488Y-16205107D01*
X9125488Y-16205107D02*
X9115965Y-16224155D01*
X9115965Y-16224155D02*
X9106441Y-16233679D01*
X9106441Y-16233679D02*
X9087393Y-16243203D01*
X9087393Y-16243203D02*
X9068345Y-16243203D01*
X9068345Y-16243203D02*
X9049298Y-16233679D01*
X9049298Y-16233679D02*
X9039774Y-16224155D01*
X9039774Y-16224155D02*
X9030250Y-16205107D01*
X9030250Y-16205107D02*
X9020726Y-16167012D01*
X9020726Y-16167012D02*
X9020726Y-16119393D01*
X9020726Y-16119393D02*
X9030250Y-16081298D01*
X9030250Y-16081298D02*
X9039774Y-16062250D01*
X9039774Y-16062250D02*
X9049298Y-16052726D01*
X9049298Y-16052726D02*
X9068345Y-16043203D01*
X9306441Y-16109869D02*
X9306441Y-16243203D01*
X9258822Y-16033679D02*
X9211203Y-16176536D01*
X9211203Y-16176536D02*
X9335012Y-16176536D01*
X9449298Y-16043203D02*
X9468346Y-16043203D01*
X9468346Y-16043203D02*
X9487393Y-16052726D01*
X9487393Y-16052726D02*
X9496917Y-16062250D01*
X9496917Y-16062250D02*
X9506441Y-16081298D01*
X9506441Y-16081298D02*
X9515965Y-16119393D01*
X9515965Y-16119393D02*
X9515965Y-16167012D01*
X9515965Y-16167012D02*
X9506441Y-16205107D01*
X9506441Y-16205107D02*
X9496917Y-16224155D01*
X9496917Y-16224155D02*
X9487393Y-16233679D01*
X9487393Y-16233679D02*
X9468346Y-16243203D01*
X9468346Y-16243203D02*
X9449298Y-16243203D01*
X9449298Y-16243203D02*
X9430250Y-16233679D01*
X9430250Y-16233679D02*
X9420726Y-16224155D01*
X9420726Y-16224155D02*
X9411203Y-16205107D01*
X9411203Y-16205107D02*
X9401679Y-16167012D01*
X9401679Y-16167012D02*
X9401679Y-16119393D01*
X9401679Y-16119393D02*
X9411203Y-16081298D01*
X9411203Y-16081298D02*
X9420726Y-16062250D01*
X9420726Y-16062250D02*
X9430250Y-16052726D01*
X9430250Y-16052726D02*
X9449298Y-16043203D01*
X9592155Y-16062250D02*
X9601679Y-16052726D01*
X9601679Y-16052726D02*
X9620726Y-16043203D01*
X9620726Y-16043203D02*
X9668346Y-16043203D01*
X9668346Y-16043203D02*
X9687393Y-16052726D01*
X9687393Y-16052726D02*
X9696917Y-16062250D01*
X9696917Y-16062250D02*
X9706441Y-16081298D01*
X9706441Y-16081298D02*
X9706441Y-16100345D01*
X9706441Y-16100345D02*
X9696917Y-16128917D01*
X9696917Y-16128917D02*
X9582631Y-16243203D01*
X9582631Y-16243203D02*
X9706441Y-16243203D01*
X9782631Y-16043203D02*
X9782631Y-16081298D01*
X9858822Y-16043203D02*
X9858822Y-16081298D01*
X10154060Y-16319393D02*
X10144536Y-16309869D01*
X10144536Y-16309869D02*
X10125488Y-16281298D01*
X10125488Y-16281298D02*
X10115965Y-16262250D01*
X10115965Y-16262250D02*
X10106441Y-16233679D01*
X10106441Y-16233679D02*
X10096917Y-16186060D01*
X10096917Y-16186060D02*
X10096917Y-16147965D01*
X10096917Y-16147965D02*
X10106441Y-16100345D01*
X10106441Y-16100345D02*
X10115965Y-16071774D01*
X10115965Y-16071774D02*
X10125488Y-16052726D01*
X10125488Y-16052726D02*
X10144536Y-16024155D01*
X10144536Y-16024155D02*
X10154060Y-16014631D01*
X10220727Y-16062250D02*
X10230250Y-16052726D01*
X10230250Y-16052726D02*
X10249298Y-16043203D01*
X10249298Y-16043203D02*
X10296917Y-16043203D01*
X10296917Y-16043203D02*
X10315965Y-16052726D01*
X10315965Y-16052726D02*
X10325488Y-16062250D01*
X10325488Y-16062250D02*
X10335012Y-16081298D01*
X10335012Y-16081298D02*
X10335012Y-16100345D01*
X10335012Y-16100345D02*
X10325488Y-16128917D01*
X10325488Y-16128917D02*
X10211203Y-16243203D01*
X10211203Y-16243203D02*
X10335012Y-16243203D01*
X10573108Y-16243203D02*
X10573108Y-16043203D01*
X10658822Y-16243203D02*
X10658822Y-16138441D01*
X10658822Y-16138441D02*
X10649298Y-16119393D01*
X10649298Y-16119393D02*
X10630250Y-16109869D01*
X10630250Y-16109869D02*
X10601679Y-16109869D01*
X10601679Y-16109869D02*
X10582631Y-16119393D01*
X10582631Y-16119393D02*
X10573108Y-16128917D01*
X10782631Y-16243203D02*
X10763584Y-16233679D01*
X10763584Y-16233679D02*
X10754060Y-16224155D01*
X10754060Y-16224155D02*
X10744536Y-16205107D01*
X10744536Y-16205107D02*
X10744536Y-16147965D01*
X10744536Y-16147965D02*
X10754060Y-16128917D01*
X10754060Y-16128917D02*
X10763584Y-16119393D01*
X10763584Y-16119393D02*
X10782631Y-16109869D01*
X10782631Y-16109869D02*
X10811203Y-16109869D01*
X10811203Y-16109869D02*
X10830250Y-16119393D01*
X10830250Y-16119393D02*
X10839774Y-16128917D01*
X10839774Y-16128917D02*
X10849298Y-16147965D01*
X10849298Y-16147965D02*
X10849298Y-16205107D01*
X10849298Y-16205107D02*
X10839774Y-16224155D01*
X10839774Y-16224155D02*
X10830250Y-16233679D01*
X10830250Y-16233679D02*
X10811203Y-16243203D01*
X10811203Y-16243203D02*
X10782631Y-16243203D01*
X10963584Y-16243203D02*
X10944536Y-16233679D01*
X10944536Y-16233679D02*
X10935012Y-16214631D01*
X10935012Y-16214631D02*
X10935012Y-16043203D01*
X11115965Y-16233679D02*
X11096917Y-16243203D01*
X11096917Y-16243203D02*
X11058822Y-16243203D01*
X11058822Y-16243203D02*
X11039774Y-16233679D01*
X11039774Y-16233679D02*
X11030250Y-16214631D01*
X11030250Y-16214631D02*
X11030250Y-16138441D01*
X11030250Y-16138441D02*
X11039774Y-16119393D01*
X11039774Y-16119393D02*
X11058822Y-16109869D01*
X11058822Y-16109869D02*
X11096917Y-16109869D01*
X11096917Y-16109869D02*
X11115965Y-16119393D01*
X11115965Y-16119393D02*
X11125489Y-16138441D01*
X11125489Y-16138441D02*
X11125489Y-16157488D01*
X11125489Y-16157488D02*
X11030250Y-16176536D01*
X11201679Y-16233679D02*
X11220727Y-16243203D01*
X11220727Y-16243203D02*
X11258822Y-16243203D01*
X11258822Y-16243203D02*
X11277869Y-16233679D01*
X11277869Y-16233679D02*
X11287393Y-16214631D01*
X11287393Y-16214631D02*
X11287393Y-16205107D01*
X11287393Y-16205107D02*
X11277869Y-16186060D01*
X11277869Y-16186060D02*
X11258822Y-16176536D01*
X11258822Y-16176536D02*
X11230250Y-16176536D01*
X11230250Y-16176536D02*
X11211203Y-16167012D01*
X11211203Y-16167012D02*
X11201679Y-16147965D01*
X11201679Y-16147965D02*
X11201679Y-16138441D01*
X11201679Y-16138441D02*
X11211203Y-16119393D01*
X11211203Y-16119393D02*
X11230250Y-16109869D01*
X11230250Y-16109869D02*
X11258822Y-16109869D01*
X11258822Y-16109869D02*
X11277869Y-16119393D01*
X11354060Y-16319393D02*
X11363584Y-16309869D01*
X11363584Y-16309869D02*
X11382631Y-16281298D01*
X11382631Y-16281298D02*
X11392155Y-16262250D01*
X11392155Y-16262250D02*
X11401679Y-16233679D01*
X11401679Y-16233679D02*
X11411203Y-16186060D01*
X11411203Y-16186060D02*
X11411203Y-16147965D01*
X11411203Y-16147965D02*
X11401679Y-16100345D01*
X11401679Y-16100345D02*
X11392155Y-16071774D01*
X11392155Y-16071774D02*
X11382631Y-16052726D01*
X11382631Y-16052726D02*
X11363584Y-16024155D01*
X11363584Y-16024155D02*
X11354060Y-16014631D01*
M02*
