%TF.GenerationSoftware,KiCad,Pcbnew,8.0.1*%
%TF.CreationDate,2024-07-30T22:51:40-07:00*%
%TF.ProjectId,2024_def_con_badge_v1,32303234-5f64-4656-965f-636f6e5f6261,rev?*%
%TF.SameCoordinates,Original*%
%TF.FileFunction,Drillmap*%
%TF.FilePolarity,Positive*%
%FSLAX45Y45*%
G04 Gerber Fmt 4.5, Leading zero omitted, Abs format (unit mm)*
G04 Created by KiCad (PCBNEW 8.0.1) date 2024-07-30 22:51:40*
%MOMM*%
%LPD*%
G01*
G04 APERTURE LIST*
%ADD10C,0.200000*%
%ADD11C,0.050000*%
%ADD12C,0.100000*%
%ADD13C,0.330000*%
G04 APERTURE END LIST*
D10*
X8340000Y-8660000D02*
X8300000Y-8740000D01*
X19817784Y-5916764D02*
X19780754Y-5902469D01*
X10003054Y-13701716D02*
X10035019Y-13708220D01*
X19992535Y-13701716D02*
X19967169Y-13706803D01*
X19925708Y-13721685D01*
X19897460Y-13732318D01*
X19863408Y-13744823D01*
X19822960Y-13759009D01*
X19775524Y-13774683D01*
X19720505Y-13791652D01*
X19657310Y-13809726D01*
X19585348Y-13828711D01*
X19504024Y-13848417D01*
X19412746Y-13868650D01*
X19310920Y-13889218D01*
X19197953Y-13909931D01*
X19073253Y-13930594D01*
X18936226Y-13951018D01*
X18786279Y-13971008D01*
X18622820Y-13990374D01*
X18445254Y-14008923D01*
X18252989Y-14026463D01*
X18045433Y-14042802D01*
X17821991Y-14057748D01*
X17582071Y-14071109D01*
X17325079Y-14082693D01*
X17050423Y-14092307D01*
X16757510Y-14099761D01*
X16445746Y-14104860D01*
X16114539Y-14107415D01*
X15763295Y-14107231D01*
X15391421Y-14104118D01*
X14998324Y-14097884D01*
X10035019Y-13708220D02*
X10070634Y-13713944D01*
X10091297Y-13721054D01*
X10117334Y-13730427D01*
X10149333Y-13741861D01*
X10187882Y-13755152D01*
X10233567Y-13770097D01*
X10286977Y-13786495D01*
X10348698Y-13804141D01*
X10419318Y-13822834D01*
X10499425Y-13842370D01*
X10589606Y-13862547D01*
X10690447Y-13883162D01*
X10802538Y-13904011D01*
X10926464Y-13924893D01*
X11062814Y-13945604D01*
X11212175Y-13965942D01*
X11375134Y-13985703D01*
X11552279Y-14004685D01*
X11744198Y-14022686D01*
X11951476Y-14039501D01*
X12174703Y-14054930D01*
X12414465Y-14068768D01*
X12671350Y-14080813D01*
X12945945Y-14090862D01*
X13238837Y-14098712D01*
X13550615Y-14104160D01*
X13881865Y-14107005D01*
X14233175Y-14107042D01*
X14605132Y-14104069D01*
X14998324Y-14097884D01*
X21676354Y-8703569D02*
X21694952Y-8746828D01*
X21716311Y-8799123D01*
X21744032Y-8870278D01*
X21776856Y-8959107D01*
X21813524Y-9064423D01*
X21852778Y-9185039D01*
X21893359Y-9319769D01*
X21934008Y-9467426D01*
X21973465Y-9626823D01*
X22010474Y-9796773D01*
X22043774Y-9976089D01*
X22072107Y-10163585D01*
X22094214Y-10358074D01*
X22108837Y-10558368D01*
X22114716Y-10763283D01*
X22110593Y-10971629D01*
X22095209Y-11182222D01*
X22067306Y-11393873D01*
X22025624Y-11605396D01*
X21968905Y-11815605D01*
X21895890Y-12023312D01*
X21805320Y-12227332D01*
X21695937Y-12426476D01*
X21566482Y-12619558D01*
X21415695Y-12805392D01*
X21242319Y-12982791D01*
X21045094Y-13150567D01*
X20822762Y-13307535D01*
X20574064Y-13452507D01*
X20297741Y-13584296D01*
X19992535Y-13701716D01*
X8300000Y-8740000D02*
X8284788Y-8776847D01*
X8264961Y-8826238D01*
X8238671Y-8894684D01*
X8207179Y-8980990D01*
X8171747Y-9083964D01*
X8133639Y-9202411D01*
X8094115Y-9335139D01*
X8054439Y-9480953D01*
X8015873Y-9638661D01*
X7979679Y-9807069D01*
X7947119Y-9984983D01*
X7919456Y-10171211D01*
X7897951Y-10364558D01*
X7883868Y-10563831D01*
X7878469Y-10767837D01*
X7883015Y-10975382D01*
X7898769Y-11185272D01*
X7926994Y-11396315D01*
X7968951Y-11607317D01*
X8025903Y-11817085D01*
X8099112Y-12024424D01*
X8189841Y-12228142D01*
X8299351Y-12427045D01*
X8428906Y-12619940D01*
X8579767Y-12805632D01*
X8753196Y-12982930D01*
X8950457Y-13150638D01*
X9172811Y-13307565D01*
X9421520Y-13452515D01*
X9697847Y-13584297D01*
X10003054Y-13701716D01*
X14997795Y-7297714D02*
X15037623Y-7296053D01*
X15067494Y-7295082D01*
X15104972Y-7294102D01*
X15149641Y-7293234D01*
X15201086Y-7292598D01*
X15258894Y-7292314D01*
X15322649Y-7292502D01*
X15391936Y-7293282D01*
X15466340Y-7294775D01*
X15545447Y-7297101D01*
X15628842Y-7300379D01*
X15716110Y-7304731D01*
X15806837Y-7310276D01*
X15900607Y-7317135D01*
X15997005Y-7325427D01*
X16095617Y-7335273D01*
X16196029Y-7346793D01*
X16297824Y-7360107D01*
X16400589Y-7375335D01*
X16503909Y-7392599D01*
X16607368Y-7412016D01*
X16710553Y-7433709D01*
X16813048Y-7457797D01*
X16914438Y-7484400D01*
X17014309Y-7513638D01*
X17112245Y-7545632D01*
X17207833Y-7580502D01*
X17300657Y-7618368D01*
X17390302Y-7659350D01*
X17476354Y-7703569D01*
X14997795Y-7297714D02*
X14957966Y-7296053D01*
X14928095Y-7295082D01*
X14890617Y-7294102D01*
X14845948Y-7293234D01*
X14794503Y-7292598D01*
X14736695Y-7292314D01*
X14672940Y-7292502D01*
X14603653Y-7293282D01*
X14529249Y-7294775D01*
X14450142Y-7297101D01*
X14366747Y-7300379D01*
X14279479Y-7304731D01*
X14188752Y-7310276D01*
X14094982Y-7317135D01*
X13998584Y-7325427D01*
X13899972Y-7335273D01*
X13799560Y-7346793D01*
X13697765Y-7360107D01*
X13595000Y-7375335D01*
X13491680Y-7392599D01*
X13388221Y-7412016D01*
X13285036Y-7433709D01*
X13182541Y-7457797D01*
X13081151Y-7484400D01*
X12981280Y-7513638D01*
X12883344Y-7545632D01*
X12787756Y-7580502D01*
X12694932Y-7618368D01*
X12605287Y-7659350D01*
X12519235Y-7703569D01*
X19817784Y-5916764D02*
X19845486Y-5929729D01*
X19866335Y-5940520D01*
X19892556Y-5954987D01*
X19923888Y-5973394D01*
X19960069Y-5996009D01*
X20000839Y-6023094D01*
X20045935Y-6054916D01*
X20095097Y-6091739D01*
X20148063Y-6133828D01*
X20204572Y-6181449D01*
X20264362Y-6234866D01*
X20327173Y-6294344D01*
X20392743Y-6360148D01*
X20460810Y-6432545D01*
X20531114Y-6511797D01*
X20603393Y-6598171D01*
X20677386Y-6691931D01*
X20752832Y-6793343D01*
X20829468Y-6902672D01*
X20907034Y-7020181D01*
X20985269Y-7146138D01*
X21063912Y-7280806D01*
X21142700Y-7424450D01*
X21221372Y-7577337D01*
X21299669Y-7739729D01*
X21377327Y-7911894D01*
X21454086Y-8094095D01*
X21529684Y-8286598D01*
X21603861Y-8489667D01*
X21676354Y-8703569D01*
X10215601Y-5896431D02*
X10193752Y-5909414D01*
X10174616Y-5919927D01*
X10150323Y-5933484D01*
X10121109Y-5950361D01*
X10087213Y-5970830D01*
X10048871Y-5995164D01*
X10006321Y-6023638D01*
X9959800Y-6056525D01*
X9909546Y-6094098D01*
X9855797Y-6136631D01*
X9798789Y-6184398D01*
X9738760Y-6237672D01*
X9675947Y-6296726D01*
X9610589Y-6361834D01*
X9542922Y-6433270D01*
X9473183Y-6511307D01*
X9401611Y-6596219D01*
X9328442Y-6688279D01*
X9253914Y-6787761D01*
X9178265Y-6894938D01*
X9101732Y-7010083D01*
X9024551Y-7133471D01*
X8946962Y-7265375D01*
X8869200Y-7406068D01*
X8791504Y-7555825D01*
X8714111Y-7714917D01*
X8637259Y-7883620D01*
X8561184Y-8062206D01*
X8486124Y-8250949D01*
X8412317Y-8450122D01*
X8340000Y-8660000D01*
X17476354Y-7703569D02*
X17593506Y-7562722D01*
X17708939Y-7429420D01*
X17822532Y-7303453D01*
X17934168Y-7184611D01*
X18043727Y-7072687D01*
X18151089Y-6967471D01*
X18256135Y-6868755D01*
X18358746Y-6776330D01*
X18458803Y-6689987D01*
X18556186Y-6609517D01*
X18650776Y-6534712D01*
X18742454Y-6465362D01*
X18831101Y-6401259D01*
X18916597Y-6342194D01*
X18998822Y-6287958D01*
X19077659Y-6238342D01*
X19152986Y-6193138D01*
X19224686Y-6152137D01*
X19292639Y-6115130D01*
X19356725Y-6081907D01*
X19416825Y-6052261D01*
X19472820Y-6025983D01*
X19524591Y-6002863D01*
X19572019Y-5982693D01*
X19614983Y-5965264D01*
X19653365Y-5950367D01*
X19687046Y-5937793D01*
X19715906Y-5927334D01*
X19739827Y-5918781D01*
X19758687Y-5911925D01*
X19780754Y-5902469D01*
X12519235Y-7703569D02*
X12399929Y-7560218D01*
X12282333Y-7424495D01*
X12166582Y-7296197D01*
X12052810Y-7175122D01*
X11941151Y-7061068D01*
X11831739Y-6953832D01*
X11724709Y-6853213D01*
X11620195Y-6759008D01*
X11518332Y-6671014D01*
X11419252Y-6589030D01*
X11323091Y-6512853D01*
X11229983Y-6442281D01*
X11140062Y-6377112D01*
X11053462Y-6317143D01*
X10970317Y-6262173D01*
X10890762Y-6211999D01*
X10814931Y-6166418D01*
X10742958Y-6125229D01*
X10674977Y-6088229D01*
X10611123Y-6055216D01*
X10551530Y-6025988D01*
X10496331Y-6000343D01*
X10445662Y-5978078D01*
X10399656Y-5958990D01*
X10358448Y-5942879D01*
X10322172Y-5929541D01*
X10290962Y-5918774D01*
X10264952Y-5910377D01*
X10244277Y-5904146D01*
X10219467Y-5897375D01*
X10215601Y-5896431D01*
D11*
X14600000Y-8000000D02*
G75*
G02*
X14600000Y-7500000I0J250000D01*
G01*
X15400000Y-7500000D02*
G75*
G02*
X15400000Y-8000000I0J-250000D01*
G01*
X15400000Y-8000000D02*
X14600000Y-8000000D01*
X14600000Y-7500000D02*
X15400000Y-7500000D01*
D10*
D12*
X21162628Y-11769531D02*
X21227628Y-11834531D01*
X21227628Y-11769531D02*
X21162628Y-11834531D01*
X21321413Y-11213769D02*
X21386413Y-11278769D01*
X21386413Y-11213769D02*
X21321413Y-11278769D01*
X14705000Y-13550000D02*
G75*
G02*
X14615000Y-13550000I-45000J0D01*
G01*
X14615000Y-13550000D02*
G75*
G02*
X14705000Y-13550000I45000J0D01*
G01*
X15385000Y-13550000D02*
G75*
G02*
X15295000Y-13550000I-45000J0D01*
G01*
X15295000Y-13550000D02*
G75*
G02*
X15385000Y-13550000I45000J0D01*
G01*
D13*
X14250500Y-10835000D02*
X14250500Y-11165000D01*
X14085500Y-11000000D02*
X14415500Y-11000000D01*
X15749500Y-10835000D02*
X15749500Y-11165000D01*
X15584500Y-11000000D02*
X15914500Y-11000000D01*
D10*
X6839774Y-14503203D02*
X6839774Y-14303203D01*
X6839774Y-14303203D02*
X6887393Y-14303203D01*
X6887393Y-14303203D02*
X6915964Y-14312726D01*
X6915964Y-14312726D02*
X6935012Y-14331774D01*
X6935012Y-14331774D02*
X6944536Y-14350822D01*
X6944536Y-14350822D02*
X6954059Y-14388917D01*
X6954059Y-14388917D02*
X6954059Y-14417488D01*
X6954059Y-14417488D02*
X6944536Y-14455584D01*
X6944536Y-14455584D02*
X6935012Y-14474631D01*
X6935012Y-14474631D02*
X6915964Y-14493679D01*
X6915964Y-14493679D02*
X6887393Y-14503203D01*
X6887393Y-14503203D02*
X6839774Y-14503203D01*
X7039774Y-14503203D02*
X7039774Y-14369869D01*
X7039774Y-14407965D02*
X7049298Y-14388917D01*
X7049298Y-14388917D02*
X7058821Y-14379393D01*
X7058821Y-14379393D02*
X7077869Y-14369869D01*
X7077869Y-14369869D02*
X7096917Y-14369869D01*
X7163583Y-14503203D02*
X7163583Y-14369869D01*
X7163583Y-14303203D02*
X7154059Y-14312726D01*
X7154059Y-14312726D02*
X7163583Y-14322250D01*
X7163583Y-14322250D02*
X7173107Y-14312726D01*
X7173107Y-14312726D02*
X7163583Y-14303203D01*
X7163583Y-14303203D02*
X7163583Y-14322250D01*
X7287393Y-14503203D02*
X7268345Y-14493679D01*
X7268345Y-14493679D02*
X7258821Y-14474631D01*
X7258821Y-14474631D02*
X7258821Y-14303203D01*
X7392155Y-14503203D02*
X7373107Y-14493679D01*
X7373107Y-14493679D02*
X7363583Y-14474631D01*
X7363583Y-14474631D02*
X7363583Y-14303203D01*
X7620726Y-14503203D02*
X7620726Y-14303203D01*
X7620726Y-14303203D02*
X7687393Y-14446060D01*
X7687393Y-14446060D02*
X7754059Y-14303203D01*
X7754059Y-14303203D02*
X7754059Y-14503203D01*
X7935012Y-14503203D02*
X7935012Y-14398441D01*
X7935012Y-14398441D02*
X7925488Y-14379393D01*
X7925488Y-14379393D02*
X7906440Y-14369869D01*
X7906440Y-14369869D02*
X7868345Y-14369869D01*
X7868345Y-14369869D02*
X7849298Y-14379393D01*
X7935012Y-14493679D02*
X7915964Y-14503203D01*
X7915964Y-14503203D02*
X7868345Y-14503203D01*
X7868345Y-14503203D02*
X7849298Y-14493679D01*
X7849298Y-14493679D02*
X7839774Y-14474631D01*
X7839774Y-14474631D02*
X7839774Y-14455584D01*
X7839774Y-14455584D02*
X7849298Y-14436536D01*
X7849298Y-14436536D02*
X7868345Y-14427012D01*
X7868345Y-14427012D02*
X7915964Y-14427012D01*
X7915964Y-14427012D02*
X7935012Y-14417488D01*
X8030250Y-14369869D02*
X8030250Y-14569869D01*
X8030250Y-14379393D02*
X8049298Y-14369869D01*
X8049298Y-14369869D02*
X8087393Y-14369869D01*
X8087393Y-14369869D02*
X8106440Y-14379393D01*
X8106440Y-14379393D02*
X8115964Y-14388917D01*
X8115964Y-14388917D02*
X8125488Y-14407965D01*
X8125488Y-14407965D02*
X8125488Y-14465107D01*
X8125488Y-14465107D02*
X8115964Y-14484155D01*
X8115964Y-14484155D02*
X8106440Y-14493679D01*
X8106440Y-14493679D02*
X8087393Y-14503203D01*
X8087393Y-14503203D02*
X8049298Y-14503203D01*
X8049298Y-14503203D02*
X8030250Y-14493679D01*
X8211202Y-14484155D02*
X8220726Y-14493679D01*
X8220726Y-14493679D02*
X8211202Y-14503203D01*
X8211202Y-14503203D02*
X8201679Y-14493679D01*
X8201679Y-14493679D02*
X8211202Y-14484155D01*
X8211202Y-14484155D02*
X8211202Y-14503203D01*
X8211202Y-14379393D02*
X8220726Y-14388917D01*
X8220726Y-14388917D02*
X8211202Y-14398441D01*
X8211202Y-14398441D02*
X8201679Y-14388917D01*
X8201679Y-14388917D02*
X8211202Y-14379393D01*
X8211202Y-14379393D02*
X8211202Y-14398441D01*
D12*
X6513997Y-14799219D02*
X6578997Y-14864219D01*
X6578997Y-14799219D02*
X6513997Y-14864219D01*
D10*
X6877869Y-14723203D02*
X6896917Y-14723203D01*
X6896917Y-14723203D02*
X6915964Y-14732726D01*
X6915964Y-14732726D02*
X6925488Y-14742250D01*
X6925488Y-14742250D02*
X6935012Y-14761298D01*
X6935012Y-14761298D02*
X6944536Y-14799393D01*
X6944536Y-14799393D02*
X6944536Y-14847012D01*
X6944536Y-14847012D02*
X6935012Y-14885107D01*
X6935012Y-14885107D02*
X6925488Y-14904155D01*
X6925488Y-14904155D02*
X6915964Y-14913679D01*
X6915964Y-14913679D02*
X6896917Y-14923203D01*
X6896917Y-14923203D02*
X6877869Y-14923203D01*
X6877869Y-14923203D02*
X6858821Y-14913679D01*
X6858821Y-14913679D02*
X6849298Y-14904155D01*
X6849298Y-14904155D02*
X6839774Y-14885107D01*
X6839774Y-14885107D02*
X6830250Y-14847012D01*
X6830250Y-14847012D02*
X6830250Y-14799393D01*
X6830250Y-14799393D02*
X6839774Y-14761298D01*
X6839774Y-14761298D02*
X6849298Y-14742250D01*
X6849298Y-14742250D02*
X6858821Y-14732726D01*
X6858821Y-14732726D02*
X6877869Y-14723203D01*
X7030250Y-14904155D02*
X7039774Y-14913679D01*
X7039774Y-14913679D02*
X7030250Y-14923203D01*
X7030250Y-14923203D02*
X7020726Y-14913679D01*
X7020726Y-14913679D02*
X7030250Y-14904155D01*
X7030250Y-14904155D02*
X7030250Y-14923203D01*
X7211202Y-14723203D02*
X7173107Y-14723203D01*
X7173107Y-14723203D02*
X7154059Y-14732726D01*
X7154059Y-14732726D02*
X7144536Y-14742250D01*
X7144536Y-14742250D02*
X7125488Y-14770822D01*
X7125488Y-14770822D02*
X7115964Y-14808917D01*
X7115964Y-14808917D02*
X7115964Y-14885107D01*
X7115964Y-14885107D02*
X7125488Y-14904155D01*
X7125488Y-14904155D02*
X7135012Y-14913679D01*
X7135012Y-14913679D02*
X7154059Y-14923203D01*
X7154059Y-14923203D02*
X7192155Y-14923203D01*
X7192155Y-14923203D02*
X7211202Y-14913679D01*
X7211202Y-14913679D02*
X7220726Y-14904155D01*
X7220726Y-14904155D02*
X7230250Y-14885107D01*
X7230250Y-14885107D02*
X7230250Y-14837488D01*
X7230250Y-14837488D02*
X7220726Y-14818441D01*
X7220726Y-14818441D02*
X7211202Y-14808917D01*
X7211202Y-14808917D02*
X7192155Y-14799393D01*
X7192155Y-14799393D02*
X7154059Y-14799393D01*
X7154059Y-14799393D02*
X7135012Y-14808917D01*
X7135012Y-14808917D02*
X7125488Y-14818441D01*
X7125488Y-14818441D02*
X7115964Y-14837488D01*
X7411202Y-14723203D02*
X7315964Y-14723203D01*
X7315964Y-14723203D02*
X7306440Y-14818441D01*
X7306440Y-14818441D02*
X7315964Y-14808917D01*
X7315964Y-14808917D02*
X7335012Y-14799393D01*
X7335012Y-14799393D02*
X7382631Y-14799393D01*
X7382631Y-14799393D02*
X7401679Y-14808917D01*
X7401679Y-14808917D02*
X7411202Y-14818441D01*
X7411202Y-14818441D02*
X7420726Y-14837488D01*
X7420726Y-14837488D02*
X7420726Y-14885107D01*
X7420726Y-14885107D02*
X7411202Y-14904155D01*
X7411202Y-14904155D02*
X7401679Y-14913679D01*
X7401679Y-14913679D02*
X7382631Y-14923203D01*
X7382631Y-14923203D02*
X7335012Y-14923203D01*
X7335012Y-14923203D02*
X7315964Y-14913679D01*
X7315964Y-14913679D02*
X7306440Y-14904155D01*
X7544536Y-14723203D02*
X7563583Y-14723203D01*
X7563583Y-14723203D02*
X7582631Y-14732726D01*
X7582631Y-14732726D02*
X7592155Y-14742250D01*
X7592155Y-14742250D02*
X7601679Y-14761298D01*
X7601679Y-14761298D02*
X7611202Y-14799393D01*
X7611202Y-14799393D02*
X7611202Y-14847012D01*
X7611202Y-14847012D02*
X7601679Y-14885107D01*
X7601679Y-14885107D02*
X7592155Y-14904155D01*
X7592155Y-14904155D02*
X7582631Y-14913679D01*
X7582631Y-14913679D02*
X7563583Y-14923203D01*
X7563583Y-14923203D02*
X7544536Y-14923203D01*
X7544536Y-14923203D02*
X7525488Y-14913679D01*
X7525488Y-14913679D02*
X7515964Y-14904155D01*
X7515964Y-14904155D02*
X7506440Y-14885107D01*
X7506440Y-14885107D02*
X7496917Y-14847012D01*
X7496917Y-14847012D02*
X7496917Y-14799393D01*
X7496917Y-14799393D02*
X7506440Y-14761298D01*
X7506440Y-14761298D02*
X7515964Y-14742250D01*
X7515964Y-14742250D02*
X7525488Y-14732726D01*
X7525488Y-14732726D02*
X7544536Y-14723203D01*
X7696917Y-14923203D02*
X7696917Y-14789869D01*
X7696917Y-14808917D02*
X7706440Y-14799393D01*
X7706440Y-14799393D02*
X7725488Y-14789869D01*
X7725488Y-14789869D02*
X7754060Y-14789869D01*
X7754060Y-14789869D02*
X7773107Y-14799393D01*
X7773107Y-14799393D02*
X7782631Y-14818441D01*
X7782631Y-14818441D02*
X7782631Y-14923203D01*
X7782631Y-14818441D02*
X7792155Y-14799393D01*
X7792155Y-14799393D02*
X7811202Y-14789869D01*
X7811202Y-14789869D02*
X7839774Y-14789869D01*
X7839774Y-14789869D02*
X7858821Y-14799393D01*
X7858821Y-14799393D02*
X7868345Y-14818441D01*
X7868345Y-14818441D02*
X7868345Y-14923203D01*
X7963583Y-14923203D02*
X7963583Y-14789869D01*
X7963583Y-14808917D02*
X7973107Y-14799393D01*
X7973107Y-14799393D02*
X7992155Y-14789869D01*
X7992155Y-14789869D02*
X8020726Y-14789869D01*
X8020726Y-14789869D02*
X8039774Y-14799393D01*
X8039774Y-14799393D02*
X8049298Y-14818441D01*
X8049298Y-14818441D02*
X8049298Y-14923203D01*
X8049298Y-14818441D02*
X8058821Y-14799393D01*
X8058821Y-14799393D02*
X8077869Y-14789869D01*
X8077869Y-14789869D02*
X8106440Y-14789869D01*
X8106440Y-14789869D02*
X8125488Y-14799393D01*
X8125488Y-14799393D02*
X8135012Y-14818441D01*
X8135012Y-14818441D02*
X8135012Y-14923203D01*
X8525488Y-14713679D02*
X8354060Y-14970822D01*
X8782631Y-14723203D02*
X8801679Y-14723203D01*
X8801679Y-14723203D02*
X8820726Y-14732726D01*
X8820726Y-14732726D02*
X8830250Y-14742250D01*
X8830250Y-14742250D02*
X8839774Y-14761298D01*
X8839774Y-14761298D02*
X8849298Y-14799393D01*
X8849298Y-14799393D02*
X8849298Y-14847012D01*
X8849298Y-14847012D02*
X8839774Y-14885107D01*
X8839774Y-14885107D02*
X8830250Y-14904155D01*
X8830250Y-14904155D02*
X8820726Y-14913679D01*
X8820726Y-14913679D02*
X8801679Y-14923203D01*
X8801679Y-14923203D02*
X8782631Y-14923203D01*
X8782631Y-14923203D02*
X8763584Y-14913679D01*
X8763584Y-14913679D02*
X8754060Y-14904155D01*
X8754060Y-14904155D02*
X8744536Y-14885107D01*
X8744536Y-14885107D02*
X8735012Y-14847012D01*
X8735012Y-14847012D02*
X8735012Y-14799393D01*
X8735012Y-14799393D02*
X8744536Y-14761298D01*
X8744536Y-14761298D02*
X8754060Y-14742250D01*
X8754060Y-14742250D02*
X8763584Y-14732726D01*
X8763584Y-14732726D02*
X8782631Y-14723203D01*
X8935012Y-14904155D02*
X8944536Y-14913679D01*
X8944536Y-14913679D02*
X8935012Y-14923203D01*
X8935012Y-14923203D02*
X8925488Y-14913679D01*
X8925488Y-14913679D02*
X8935012Y-14904155D01*
X8935012Y-14904155D02*
X8935012Y-14923203D01*
X9068345Y-14723203D02*
X9087393Y-14723203D01*
X9087393Y-14723203D02*
X9106441Y-14732726D01*
X9106441Y-14732726D02*
X9115965Y-14742250D01*
X9115965Y-14742250D02*
X9125488Y-14761298D01*
X9125488Y-14761298D02*
X9135012Y-14799393D01*
X9135012Y-14799393D02*
X9135012Y-14847012D01*
X9135012Y-14847012D02*
X9125488Y-14885107D01*
X9125488Y-14885107D02*
X9115965Y-14904155D01*
X9115965Y-14904155D02*
X9106441Y-14913679D01*
X9106441Y-14913679D02*
X9087393Y-14923203D01*
X9087393Y-14923203D02*
X9068345Y-14923203D01*
X9068345Y-14923203D02*
X9049298Y-14913679D01*
X9049298Y-14913679D02*
X9039774Y-14904155D01*
X9039774Y-14904155D02*
X9030250Y-14885107D01*
X9030250Y-14885107D02*
X9020726Y-14847012D01*
X9020726Y-14847012D02*
X9020726Y-14799393D01*
X9020726Y-14799393D02*
X9030250Y-14761298D01*
X9030250Y-14761298D02*
X9039774Y-14742250D01*
X9039774Y-14742250D02*
X9049298Y-14732726D01*
X9049298Y-14732726D02*
X9068345Y-14723203D01*
X9211203Y-14742250D02*
X9220726Y-14732726D01*
X9220726Y-14732726D02*
X9239774Y-14723203D01*
X9239774Y-14723203D02*
X9287393Y-14723203D01*
X9287393Y-14723203D02*
X9306441Y-14732726D01*
X9306441Y-14732726D02*
X9315965Y-14742250D01*
X9315965Y-14742250D02*
X9325488Y-14761298D01*
X9325488Y-14761298D02*
X9325488Y-14780345D01*
X9325488Y-14780345D02*
X9315965Y-14808917D01*
X9315965Y-14808917D02*
X9201679Y-14923203D01*
X9201679Y-14923203D02*
X9325488Y-14923203D01*
X9506441Y-14723203D02*
X9411203Y-14723203D01*
X9411203Y-14723203D02*
X9401679Y-14818441D01*
X9401679Y-14818441D02*
X9411203Y-14808917D01*
X9411203Y-14808917D02*
X9430250Y-14799393D01*
X9430250Y-14799393D02*
X9477869Y-14799393D01*
X9477869Y-14799393D02*
X9496917Y-14808917D01*
X9496917Y-14808917D02*
X9506441Y-14818441D01*
X9506441Y-14818441D02*
X9515965Y-14837488D01*
X9515965Y-14837488D02*
X9515965Y-14885107D01*
X9515965Y-14885107D02*
X9506441Y-14904155D01*
X9506441Y-14904155D02*
X9496917Y-14913679D01*
X9496917Y-14913679D02*
X9477869Y-14923203D01*
X9477869Y-14923203D02*
X9430250Y-14923203D01*
X9430250Y-14923203D02*
X9411203Y-14913679D01*
X9411203Y-14913679D02*
X9401679Y-14904155D01*
X9687393Y-14723203D02*
X9649298Y-14723203D01*
X9649298Y-14723203D02*
X9630250Y-14732726D01*
X9630250Y-14732726D02*
X9620726Y-14742250D01*
X9620726Y-14742250D02*
X9601679Y-14770822D01*
X9601679Y-14770822D02*
X9592155Y-14808917D01*
X9592155Y-14808917D02*
X9592155Y-14885107D01*
X9592155Y-14885107D02*
X9601679Y-14904155D01*
X9601679Y-14904155D02*
X9611203Y-14913679D01*
X9611203Y-14913679D02*
X9630250Y-14923203D01*
X9630250Y-14923203D02*
X9668346Y-14923203D01*
X9668346Y-14923203D02*
X9687393Y-14913679D01*
X9687393Y-14913679D02*
X9696917Y-14904155D01*
X9696917Y-14904155D02*
X9706441Y-14885107D01*
X9706441Y-14885107D02*
X9706441Y-14837488D01*
X9706441Y-14837488D02*
X9696917Y-14818441D01*
X9696917Y-14818441D02*
X9687393Y-14808917D01*
X9687393Y-14808917D02*
X9668346Y-14799393D01*
X9668346Y-14799393D02*
X9630250Y-14799393D01*
X9630250Y-14799393D02*
X9611203Y-14808917D01*
X9611203Y-14808917D02*
X9601679Y-14818441D01*
X9601679Y-14818441D02*
X9592155Y-14837488D01*
X9782631Y-14723203D02*
X9782631Y-14761298D01*
X9858822Y-14723203D02*
X9858822Y-14761298D01*
X10154060Y-14999393D02*
X10144536Y-14989869D01*
X10144536Y-14989869D02*
X10125488Y-14961298D01*
X10125488Y-14961298D02*
X10115965Y-14942250D01*
X10115965Y-14942250D02*
X10106441Y-14913679D01*
X10106441Y-14913679D02*
X10096917Y-14866060D01*
X10096917Y-14866060D02*
X10096917Y-14827965D01*
X10096917Y-14827965D02*
X10106441Y-14780345D01*
X10106441Y-14780345D02*
X10115965Y-14751774D01*
X10115965Y-14751774D02*
X10125488Y-14732726D01*
X10125488Y-14732726D02*
X10144536Y-14704155D01*
X10144536Y-14704155D02*
X10154060Y-14694631D01*
X10220727Y-14742250D02*
X10230250Y-14732726D01*
X10230250Y-14732726D02*
X10249298Y-14723203D01*
X10249298Y-14723203D02*
X10296917Y-14723203D01*
X10296917Y-14723203D02*
X10315965Y-14732726D01*
X10315965Y-14732726D02*
X10325488Y-14742250D01*
X10325488Y-14742250D02*
X10335012Y-14761298D01*
X10335012Y-14761298D02*
X10335012Y-14780345D01*
X10335012Y-14780345D02*
X10325488Y-14808917D01*
X10325488Y-14808917D02*
X10211203Y-14923203D01*
X10211203Y-14923203D02*
X10335012Y-14923203D01*
X10573108Y-14923203D02*
X10573108Y-14723203D01*
X10658822Y-14923203D02*
X10658822Y-14818441D01*
X10658822Y-14818441D02*
X10649298Y-14799393D01*
X10649298Y-14799393D02*
X10630250Y-14789869D01*
X10630250Y-14789869D02*
X10601679Y-14789869D01*
X10601679Y-14789869D02*
X10582631Y-14799393D01*
X10582631Y-14799393D02*
X10573108Y-14808917D01*
X10782631Y-14923203D02*
X10763584Y-14913679D01*
X10763584Y-14913679D02*
X10754060Y-14904155D01*
X10754060Y-14904155D02*
X10744536Y-14885107D01*
X10744536Y-14885107D02*
X10744536Y-14827965D01*
X10744536Y-14827965D02*
X10754060Y-14808917D01*
X10754060Y-14808917D02*
X10763584Y-14799393D01*
X10763584Y-14799393D02*
X10782631Y-14789869D01*
X10782631Y-14789869D02*
X10811203Y-14789869D01*
X10811203Y-14789869D02*
X10830250Y-14799393D01*
X10830250Y-14799393D02*
X10839774Y-14808917D01*
X10839774Y-14808917D02*
X10849298Y-14827965D01*
X10849298Y-14827965D02*
X10849298Y-14885107D01*
X10849298Y-14885107D02*
X10839774Y-14904155D01*
X10839774Y-14904155D02*
X10830250Y-14913679D01*
X10830250Y-14913679D02*
X10811203Y-14923203D01*
X10811203Y-14923203D02*
X10782631Y-14923203D01*
X10963584Y-14923203D02*
X10944536Y-14913679D01*
X10944536Y-14913679D02*
X10935012Y-14894631D01*
X10935012Y-14894631D02*
X10935012Y-14723203D01*
X11115965Y-14913679D02*
X11096917Y-14923203D01*
X11096917Y-14923203D02*
X11058822Y-14923203D01*
X11058822Y-14923203D02*
X11039774Y-14913679D01*
X11039774Y-14913679D02*
X11030250Y-14894631D01*
X11030250Y-14894631D02*
X11030250Y-14818441D01*
X11030250Y-14818441D02*
X11039774Y-14799393D01*
X11039774Y-14799393D02*
X11058822Y-14789869D01*
X11058822Y-14789869D02*
X11096917Y-14789869D01*
X11096917Y-14789869D02*
X11115965Y-14799393D01*
X11115965Y-14799393D02*
X11125489Y-14818441D01*
X11125489Y-14818441D02*
X11125489Y-14837488D01*
X11125489Y-14837488D02*
X11030250Y-14856536D01*
X11201679Y-14913679D02*
X11220727Y-14923203D01*
X11220727Y-14923203D02*
X11258822Y-14923203D01*
X11258822Y-14923203D02*
X11277869Y-14913679D01*
X11277869Y-14913679D02*
X11287393Y-14894631D01*
X11287393Y-14894631D02*
X11287393Y-14885107D01*
X11287393Y-14885107D02*
X11277869Y-14866060D01*
X11277869Y-14866060D02*
X11258822Y-14856536D01*
X11258822Y-14856536D02*
X11230250Y-14856536D01*
X11230250Y-14856536D02*
X11211203Y-14847012D01*
X11211203Y-14847012D02*
X11201679Y-14827965D01*
X11201679Y-14827965D02*
X11201679Y-14818441D01*
X11201679Y-14818441D02*
X11211203Y-14799393D01*
X11211203Y-14799393D02*
X11230250Y-14789869D01*
X11230250Y-14789869D02*
X11258822Y-14789869D01*
X11258822Y-14789869D02*
X11277869Y-14799393D01*
X11354060Y-14999393D02*
X11363584Y-14989869D01*
X11363584Y-14989869D02*
X11382631Y-14961298D01*
X11382631Y-14961298D02*
X11392155Y-14942250D01*
X11392155Y-14942250D02*
X11401679Y-14913679D01*
X11401679Y-14913679D02*
X11411203Y-14866060D01*
X11411203Y-14866060D02*
X11411203Y-14827965D01*
X11411203Y-14827965D02*
X11401679Y-14780345D01*
X11401679Y-14780345D02*
X11392155Y-14751774D01*
X11392155Y-14751774D02*
X11382631Y-14732726D01*
X11382631Y-14732726D02*
X11363584Y-14704155D01*
X11363584Y-14704155D02*
X11354060Y-14694631D01*
X11715965Y-14999393D02*
X11706441Y-14989869D01*
X11706441Y-14989869D02*
X11687393Y-14961298D01*
X11687393Y-14961298D02*
X11677869Y-14942250D01*
X11677869Y-14942250D02*
X11668346Y-14913679D01*
X11668346Y-14913679D02*
X11658822Y-14866060D01*
X11658822Y-14866060D02*
X11658822Y-14827965D01*
X11658822Y-14827965D02*
X11668346Y-14780345D01*
X11668346Y-14780345D02*
X11677869Y-14751774D01*
X11677869Y-14751774D02*
X11687393Y-14732726D01*
X11687393Y-14732726D02*
X11706441Y-14704155D01*
X11706441Y-14704155D02*
X11715965Y-14694631D01*
X11792155Y-14789869D02*
X11792155Y-14923203D01*
X11792155Y-14808917D02*
X11801679Y-14799393D01*
X11801679Y-14799393D02*
X11820727Y-14789869D01*
X11820727Y-14789869D02*
X11849298Y-14789869D01*
X11849298Y-14789869D02*
X11868346Y-14799393D01*
X11868346Y-14799393D02*
X11877869Y-14818441D01*
X11877869Y-14818441D02*
X11877869Y-14923203D01*
X12001679Y-14923203D02*
X11982631Y-14913679D01*
X11982631Y-14913679D02*
X11973108Y-14904155D01*
X11973108Y-14904155D02*
X11963584Y-14885107D01*
X11963584Y-14885107D02*
X11963584Y-14827965D01*
X11963584Y-14827965D02*
X11973108Y-14808917D01*
X11973108Y-14808917D02*
X11982631Y-14799393D01*
X11982631Y-14799393D02*
X12001679Y-14789869D01*
X12001679Y-14789869D02*
X12030250Y-14789869D01*
X12030250Y-14789869D02*
X12049298Y-14799393D01*
X12049298Y-14799393D02*
X12058822Y-14808917D01*
X12058822Y-14808917D02*
X12068346Y-14827965D01*
X12068346Y-14827965D02*
X12068346Y-14885107D01*
X12068346Y-14885107D02*
X12058822Y-14904155D01*
X12058822Y-14904155D02*
X12049298Y-14913679D01*
X12049298Y-14913679D02*
X12030250Y-14923203D01*
X12030250Y-14923203D02*
X12001679Y-14923203D01*
X12125489Y-14789869D02*
X12201679Y-14789869D01*
X12154060Y-14723203D02*
X12154060Y-14894631D01*
X12154060Y-14894631D02*
X12163584Y-14913679D01*
X12163584Y-14913679D02*
X12182631Y-14923203D01*
X12182631Y-14923203D02*
X12201679Y-14923203D01*
X12420727Y-14789869D02*
X12420727Y-14989869D01*
X12420727Y-14799393D02*
X12439774Y-14789869D01*
X12439774Y-14789869D02*
X12477870Y-14789869D01*
X12477870Y-14789869D02*
X12496917Y-14799393D01*
X12496917Y-14799393D02*
X12506441Y-14808917D01*
X12506441Y-14808917D02*
X12515965Y-14827965D01*
X12515965Y-14827965D02*
X12515965Y-14885107D01*
X12515965Y-14885107D02*
X12506441Y-14904155D01*
X12506441Y-14904155D02*
X12496917Y-14913679D01*
X12496917Y-14913679D02*
X12477870Y-14923203D01*
X12477870Y-14923203D02*
X12439774Y-14923203D01*
X12439774Y-14923203D02*
X12420727Y-14913679D01*
X12630250Y-14923203D02*
X12611203Y-14913679D01*
X12611203Y-14913679D02*
X12601679Y-14894631D01*
X12601679Y-14894631D02*
X12601679Y-14723203D01*
X12792155Y-14923203D02*
X12792155Y-14818441D01*
X12792155Y-14818441D02*
X12782631Y-14799393D01*
X12782631Y-14799393D02*
X12763584Y-14789869D01*
X12763584Y-14789869D02*
X12725489Y-14789869D01*
X12725489Y-14789869D02*
X12706441Y-14799393D01*
X12792155Y-14913679D02*
X12773108Y-14923203D01*
X12773108Y-14923203D02*
X12725489Y-14923203D01*
X12725489Y-14923203D02*
X12706441Y-14913679D01*
X12706441Y-14913679D02*
X12696917Y-14894631D01*
X12696917Y-14894631D02*
X12696917Y-14875584D01*
X12696917Y-14875584D02*
X12706441Y-14856536D01*
X12706441Y-14856536D02*
X12725489Y-14847012D01*
X12725489Y-14847012D02*
X12773108Y-14847012D01*
X12773108Y-14847012D02*
X12792155Y-14837488D01*
X12858822Y-14789869D02*
X12935012Y-14789869D01*
X12887393Y-14723203D02*
X12887393Y-14894631D01*
X12887393Y-14894631D02*
X12896917Y-14913679D01*
X12896917Y-14913679D02*
X12915965Y-14923203D01*
X12915965Y-14923203D02*
X12935012Y-14923203D01*
X13077870Y-14913679D02*
X13058822Y-14923203D01*
X13058822Y-14923203D02*
X13020727Y-14923203D01*
X13020727Y-14923203D02*
X13001679Y-14913679D01*
X13001679Y-14913679D02*
X12992155Y-14894631D01*
X12992155Y-14894631D02*
X12992155Y-14818441D01*
X12992155Y-14818441D02*
X13001679Y-14799393D01*
X13001679Y-14799393D02*
X13020727Y-14789869D01*
X13020727Y-14789869D02*
X13058822Y-14789869D01*
X13058822Y-14789869D02*
X13077870Y-14799393D01*
X13077870Y-14799393D02*
X13087393Y-14818441D01*
X13087393Y-14818441D02*
X13087393Y-14837488D01*
X13087393Y-14837488D02*
X12992155Y-14856536D01*
X13258822Y-14923203D02*
X13258822Y-14723203D01*
X13258822Y-14913679D02*
X13239774Y-14923203D01*
X13239774Y-14923203D02*
X13201679Y-14923203D01*
X13201679Y-14923203D02*
X13182631Y-14913679D01*
X13182631Y-14913679D02*
X13173108Y-14904155D01*
X13173108Y-14904155D02*
X13163584Y-14885107D01*
X13163584Y-14885107D02*
X13163584Y-14827965D01*
X13163584Y-14827965D02*
X13173108Y-14808917D01*
X13173108Y-14808917D02*
X13182631Y-14799393D01*
X13182631Y-14799393D02*
X13201679Y-14789869D01*
X13201679Y-14789869D02*
X13239774Y-14789869D01*
X13239774Y-14789869D02*
X13258822Y-14799393D01*
X13335012Y-14999393D02*
X13344536Y-14989869D01*
X13344536Y-14989869D02*
X13363584Y-14961298D01*
X13363584Y-14961298D02*
X13373108Y-14942250D01*
X13373108Y-14942250D02*
X13382631Y-14913679D01*
X13382631Y-14913679D02*
X13392155Y-14866060D01*
X13392155Y-14866060D02*
X13392155Y-14827965D01*
X13392155Y-14827965D02*
X13382631Y-14780345D01*
X13382631Y-14780345D02*
X13373108Y-14751774D01*
X13373108Y-14751774D02*
X13363584Y-14732726D01*
X13363584Y-14732726D02*
X13344536Y-14704155D01*
X13344536Y-14704155D02*
X13335012Y-14694631D01*
D12*
X6578997Y-15095719D02*
G75*
G02*
X6488997Y-15095719I-45000J0D01*
G01*
X6488997Y-15095719D02*
G75*
G02*
X6578997Y-15095719I45000J0D01*
G01*
D10*
X6877869Y-14987203D02*
X6896917Y-14987203D01*
X6896917Y-14987203D02*
X6915964Y-14996726D01*
X6915964Y-14996726D02*
X6925488Y-15006250D01*
X6925488Y-15006250D02*
X6935012Y-15025298D01*
X6935012Y-15025298D02*
X6944536Y-15063393D01*
X6944536Y-15063393D02*
X6944536Y-15111012D01*
X6944536Y-15111012D02*
X6935012Y-15149107D01*
X6935012Y-15149107D02*
X6925488Y-15168155D01*
X6925488Y-15168155D02*
X6915964Y-15177679D01*
X6915964Y-15177679D02*
X6896917Y-15187203D01*
X6896917Y-15187203D02*
X6877869Y-15187203D01*
X6877869Y-15187203D02*
X6858821Y-15177679D01*
X6858821Y-15177679D02*
X6849298Y-15168155D01*
X6849298Y-15168155D02*
X6839774Y-15149107D01*
X6839774Y-15149107D02*
X6830250Y-15111012D01*
X6830250Y-15111012D02*
X6830250Y-15063393D01*
X6830250Y-15063393D02*
X6839774Y-15025298D01*
X6839774Y-15025298D02*
X6849298Y-15006250D01*
X6849298Y-15006250D02*
X6858821Y-14996726D01*
X6858821Y-14996726D02*
X6877869Y-14987203D01*
X7030250Y-15168155D02*
X7039774Y-15177679D01*
X7039774Y-15177679D02*
X7030250Y-15187203D01*
X7030250Y-15187203D02*
X7020726Y-15177679D01*
X7020726Y-15177679D02*
X7030250Y-15168155D01*
X7030250Y-15168155D02*
X7030250Y-15187203D01*
X7135012Y-15187203D02*
X7173107Y-15187203D01*
X7173107Y-15187203D02*
X7192155Y-15177679D01*
X7192155Y-15177679D02*
X7201679Y-15168155D01*
X7201679Y-15168155D02*
X7220726Y-15139584D01*
X7220726Y-15139584D02*
X7230250Y-15101488D01*
X7230250Y-15101488D02*
X7230250Y-15025298D01*
X7230250Y-15025298D02*
X7220726Y-15006250D01*
X7220726Y-15006250D02*
X7211202Y-14996726D01*
X7211202Y-14996726D02*
X7192155Y-14987203D01*
X7192155Y-14987203D02*
X7154059Y-14987203D01*
X7154059Y-14987203D02*
X7135012Y-14996726D01*
X7135012Y-14996726D02*
X7125488Y-15006250D01*
X7125488Y-15006250D02*
X7115964Y-15025298D01*
X7115964Y-15025298D02*
X7115964Y-15072917D01*
X7115964Y-15072917D02*
X7125488Y-15091965D01*
X7125488Y-15091965D02*
X7135012Y-15101488D01*
X7135012Y-15101488D02*
X7154059Y-15111012D01*
X7154059Y-15111012D02*
X7192155Y-15111012D01*
X7192155Y-15111012D02*
X7211202Y-15101488D01*
X7211202Y-15101488D02*
X7220726Y-15091965D01*
X7220726Y-15091965D02*
X7230250Y-15072917D01*
X7354059Y-14987203D02*
X7373107Y-14987203D01*
X7373107Y-14987203D02*
X7392155Y-14996726D01*
X7392155Y-14996726D02*
X7401679Y-15006250D01*
X7401679Y-15006250D02*
X7411202Y-15025298D01*
X7411202Y-15025298D02*
X7420726Y-15063393D01*
X7420726Y-15063393D02*
X7420726Y-15111012D01*
X7420726Y-15111012D02*
X7411202Y-15149107D01*
X7411202Y-15149107D02*
X7401679Y-15168155D01*
X7401679Y-15168155D02*
X7392155Y-15177679D01*
X7392155Y-15177679D02*
X7373107Y-15187203D01*
X7373107Y-15187203D02*
X7354059Y-15187203D01*
X7354059Y-15187203D02*
X7335012Y-15177679D01*
X7335012Y-15177679D02*
X7325488Y-15168155D01*
X7325488Y-15168155D02*
X7315964Y-15149107D01*
X7315964Y-15149107D02*
X7306440Y-15111012D01*
X7306440Y-15111012D02*
X7306440Y-15063393D01*
X7306440Y-15063393D02*
X7315964Y-15025298D01*
X7315964Y-15025298D02*
X7325488Y-15006250D01*
X7325488Y-15006250D02*
X7335012Y-14996726D01*
X7335012Y-14996726D02*
X7354059Y-14987203D01*
X7544536Y-14987203D02*
X7563583Y-14987203D01*
X7563583Y-14987203D02*
X7582631Y-14996726D01*
X7582631Y-14996726D02*
X7592155Y-15006250D01*
X7592155Y-15006250D02*
X7601679Y-15025298D01*
X7601679Y-15025298D02*
X7611202Y-15063393D01*
X7611202Y-15063393D02*
X7611202Y-15111012D01*
X7611202Y-15111012D02*
X7601679Y-15149107D01*
X7601679Y-15149107D02*
X7592155Y-15168155D01*
X7592155Y-15168155D02*
X7582631Y-15177679D01*
X7582631Y-15177679D02*
X7563583Y-15187203D01*
X7563583Y-15187203D02*
X7544536Y-15187203D01*
X7544536Y-15187203D02*
X7525488Y-15177679D01*
X7525488Y-15177679D02*
X7515964Y-15168155D01*
X7515964Y-15168155D02*
X7506440Y-15149107D01*
X7506440Y-15149107D02*
X7496917Y-15111012D01*
X7496917Y-15111012D02*
X7496917Y-15063393D01*
X7496917Y-15063393D02*
X7506440Y-15025298D01*
X7506440Y-15025298D02*
X7515964Y-15006250D01*
X7515964Y-15006250D02*
X7525488Y-14996726D01*
X7525488Y-14996726D02*
X7544536Y-14987203D01*
X7696917Y-15187203D02*
X7696917Y-15053869D01*
X7696917Y-15072917D02*
X7706440Y-15063393D01*
X7706440Y-15063393D02*
X7725488Y-15053869D01*
X7725488Y-15053869D02*
X7754060Y-15053869D01*
X7754060Y-15053869D02*
X7773107Y-15063393D01*
X7773107Y-15063393D02*
X7782631Y-15082441D01*
X7782631Y-15082441D02*
X7782631Y-15187203D01*
X7782631Y-15082441D02*
X7792155Y-15063393D01*
X7792155Y-15063393D02*
X7811202Y-15053869D01*
X7811202Y-15053869D02*
X7839774Y-15053869D01*
X7839774Y-15053869D02*
X7858821Y-15063393D01*
X7858821Y-15063393D02*
X7868345Y-15082441D01*
X7868345Y-15082441D02*
X7868345Y-15187203D01*
X7963583Y-15187203D02*
X7963583Y-15053869D01*
X7963583Y-15072917D02*
X7973107Y-15063393D01*
X7973107Y-15063393D02*
X7992155Y-15053869D01*
X7992155Y-15053869D02*
X8020726Y-15053869D01*
X8020726Y-15053869D02*
X8039774Y-15063393D01*
X8039774Y-15063393D02*
X8049298Y-15082441D01*
X8049298Y-15082441D02*
X8049298Y-15187203D01*
X8049298Y-15082441D02*
X8058821Y-15063393D01*
X8058821Y-15063393D02*
X8077869Y-15053869D01*
X8077869Y-15053869D02*
X8106440Y-15053869D01*
X8106440Y-15053869D02*
X8125488Y-15063393D01*
X8125488Y-15063393D02*
X8135012Y-15082441D01*
X8135012Y-15082441D02*
X8135012Y-15187203D01*
X8525488Y-14977679D02*
X8354060Y-15234822D01*
X8782631Y-14987203D02*
X8801679Y-14987203D01*
X8801679Y-14987203D02*
X8820726Y-14996726D01*
X8820726Y-14996726D02*
X8830250Y-15006250D01*
X8830250Y-15006250D02*
X8839774Y-15025298D01*
X8839774Y-15025298D02*
X8849298Y-15063393D01*
X8849298Y-15063393D02*
X8849298Y-15111012D01*
X8849298Y-15111012D02*
X8839774Y-15149107D01*
X8839774Y-15149107D02*
X8830250Y-15168155D01*
X8830250Y-15168155D02*
X8820726Y-15177679D01*
X8820726Y-15177679D02*
X8801679Y-15187203D01*
X8801679Y-15187203D02*
X8782631Y-15187203D01*
X8782631Y-15187203D02*
X8763584Y-15177679D01*
X8763584Y-15177679D02*
X8754060Y-15168155D01*
X8754060Y-15168155D02*
X8744536Y-15149107D01*
X8744536Y-15149107D02*
X8735012Y-15111012D01*
X8735012Y-15111012D02*
X8735012Y-15063393D01*
X8735012Y-15063393D02*
X8744536Y-15025298D01*
X8744536Y-15025298D02*
X8754060Y-15006250D01*
X8754060Y-15006250D02*
X8763584Y-14996726D01*
X8763584Y-14996726D02*
X8782631Y-14987203D01*
X8935012Y-15168155D02*
X8944536Y-15177679D01*
X8944536Y-15177679D02*
X8935012Y-15187203D01*
X8935012Y-15187203D02*
X8925488Y-15177679D01*
X8925488Y-15177679D02*
X8935012Y-15168155D01*
X8935012Y-15168155D02*
X8935012Y-15187203D01*
X9068345Y-14987203D02*
X9087393Y-14987203D01*
X9087393Y-14987203D02*
X9106441Y-14996726D01*
X9106441Y-14996726D02*
X9115965Y-15006250D01*
X9115965Y-15006250D02*
X9125488Y-15025298D01*
X9125488Y-15025298D02*
X9135012Y-15063393D01*
X9135012Y-15063393D02*
X9135012Y-15111012D01*
X9135012Y-15111012D02*
X9125488Y-15149107D01*
X9125488Y-15149107D02*
X9115965Y-15168155D01*
X9115965Y-15168155D02*
X9106441Y-15177679D01*
X9106441Y-15177679D02*
X9087393Y-15187203D01*
X9087393Y-15187203D02*
X9068345Y-15187203D01*
X9068345Y-15187203D02*
X9049298Y-15177679D01*
X9049298Y-15177679D02*
X9039774Y-15168155D01*
X9039774Y-15168155D02*
X9030250Y-15149107D01*
X9030250Y-15149107D02*
X9020726Y-15111012D01*
X9020726Y-15111012D02*
X9020726Y-15063393D01*
X9020726Y-15063393D02*
X9030250Y-15025298D01*
X9030250Y-15025298D02*
X9039774Y-15006250D01*
X9039774Y-15006250D02*
X9049298Y-14996726D01*
X9049298Y-14996726D02*
X9068345Y-14987203D01*
X9201679Y-14987203D02*
X9325488Y-14987203D01*
X9325488Y-14987203D02*
X9258822Y-15063393D01*
X9258822Y-15063393D02*
X9287393Y-15063393D01*
X9287393Y-15063393D02*
X9306441Y-15072917D01*
X9306441Y-15072917D02*
X9315965Y-15082441D01*
X9315965Y-15082441D02*
X9325488Y-15101488D01*
X9325488Y-15101488D02*
X9325488Y-15149107D01*
X9325488Y-15149107D02*
X9315965Y-15168155D01*
X9315965Y-15168155D02*
X9306441Y-15177679D01*
X9306441Y-15177679D02*
X9287393Y-15187203D01*
X9287393Y-15187203D02*
X9230250Y-15187203D01*
X9230250Y-15187203D02*
X9211203Y-15177679D01*
X9211203Y-15177679D02*
X9201679Y-15168155D01*
X9506441Y-14987203D02*
X9411203Y-14987203D01*
X9411203Y-14987203D02*
X9401679Y-15082441D01*
X9401679Y-15082441D02*
X9411203Y-15072917D01*
X9411203Y-15072917D02*
X9430250Y-15063393D01*
X9430250Y-15063393D02*
X9477869Y-15063393D01*
X9477869Y-15063393D02*
X9496917Y-15072917D01*
X9496917Y-15072917D02*
X9506441Y-15082441D01*
X9506441Y-15082441D02*
X9515965Y-15101488D01*
X9515965Y-15101488D02*
X9515965Y-15149107D01*
X9515965Y-15149107D02*
X9506441Y-15168155D01*
X9506441Y-15168155D02*
X9496917Y-15177679D01*
X9496917Y-15177679D02*
X9477869Y-15187203D01*
X9477869Y-15187203D02*
X9430250Y-15187203D01*
X9430250Y-15187203D02*
X9411203Y-15177679D01*
X9411203Y-15177679D02*
X9401679Y-15168155D01*
X9687393Y-15053869D02*
X9687393Y-15187203D01*
X9639774Y-14977679D02*
X9592155Y-15120536D01*
X9592155Y-15120536D02*
X9715965Y-15120536D01*
X9782631Y-14987203D02*
X9782631Y-15025298D01*
X9858822Y-14987203D02*
X9858822Y-15025298D01*
X10154060Y-15263393D02*
X10144536Y-15253869D01*
X10144536Y-15253869D02*
X10125488Y-15225298D01*
X10125488Y-15225298D02*
X10115965Y-15206250D01*
X10115965Y-15206250D02*
X10106441Y-15177679D01*
X10106441Y-15177679D02*
X10096917Y-15130060D01*
X10096917Y-15130060D02*
X10096917Y-15091965D01*
X10096917Y-15091965D02*
X10106441Y-15044345D01*
X10106441Y-15044345D02*
X10115965Y-15015774D01*
X10115965Y-15015774D02*
X10125488Y-14996726D01*
X10125488Y-14996726D02*
X10144536Y-14968155D01*
X10144536Y-14968155D02*
X10154060Y-14958631D01*
X10220727Y-15006250D02*
X10230250Y-14996726D01*
X10230250Y-14996726D02*
X10249298Y-14987203D01*
X10249298Y-14987203D02*
X10296917Y-14987203D01*
X10296917Y-14987203D02*
X10315965Y-14996726D01*
X10315965Y-14996726D02*
X10325488Y-15006250D01*
X10325488Y-15006250D02*
X10335012Y-15025298D01*
X10335012Y-15025298D02*
X10335012Y-15044345D01*
X10335012Y-15044345D02*
X10325488Y-15072917D01*
X10325488Y-15072917D02*
X10211203Y-15187203D01*
X10211203Y-15187203D02*
X10335012Y-15187203D01*
X10573108Y-15187203D02*
X10573108Y-14987203D01*
X10658822Y-15187203D02*
X10658822Y-15082441D01*
X10658822Y-15082441D02*
X10649298Y-15063393D01*
X10649298Y-15063393D02*
X10630250Y-15053869D01*
X10630250Y-15053869D02*
X10601679Y-15053869D01*
X10601679Y-15053869D02*
X10582631Y-15063393D01*
X10582631Y-15063393D02*
X10573108Y-15072917D01*
X10782631Y-15187203D02*
X10763584Y-15177679D01*
X10763584Y-15177679D02*
X10754060Y-15168155D01*
X10754060Y-15168155D02*
X10744536Y-15149107D01*
X10744536Y-15149107D02*
X10744536Y-15091965D01*
X10744536Y-15091965D02*
X10754060Y-15072917D01*
X10754060Y-15072917D02*
X10763584Y-15063393D01*
X10763584Y-15063393D02*
X10782631Y-15053869D01*
X10782631Y-15053869D02*
X10811203Y-15053869D01*
X10811203Y-15053869D02*
X10830250Y-15063393D01*
X10830250Y-15063393D02*
X10839774Y-15072917D01*
X10839774Y-15072917D02*
X10849298Y-15091965D01*
X10849298Y-15091965D02*
X10849298Y-15149107D01*
X10849298Y-15149107D02*
X10839774Y-15168155D01*
X10839774Y-15168155D02*
X10830250Y-15177679D01*
X10830250Y-15177679D02*
X10811203Y-15187203D01*
X10811203Y-15187203D02*
X10782631Y-15187203D01*
X10963584Y-15187203D02*
X10944536Y-15177679D01*
X10944536Y-15177679D02*
X10935012Y-15158631D01*
X10935012Y-15158631D02*
X10935012Y-14987203D01*
X11115965Y-15177679D02*
X11096917Y-15187203D01*
X11096917Y-15187203D02*
X11058822Y-15187203D01*
X11058822Y-15187203D02*
X11039774Y-15177679D01*
X11039774Y-15177679D02*
X11030250Y-15158631D01*
X11030250Y-15158631D02*
X11030250Y-15082441D01*
X11030250Y-15082441D02*
X11039774Y-15063393D01*
X11039774Y-15063393D02*
X11058822Y-15053869D01*
X11058822Y-15053869D02*
X11096917Y-15053869D01*
X11096917Y-15053869D02*
X11115965Y-15063393D01*
X11115965Y-15063393D02*
X11125489Y-15082441D01*
X11125489Y-15082441D02*
X11125489Y-15101488D01*
X11125489Y-15101488D02*
X11030250Y-15120536D01*
X11201679Y-15177679D02*
X11220727Y-15187203D01*
X11220727Y-15187203D02*
X11258822Y-15187203D01*
X11258822Y-15187203D02*
X11277869Y-15177679D01*
X11277869Y-15177679D02*
X11287393Y-15158631D01*
X11287393Y-15158631D02*
X11287393Y-15149107D01*
X11287393Y-15149107D02*
X11277869Y-15130060D01*
X11277869Y-15130060D02*
X11258822Y-15120536D01*
X11258822Y-15120536D02*
X11230250Y-15120536D01*
X11230250Y-15120536D02*
X11211203Y-15111012D01*
X11211203Y-15111012D02*
X11201679Y-15091965D01*
X11201679Y-15091965D02*
X11201679Y-15082441D01*
X11201679Y-15082441D02*
X11211203Y-15063393D01*
X11211203Y-15063393D02*
X11230250Y-15053869D01*
X11230250Y-15053869D02*
X11258822Y-15053869D01*
X11258822Y-15053869D02*
X11277869Y-15063393D01*
X11354060Y-15263393D02*
X11363584Y-15253869D01*
X11363584Y-15253869D02*
X11382631Y-15225298D01*
X11382631Y-15225298D02*
X11392155Y-15206250D01*
X11392155Y-15206250D02*
X11401679Y-15177679D01*
X11401679Y-15177679D02*
X11411203Y-15130060D01*
X11411203Y-15130060D02*
X11411203Y-15091965D01*
X11411203Y-15091965D02*
X11401679Y-15044345D01*
X11401679Y-15044345D02*
X11392155Y-15015774D01*
X11392155Y-15015774D02*
X11382631Y-14996726D01*
X11382631Y-14996726D02*
X11363584Y-14968155D01*
X11363584Y-14968155D02*
X11354060Y-14958631D01*
X11715965Y-15263393D02*
X11706441Y-15253869D01*
X11706441Y-15253869D02*
X11687393Y-15225298D01*
X11687393Y-15225298D02*
X11677869Y-15206250D01*
X11677869Y-15206250D02*
X11668346Y-15177679D01*
X11668346Y-15177679D02*
X11658822Y-15130060D01*
X11658822Y-15130060D02*
X11658822Y-15091965D01*
X11658822Y-15091965D02*
X11668346Y-15044345D01*
X11668346Y-15044345D02*
X11677869Y-15015774D01*
X11677869Y-15015774D02*
X11687393Y-14996726D01*
X11687393Y-14996726D02*
X11706441Y-14968155D01*
X11706441Y-14968155D02*
X11715965Y-14958631D01*
X11792155Y-15053869D02*
X11792155Y-15187203D01*
X11792155Y-15072917D02*
X11801679Y-15063393D01*
X11801679Y-15063393D02*
X11820727Y-15053869D01*
X11820727Y-15053869D02*
X11849298Y-15053869D01*
X11849298Y-15053869D02*
X11868346Y-15063393D01*
X11868346Y-15063393D02*
X11877869Y-15082441D01*
X11877869Y-15082441D02*
X11877869Y-15187203D01*
X12001679Y-15187203D02*
X11982631Y-15177679D01*
X11982631Y-15177679D02*
X11973108Y-15168155D01*
X11973108Y-15168155D02*
X11963584Y-15149107D01*
X11963584Y-15149107D02*
X11963584Y-15091965D01*
X11963584Y-15091965D02*
X11973108Y-15072917D01*
X11973108Y-15072917D02*
X11982631Y-15063393D01*
X11982631Y-15063393D02*
X12001679Y-15053869D01*
X12001679Y-15053869D02*
X12030250Y-15053869D01*
X12030250Y-15053869D02*
X12049298Y-15063393D01*
X12049298Y-15063393D02*
X12058822Y-15072917D01*
X12058822Y-15072917D02*
X12068346Y-15091965D01*
X12068346Y-15091965D02*
X12068346Y-15149107D01*
X12068346Y-15149107D02*
X12058822Y-15168155D01*
X12058822Y-15168155D02*
X12049298Y-15177679D01*
X12049298Y-15177679D02*
X12030250Y-15187203D01*
X12030250Y-15187203D02*
X12001679Y-15187203D01*
X12125489Y-15053869D02*
X12201679Y-15053869D01*
X12154060Y-14987203D02*
X12154060Y-15158631D01*
X12154060Y-15158631D02*
X12163584Y-15177679D01*
X12163584Y-15177679D02*
X12182631Y-15187203D01*
X12182631Y-15187203D02*
X12201679Y-15187203D01*
X12420727Y-15053869D02*
X12420727Y-15253869D01*
X12420727Y-15063393D02*
X12439774Y-15053869D01*
X12439774Y-15053869D02*
X12477870Y-15053869D01*
X12477870Y-15053869D02*
X12496917Y-15063393D01*
X12496917Y-15063393D02*
X12506441Y-15072917D01*
X12506441Y-15072917D02*
X12515965Y-15091965D01*
X12515965Y-15091965D02*
X12515965Y-15149107D01*
X12515965Y-15149107D02*
X12506441Y-15168155D01*
X12506441Y-15168155D02*
X12496917Y-15177679D01*
X12496917Y-15177679D02*
X12477870Y-15187203D01*
X12477870Y-15187203D02*
X12439774Y-15187203D01*
X12439774Y-15187203D02*
X12420727Y-15177679D01*
X12630250Y-15187203D02*
X12611203Y-15177679D01*
X12611203Y-15177679D02*
X12601679Y-15158631D01*
X12601679Y-15158631D02*
X12601679Y-14987203D01*
X12792155Y-15187203D02*
X12792155Y-15082441D01*
X12792155Y-15082441D02*
X12782631Y-15063393D01*
X12782631Y-15063393D02*
X12763584Y-15053869D01*
X12763584Y-15053869D02*
X12725489Y-15053869D01*
X12725489Y-15053869D02*
X12706441Y-15063393D01*
X12792155Y-15177679D02*
X12773108Y-15187203D01*
X12773108Y-15187203D02*
X12725489Y-15187203D01*
X12725489Y-15187203D02*
X12706441Y-15177679D01*
X12706441Y-15177679D02*
X12696917Y-15158631D01*
X12696917Y-15158631D02*
X12696917Y-15139584D01*
X12696917Y-15139584D02*
X12706441Y-15120536D01*
X12706441Y-15120536D02*
X12725489Y-15111012D01*
X12725489Y-15111012D02*
X12773108Y-15111012D01*
X12773108Y-15111012D02*
X12792155Y-15101488D01*
X12858822Y-15053869D02*
X12935012Y-15053869D01*
X12887393Y-14987203D02*
X12887393Y-15158631D01*
X12887393Y-15158631D02*
X12896917Y-15177679D01*
X12896917Y-15177679D02*
X12915965Y-15187203D01*
X12915965Y-15187203D02*
X12935012Y-15187203D01*
X13077870Y-15177679D02*
X13058822Y-15187203D01*
X13058822Y-15187203D02*
X13020727Y-15187203D01*
X13020727Y-15187203D02*
X13001679Y-15177679D01*
X13001679Y-15177679D02*
X12992155Y-15158631D01*
X12992155Y-15158631D02*
X12992155Y-15082441D01*
X12992155Y-15082441D02*
X13001679Y-15063393D01*
X13001679Y-15063393D02*
X13020727Y-15053869D01*
X13020727Y-15053869D02*
X13058822Y-15053869D01*
X13058822Y-15053869D02*
X13077870Y-15063393D01*
X13077870Y-15063393D02*
X13087393Y-15082441D01*
X13087393Y-15082441D02*
X13087393Y-15101488D01*
X13087393Y-15101488D02*
X12992155Y-15120536D01*
X13258822Y-15187203D02*
X13258822Y-14987203D01*
X13258822Y-15177679D02*
X13239774Y-15187203D01*
X13239774Y-15187203D02*
X13201679Y-15187203D01*
X13201679Y-15187203D02*
X13182631Y-15177679D01*
X13182631Y-15177679D02*
X13173108Y-15168155D01*
X13173108Y-15168155D02*
X13163584Y-15149107D01*
X13163584Y-15149107D02*
X13163584Y-15091965D01*
X13163584Y-15091965D02*
X13173108Y-15072917D01*
X13173108Y-15072917D02*
X13182631Y-15063393D01*
X13182631Y-15063393D02*
X13201679Y-15053869D01*
X13201679Y-15053869D02*
X13239774Y-15053869D01*
X13239774Y-15053869D02*
X13258822Y-15063393D01*
X13335012Y-15263393D02*
X13344536Y-15253869D01*
X13344536Y-15253869D02*
X13363584Y-15225298D01*
X13363584Y-15225298D02*
X13373108Y-15206250D01*
X13373108Y-15206250D02*
X13382631Y-15177679D01*
X13382631Y-15177679D02*
X13392155Y-15130060D01*
X13392155Y-15130060D02*
X13392155Y-15091965D01*
X13392155Y-15091965D02*
X13382631Y-15044345D01*
X13382631Y-15044345D02*
X13373108Y-15015774D01*
X13373108Y-15015774D02*
X13363584Y-14996726D01*
X13363584Y-14996726D02*
X13344536Y-14968155D01*
X13344536Y-14968155D02*
X13335012Y-14958631D01*
X6478997Y-15259719D02*
X6478997Y-15459719D01*
X6378997Y-15359719D02*
X6578997Y-15359719D01*
X6820726Y-15251203D02*
X6944536Y-15251203D01*
X6944536Y-15251203D02*
X6877869Y-15327393D01*
X6877869Y-15327393D02*
X6906440Y-15327393D01*
X6906440Y-15327393D02*
X6925488Y-15336917D01*
X6925488Y-15336917D02*
X6935012Y-15346441D01*
X6935012Y-15346441D02*
X6944536Y-15365488D01*
X6944536Y-15365488D02*
X6944536Y-15413107D01*
X6944536Y-15413107D02*
X6935012Y-15432155D01*
X6935012Y-15432155D02*
X6925488Y-15441679D01*
X6925488Y-15441679D02*
X6906440Y-15451203D01*
X6906440Y-15451203D02*
X6849298Y-15451203D01*
X6849298Y-15451203D02*
X6830250Y-15441679D01*
X6830250Y-15441679D02*
X6820726Y-15432155D01*
X7030250Y-15432155D02*
X7039774Y-15441679D01*
X7039774Y-15441679D02*
X7030250Y-15451203D01*
X7030250Y-15451203D02*
X7020726Y-15441679D01*
X7020726Y-15441679D02*
X7030250Y-15432155D01*
X7030250Y-15432155D02*
X7030250Y-15451203D01*
X7106440Y-15251203D02*
X7230250Y-15251203D01*
X7230250Y-15251203D02*
X7163583Y-15327393D01*
X7163583Y-15327393D02*
X7192155Y-15327393D01*
X7192155Y-15327393D02*
X7211202Y-15336917D01*
X7211202Y-15336917D02*
X7220726Y-15346441D01*
X7220726Y-15346441D02*
X7230250Y-15365488D01*
X7230250Y-15365488D02*
X7230250Y-15413107D01*
X7230250Y-15413107D02*
X7220726Y-15432155D01*
X7220726Y-15432155D02*
X7211202Y-15441679D01*
X7211202Y-15441679D02*
X7192155Y-15451203D01*
X7192155Y-15451203D02*
X7135012Y-15451203D01*
X7135012Y-15451203D02*
X7115964Y-15441679D01*
X7115964Y-15441679D02*
X7106440Y-15432155D01*
X7354059Y-15251203D02*
X7373107Y-15251203D01*
X7373107Y-15251203D02*
X7392155Y-15260726D01*
X7392155Y-15260726D02*
X7401679Y-15270250D01*
X7401679Y-15270250D02*
X7411202Y-15289298D01*
X7411202Y-15289298D02*
X7420726Y-15327393D01*
X7420726Y-15327393D02*
X7420726Y-15375012D01*
X7420726Y-15375012D02*
X7411202Y-15413107D01*
X7411202Y-15413107D02*
X7401679Y-15432155D01*
X7401679Y-15432155D02*
X7392155Y-15441679D01*
X7392155Y-15441679D02*
X7373107Y-15451203D01*
X7373107Y-15451203D02*
X7354059Y-15451203D01*
X7354059Y-15451203D02*
X7335012Y-15441679D01*
X7335012Y-15441679D02*
X7325488Y-15432155D01*
X7325488Y-15432155D02*
X7315964Y-15413107D01*
X7315964Y-15413107D02*
X7306440Y-15375012D01*
X7306440Y-15375012D02*
X7306440Y-15327393D01*
X7306440Y-15327393D02*
X7315964Y-15289298D01*
X7315964Y-15289298D02*
X7325488Y-15270250D01*
X7325488Y-15270250D02*
X7335012Y-15260726D01*
X7335012Y-15260726D02*
X7354059Y-15251203D01*
X7544536Y-15251203D02*
X7563583Y-15251203D01*
X7563583Y-15251203D02*
X7582631Y-15260726D01*
X7582631Y-15260726D02*
X7592155Y-15270250D01*
X7592155Y-15270250D02*
X7601679Y-15289298D01*
X7601679Y-15289298D02*
X7611202Y-15327393D01*
X7611202Y-15327393D02*
X7611202Y-15375012D01*
X7611202Y-15375012D02*
X7601679Y-15413107D01*
X7601679Y-15413107D02*
X7592155Y-15432155D01*
X7592155Y-15432155D02*
X7582631Y-15441679D01*
X7582631Y-15441679D02*
X7563583Y-15451203D01*
X7563583Y-15451203D02*
X7544536Y-15451203D01*
X7544536Y-15451203D02*
X7525488Y-15441679D01*
X7525488Y-15441679D02*
X7515964Y-15432155D01*
X7515964Y-15432155D02*
X7506440Y-15413107D01*
X7506440Y-15413107D02*
X7496917Y-15375012D01*
X7496917Y-15375012D02*
X7496917Y-15327393D01*
X7496917Y-15327393D02*
X7506440Y-15289298D01*
X7506440Y-15289298D02*
X7515964Y-15270250D01*
X7515964Y-15270250D02*
X7525488Y-15260726D01*
X7525488Y-15260726D02*
X7544536Y-15251203D01*
X7696917Y-15451203D02*
X7696917Y-15317869D01*
X7696917Y-15336917D02*
X7706440Y-15327393D01*
X7706440Y-15327393D02*
X7725488Y-15317869D01*
X7725488Y-15317869D02*
X7754060Y-15317869D01*
X7754060Y-15317869D02*
X7773107Y-15327393D01*
X7773107Y-15327393D02*
X7782631Y-15346441D01*
X7782631Y-15346441D02*
X7782631Y-15451203D01*
X7782631Y-15346441D02*
X7792155Y-15327393D01*
X7792155Y-15327393D02*
X7811202Y-15317869D01*
X7811202Y-15317869D02*
X7839774Y-15317869D01*
X7839774Y-15317869D02*
X7858821Y-15327393D01*
X7858821Y-15327393D02*
X7868345Y-15346441D01*
X7868345Y-15346441D02*
X7868345Y-15451203D01*
X7963583Y-15451203D02*
X7963583Y-15317869D01*
X7963583Y-15336917D02*
X7973107Y-15327393D01*
X7973107Y-15327393D02*
X7992155Y-15317869D01*
X7992155Y-15317869D02*
X8020726Y-15317869D01*
X8020726Y-15317869D02*
X8039774Y-15327393D01*
X8039774Y-15327393D02*
X8049298Y-15346441D01*
X8049298Y-15346441D02*
X8049298Y-15451203D01*
X8049298Y-15346441D02*
X8058821Y-15327393D01*
X8058821Y-15327393D02*
X8077869Y-15317869D01*
X8077869Y-15317869D02*
X8106440Y-15317869D01*
X8106440Y-15317869D02*
X8125488Y-15327393D01*
X8125488Y-15327393D02*
X8135012Y-15346441D01*
X8135012Y-15346441D02*
X8135012Y-15451203D01*
X8525488Y-15241679D02*
X8354060Y-15498822D01*
X8782631Y-15251203D02*
X8801679Y-15251203D01*
X8801679Y-15251203D02*
X8820726Y-15260726D01*
X8820726Y-15260726D02*
X8830250Y-15270250D01*
X8830250Y-15270250D02*
X8839774Y-15289298D01*
X8839774Y-15289298D02*
X8849298Y-15327393D01*
X8849298Y-15327393D02*
X8849298Y-15375012D01*
X8849298Y-15375012D02*
X8839774Y-15413107D01*
X8839774Y-15413107D02*
X8830250Y-15432155D01*
X8830250Y-15432155D02*
X8820726Y-15441679D01*
X8820726Y-15441679D02*
X8801679Y-15451203D01*
X8801679Y-15451203D02*
X8782631Y-15451203D01*
X8782631Y-15451203D02*
X8763584Y-15441679D01*
X8763584Y-15441679D02*
X8754060Y-15432155D01*
X8754060Y-15432155D02*
X8744536Y-15413107D01*
X8744536Y-15413107D02*
X8735012Y-15375012D01*
X8735012Y-15375012D02*
X8735012Y-15327393D01*
X8735012Y-15327393D02*
X8744536Y-15289298D01*
X8744536Y-15289298D02*
X8754060Y-15270250D01*
X8754060Y-15270250D02*
X8763584Y-15260726D01*
X8763584Y-15260726D02*
X8782631Y-15251203D01*
X8935012Y-15432155D02*
X8944536Y-15441679D01*
X8944536Y-15441679D02*
X8935012Y-15451203D01*
X8935012Y-15451203D02*
X8925488Y-15441679D01*
X8925488Y-15441679D02*
X8935012Y-15432155D01*
X8935012Y-15432155D02*
X8935012Y-15451203D01*
X9135012Y-15451203D02*
X9020726Y-15451203D01*
X9077869Y-15451203D02*
X9077869Y-15251203D01*
X9077869Y-15251203D02*
X9058822Y-15279774D01*
X9058822Y-15279774D02*
X9039774Y-15298822D01*
X9039774Y-15298822D02*
X9020726Y-15308345D01*
X9211203Y-15270250D02*
X9220726Y-15260726D01*
X9220726Y-15260726D02*
X9239774Y-15251203D01*
X9239774Y-15251203D02*
X9287393Y-15251203D01*
X9287393Y-15251203D02*
X9306441Y-15260726D01*
X9306441Y-15260726D02*
X9315965Y-15270250D01*
X9315965Y-15270250D02*
X9325488Y-15289298D01*
X9325488Y-15289298D02*
X9325488Y-15308345D01*
X9325488Y-15308345D02*
X9315965Y-15336917D01*
X9315965Y-15336917D02*
X9201679Y-15451203D01*
X9201679Y-15451203D02*
X9325488Y-15451203D01*
X9420726Y-15451203D02*
X9458822Y-15451203D01*
X9458822Y-15451203D02*
X9477869Y-15441679D01*
X9477869Y-15441679D02*
X9487393Y-15432155D01*
X9487393Y-15432155D02*
X9506441Y-15403584D01*
X9506441Y-15403584D02*
X9515965Y-15365488D01*
X9515965Y-15365488D02*
X9515965Y-15289298D01*
X9515965Y-15289298D02*
X9506441Y-15270250D01*
X9506441Y-15270250D02*
X9496917Y-15260726D01*
X9496917Y-15260726D02*
X9477869Y-15251203D01*
X9477869Y-15251203D02*
X9439774Y-15251203D01*
X9439774Y-15251203D02*
X9420726Y-15260726D01*
X9420726Y-15260726D02*
X9411203Y-15270250D01*
X9411203Y-15270250D02*
X9401679Y-15289298D01*
X9401679Y-15289298D02*
X9401679Y-15336917D01*
X9401679Y-15336917D02*
X9411203Y-15355965D01*
X9411203Y-15355965D02*
X9420726Y-15365488D01*
X9420726Y-15365488D02*
X9439774Y-15375012D01*
X9439774Y-15375012D02*
X9477869Y-15375012D01*
X9477869Y-15375012D02*
X9496917Y-15365488D01*
X9496917Y-15365488D02*
X9506441Y-15355965D01*
X9506441Y-15355965D02*
X9515965Y-15336917D01*
X9611203Y-15451203D02*
X9649298Y-15451203D01*
X9649298Y-15451203D02*
X9668346Y-15441679D01*
X9668346Y-15441679D02*
X9677869Y-15432155D01*
X9677869Y-15432155D02*
X9696917Y-15403584D01*
X9696917Y-15403584D02*
X9706441Y-15365488D01*
X9706441Y-15365488D02*
X9706441Y-15289298D01*
X9706441Y-15289298D02*
X9696917Y-15270250D01*
X9696917Y-15270250D02*
X9687393Y-15260726D01*
X9687393Y-15260726D02*
X9668346Y-15251203D01*
X9668346Y-15251203D02*
X9630250Y-15251203D01*
X9630250Y-15251203D02*
X9611203Y-15260726D01*
X9611203Y-15260726D02*
X9601679Y-15270250D01*
X9601679Y-15270250D02*
X9592155Y-15289298D01*
X9592155Y-15289298D02*
X9592155Y-15336917D01*
X9592155Y-15336917D02*
X9601679Y-15355965D01*
X9601679Y-15355965D02*
X9611203Y-15365488D01*
X9611203Y-15365488D02*
X9630250Y-15375012D01*
X9630250Y-15375012D02*
X9668346Y-15375012D01*
X9668346Y-15375012D02*
X9687393Y-15365488D01*
X9687393Y-15365488D02*
X9696917Y-15355965D01*
X9696917Y-15355965D02*
X9706441Y-15336917D01*
X9782631Y-15251203D02*
X9782631Y-15289298D01*
X9858822Y-15251203D02*
X9858822Y-15289298D01*
X10154060Y-15527393D02*
X10144536Y-15517869D01*
X10144536Y-15517869D02*
X10125488Y-15489298D01*
X10125488Y-15489298D02*
X10115965Y-15470250D01*
X10115965Y-15470250D02*
X10106441Y-15441679D01*
X10106441Y-15441679D02*
X10096917Y-15394060D01*
X10096917Y-15394060D02*
X10096917Y-15355965D01*
X10096917Y-15355965D02*
X10106441Y-15308345D01*
X10106441Y-15308345D02*
X10115965Y-15279774D01*
X10115965Y-15279774D02*
X10125488Y-15260726D01*
X10125488Y-15260726D02*
X10144536Y-15232155D01*
X10144536Y-15232155D02*
X10154060Y-15222631D01*
X10220727Y-15270250D02*
X10230250Y-15260726D01*
X10230250Y-15260726D02*
X10249298Y-15251203D01*
X10249298Y-15251203D02*
X10296917Y-15251203D01*
X10296917Y-15251203D02*
X10315965Y-15260726D01*
X10315965Y-15260726D02*
X10325488Y-15270250D01*
X10325488Y-15270250D02*
X10335012Y-15289298D01*
X10335012Y-15289298D02*
X10335012Y-15308345D01*
X10335012Y-15308345D02*
X10325488Y-15336917D01*
X10325488Y-15336917D02*
X10211203Y-15451203D01*
X10211203Y-15451203D02*
X10335012Y-15451203D01*
X10573108Y-15451203D02*
X10573108Y-15251203D01*
X10658822Y-15451203D02*
X10658822Y-15346441D01*
X10658822Y-15346441D02*
X10649298Y-15327393D01*
X10649298Y-15327393D02*
X10630250Y-15317869D01*
X10630250Y-15317869D02*
X10601679Y-15317869D01*
X10601679Y-15317869D02*
X10582631Y-15327393D01*
X10582631Y-15327393D02*
X10573108Y-15336917D01*
X10782631Y-15451203D02*
X10763584Y-15441679D01*
X10763584Y-15441679D02*
X10754060Y-15432155D01*
X10754060Y-15432155D02*
X10744536Y-15413107D01*
X10744536Y-15413107D02*
X10744536Y-15355965D01*
X10744536Y-15355965D02*
X10754060Y-15336917D01*
X10754060Y-15336917D02*
X10763584Y-15327393D01*
X10763584Y-15327393D02*
X10782631Y-15317869D01*
X10782631Y-15317869D02*
X10811203Y-15317869D01*
X10811203Y-15317869D02*
X10830250Y-15327393D01*
X10830250Y-15327393D02*
X10839774Y-15336917D01*
X10839774Y-15336917D02*
X10849298Y-15355965D01*
X10849298Y-15355965D02*
X10849298Y-15413107D01*
X10849298Y-15413107D02*
X10839774Y-15432155D01*
X10839774Y-15432155D02*
X10830250Y-15441679D01*
X10830250Y-15441679D02*
X10811203Y-15451203D01*
X10811203Y-15451203D02*
X10782631Y-15451203D01*
X10963584Y-15451203D02*
X10944536Y-15441679D01*
X10944536Y-15441679D02*
X10935012Y-15422631D01*
X10935012Y-15422631D02*
X10935012Y-15251203D01*
X11115965Y-15441679D02*
X11096917Y-15451203D01*
X11096917Y-15451203D02*
X11058822Y-15451203D01*
X11058822Y-15451203D02*
X11039774Y-15441679D01*
X11039774Y-15441679D02*
X11030250Y-15422631D01*
X11030250Y-15422631D02*
X11030250Y-15346441D01*
X11030250Y-15346441D02*
X11039774Y-15327393D01*
X11039774Y-15327393D02*
X11058822Y-15317869D01*
X11058822Y-15317869D02*
X11096917Y-15317869D01*
X11096917Y-15317869D02*
X11115965Y-15327393D01*
X11115965Y-15327393D02*
X11125489Y-15346441D01*
X11125489Y-15346441D02*
X11125489Y-15365488D01*
X11125489Y-15365488D02*
X11030250Y-15384536D01*
X11201679Y-15441679D02*
X11220727Y-15451203D01*
X11220727Y-15451203D02*
X11258822Y-15451203D01*
X11258822Y-15451203D02*
X11277869Y-15441679D01*
X11277869Y-15441679D02*
X11287393Y-15422631D01*
X11287393Y-15422631D02*
X11287393Y-15413107D01*
X11287393Y-15413107D02*
X11277869Y-15394060D01*
X11277869Y-15394060D02*
X11258822Y-15384536D01*
X11258822Y-15384536D02*
X11230250Y-15384536D01*
X11230250Y-15384536D02*
X11211203Y-15375012D01*
X11211203Y-15375012D02*
X11201679Y-15355965D01*
X11201679Y-15355965D02*
X11201679Y-15346441D01*
X11201679Y-15346441D02*
X11211203Y-15327393D01*
X11211203Y-15327393D02*
X11230250Y-15317869D01*
X11230250Y-15317869D02*
X11258822Y-15317869D01*
X11258822Y-15317869D02*
X11277869Y-15327393D01*
X11354060Y-15527393D02*
X11363584Y-15517869D01*
X11363584Y-15517869D02*
X11382631Y-15489298D01*
X11382631Y-15489298D02*
X11392155Y-15470250D01*
X11392155Y-15470250D02*
X11401679Y-15441679D01*
X11401679Y-15441679D02*
X11411203Y-15394060D01*
X11411203Y-15394060D02*
X11411203Y-15355965D01*
X11411203Y-15355965D02*
X11401679Y-15308345D01*
X11401679Y-15308345D02*
X11392155Y-15279774D01*
X11392155Y-15279774D02*
X11382631Y-15260726D01*
X11382631Y-15260726D02*
X11363584Y-15232155D01*
X11363584Y-15232155D02*
X11354060Y-15222631D01*
X11715965Y-15527393D02*
X11706441Y-15517869D01*
X11706441Y-15517869D02*
X11687393Y-15489298D01*
X11687393Y-15489298D02*
X11677869Y-15470250D01*
X11677869Y-15470250D02*
X11668346Y-15441679D01*
X11668346Y-15441679D02*
X11658822Y-15394060D01*
X11658822Y-15394060D02*
X11658822Y-15355965D01*
X11658822Y-15355965D02*
X11668346Y-15308345D01*
X11668346Y-15308345D02*
X11677869Y-15279774D01*
X11677869Y-15279774D02*
X11687393Y-15260726D01*
X11687393Y-15260726D02*
X11706441Y-15232155D01*
X11706441Y-15232155D02*
X11715965Y-15222631D01*
X11792155Y-15317869D02*
X11792155Y-15451203D01*
X11792155Y-15336917D02*
X11801679Y-15327393D01*
X11801679Y-15327393D02*
X11820727Y-15317869D01*
X11820727Y-15317869D02*
X11849298Y-15317869D01*
X11849298Y-15317869D02*
X11868346Y-15327393D01*
X11868346Y-15327393D02*
X11877869Y-15346441D01*
X11877869Y-15346441D02*
X11877869Y-15451203D01*
X12001679Y-15451203D02*
X11982631Y-15441679D01*
X11982631Y-15441679D02*
X11973108Y-15432155D01*
X11973108Y-15432155D02*
X11963584Y-15413107D01*
X11963584Y-15413107D02*
X11963584Y-15355965D01*
X11963584Y-15355965D02*
X11973108Y-15336917D01*
X11973108Y-15336917D02*
X11982631Y-15327393D01*
X11982631Y-15327393D02*
X12001679Y-15317869D01*
X12001679Y-15317869D02*
X12030250Y-15317869D01*
X12030250Y-15317869D02*
X12049298Y-15327393D01*
X12049298Y-15327393D02*
X12058822Y-15336917D01*
X12058822Y-15336917D02*
X12068346Y-15355965D01*
X12068346Y-15355965D02*
X12068346Y-15413107D01*
X12068346Y-15413107D02*
X12058822Y-15432155D01*
X12058822Y-15432155D02*
X12049298Y-15441679D01*
X12049298Y-15441679D02*
X12030250Y-15451203D01*
X12030250Y-15451203D02*
X12001679Y-15451203D01*
X12125489Y-15317869D02*
X12201679Y-15317869D01*
X12154060Y-15251203D02*
X12154060Y-15422631D01*
X12154060Y-15422631D02*
X12163584Y-15441679D01*
X12163584Y-15441679D02*
X12182631Y-15451203D01*
X12182631Y-15451203D02*
X12201679Y-15451203D01*
X12420727Y-15317869D02*
X12420727Y-15517869D01*
X12420727Y-15327393D02*
X12439774Y-15317869D01*
X12439774Y-15317869D02*
X12477870Y-15317869D01*
X12477870Y-15317869D02*
X12496917Y-15327393D01*
X12496917Y-15327393D02*
X12506441Y-15336917D01*
X12506441Y-15336917D02*
X12515965Y-15355965D01*
X12515965Y-15355965D02*
X12515965Y-15413107D01*
X12515965Y-15413107D02*
X12506441Y-15432155D01*
X12506441Y-15432155D02*
X12496917Y-15441679D01*
X12496917Y-15441679D02*
X12477870Y-15451203D01*
X12477870Y-15451203D02*
X12439774Y-15451203D01*
X12439774Y-15451203D02*
X12420727Y-15441679D01*
X12630250Y-15451203D02*
X12611203Y-15441679D01*
X12611203Y-15441679D02*
X12601679Y-15422631D01*
X12601679Y-15422631D02*
X12601679Y-15251203D01*
X12792155Y-15451203D02*
X12792155Y-15346441D01*
X12792155Y-15346441D02*
X12782631Y-15327393D01*
X12782631Y-15327393D02*
X12763584Y-15317869D01*
X12763584Y-15317869D02*
X12725489Y-15317869D01*
X12725489Y-15317869D02*
X12706441Y-15327393D01*
X12792155Y-15441679D02*
X12773108Y-15451203D01*
X12773108Y-15451203D02*
X12725489Y-15451203D01*
X12725489Y-15451203D02*
X12706441Y-15441679D01*
X12706441Y-15441679D02*
X12696917Y-15422631D01*
X12696917Y-15422631D02*
X12696917Y-15403584D01*
X12696917Y-15403584D02*
X12706441Y-15384536D01*
X12706441Y-15384536D02*
X12725489Y-15375012D01*
X12725489Y-15375012D02*
X12773108Y-15375012D01*
X12773108Y-15375012D02*
X12792155Y-15365488D01*
X12858822Y-15317869D02*
X12935012Y-15317869D01*
X12887393Y-15251203D02*
X12887393Y-15422631D01*
X12887393Y-15422631D02*
X12896917Y-15441679D01*
X12896917Y-15441679D02*
X12915965Y-15451203D01*
X12915965Y-15451203D02*
X12935012Y-15451203D01*
X13077870Y-15441679D02*
X13058822Y-15451203D01*
X13058822Y-15451203D02*
X13020727Y-15451203D01*
X13020727Y-15451203D02*
X13001679Y-15441679D01*
X13001679Y-15441679D02*
X12992155Y-15422631D01*
X12992155Y-15422631D02*
X12992155Y-15346441D01*
X12992155Y-15346441D02*
X13001679Y-15327393D01*
X13001679Y-15327393D02*
X13020727Y-15317869D01*
X13020727Y-15317869D02*
X13058822Y-15317869D01*
X13058822Y-15317869D02*
X13077870Y-15327393D01*
X13077870Y-15327393D02*
X13087393Y-15346441D01*
X13087393Y-15346441D02*
X13087393Y-15365488D01*
X13087393Y-15365488D02*
X12992155Y-15384536D01*
X13258822Y-15451203D02*
X13258822Y-15251203D01*
X13258822Y-15441679D02*
X13239774Y-15451203D01*
X13239774Y-15451203D02*
X13201679Y-15451203D01*
X13201679Y-15451203D02*
X13182631Y-15441679D01*
X13182631Y-15441679D02*
X13173108Y-15432155D01*
X13173108Y-15432155D02*
X13163584Y-15413107D01*
X13163584Y-15413107D02*
X13163584Y-15355965D01*
X13163584Y-15355965D02*
X13173108Y-15336917D01*
X13173108Y-15336917D02*
X13182631Y-15327393D01*
X13182631Y-15327393D02*
X13201679Y-15317869D01*
X13201679Y-15317869D02*
X13239774Y-15317869D01*
X13239774Y-15317869D02*
X13258822Y-15327393D01*
X13335012Y-15527393D02*
X13344536Y-15517869D01*
X13344536Y-15517869D02*
X13363584Y-15489298D01*
X13363584Y-15489298D02*
X13373108Y-15470250D01*
X13373108Y-15470250D02*
X13382631Y-15441679D01*
X13382631Y-15441679D02*
X13392155Y-15394060D01*
X13392155Y-15394060D02*
X13392155Y-15355965D01*
X13392155Y-15355965D02*
X13382631Y-15308345D01*
X13382631Y-15308345D02*
X13373108Y-15279774D01*
X13373108Y-15279774D02*
X13363584Y-15260726D01*
X13363584Y-15260726D02*
X13344536Y-15232155D01*
X13344536Y-15232155D02*
X13335012Y-15222631D01*
M02*
