G04 #@! TF.GenerationSoftware,KiCad,Pcbnew,8.0.1*
G04 #@! TF.CreationDate,2024-07-30T22:51:40-07:00*
G04 #@! TF.ProjectId,2024_def_con_badge_v1,32303234-5f64-4656-965f-636f6e5f6261,rev?*
G04 #@! TF.SameCoordinates,Original*
G04 #@! TF.FileFunction,Paste,Bot*
G04 #@! TF.FilePolarity,Positive*
%FSLAX46Y46*%
G04 Gerber Fmt 4.6, Leading zero omitted, Abs format (unit mm)*
G04 Created by KiCad (PCBNEW 8.0.1) date 2024-07-30 22:51:40*
%MOMM*%
%LPD*%
G01*
G04 APERTURE LIST*
G04 Aperture macros list*
%AMRoundRect*
0 Rectangle with rounded corners*
0 $1 Rounding radius*
0 $2 $3 $4 $5 $6 $7 $8 $9 X,Y pos of 4 corners*
0 Add a 4 corners polygon primitive as box body*
4,1,4,$2,$3,$4,$5,$6,$7,$8,$9,$2,$3,0*
0 Add four circle primitives for the rounded corners*
1,1,$1+$1,$2,$3*
1,1,$1+$1,$4,$5*
1,1,$1+$1,$6,$7*
1,1,$1+$1,$8,$9*
0 Add four rect primitives between the rounded corners*
20,1,$1+$1,$2,$3,$4,$5,0*
20,1,$1+$1,$4,$5,$6,$7,0*
20,1,$1+$1,$6,$7,$8,$9,0*
20,1,$1+$1,$8,$9,$2,$3,0*%
%AMRotRect*
0 Rectangle, with rotation*
0 The origin of the aperture is its center*
0 $1 length*
0 $2 width*
0 $3 Rotation angle, in degrees counterclockwise*
0 Add horizontal line*
21,1,$1,$2,0,0,$3*%
G04 Aperture macros list end*
%ADD10RoundRect,0.237500X-0.250000X-0.237500X0.250000X-0.237500X0.250000X0.237500X-0.250000X0.237500X0*%
%ADD11RoundRect,0.250000X1.510967X0.171690X1.373610X0.652453X-1.510967X-0.171690X-1.373610X-0.652453X0*%
%ADD12RoundRect,0.250001X1.531568X-0.082426X1.256855X0.879098X-1.531568X0.082426X-1.256855X-0.879098X0*%
%ADD13R,1.500000X0.900000*%
%ADD14R,0.900000X1.500000*%
%ADD15R,0.900000X0.900000*%
%ADD16RoundRect,0.250000X0.850000X0.275000X-0.850000X0.275000X-0.850000X-0.275000X0.850000X-0.275000X0*%
%ADD17RoundRect,0.250000X0.275000X0.250000X-0.275000X0.250000X-0.275000X-0.250000X0.275000X-0.250000X0*%
%ADD18RoundRect,0.150000X-0.439556X0.281586X-0.521970X-0.006872X0.439556X-0.281586X0.521970X0.006872X0*%
%ADD19RoundRect,0.075000X-0.532274X0.230075X-0.573481X0.085846X0.532274X-0.230075X0.573481X-0.085846X0*%
%ADD20RotRect,0.800000X1.520000X170.909000*%
%ADD21RotRect,3.100000X1.520000X170.909000*%
%ADD22RoundRect,0.150000X-0.366334X-0.528133X-0.086734X-0.636869X0.366334X0.528133X0.086734X0.636869X0*%
%ADD23RoundRect,0.250000X-0.561796X-0.478942X0.090605X-0.732660X0.561796X0.478942X-0.090605X0.732660X0*%
%ADD24RoundRect,0.150000X0.086723X-0.636871X0.366325X-0.528139X-0.086723X0.636871X-0.366325X0.528139X0*%
%ADD25RoundRect,0.250000X-0.090618X-0.732658X0.561787X-0.478952X0.090618X0.732658X-0.561787X0.478952X0*%
%ADD26R,3.000000X1.400000*%
%ADD27RoundRect,0.237500X-0.237500X0.300000X-0.237500X-0.300000X0.237500X-0.300000X0.237500X0.300000X0*%
%ADD28RoundRect,0.237500X-0.237500X0.250000X-0.237500X-0.250000X0.237500X-0.250000X0.237500X0.250000X0*%
%ADD29RoundRect,0.237500X0.250000X0.237500X-0.250000X0.237500X-0.250000X-0.237500X0.250000X-0.237500X0*%
%ADD30RoundRect,0.237500X0.237500X-0.250000X0.237500X0.250000X-0.237500X0.250000X-0.237500X-0.250000X0*%
%ADD31RoundRect,0.150000X0.150000X-0.587500X0.150000X0.587500X-0.150000X0.587500X-0.150000X-0.587500X0*%
%ADD32RoundRect,0.237500X0.300000X0.237500X-0.300000X0.237500X-0.300000X-0.237500X0.300000X-0.237500X0*%
%ADD33RoundRect,0.237500X-0.284385X-0.195016X0.209334X-0.274017X0.284385X0.195016X-0.209334X0.274017X0*%
%ADD34R,0.700000X0.680000*%
%ADD35R,0.700000X0.560000*%
%ADD36RoundRect,0.237500X-0.300000X-0.237500X0.300000X-0.237500X0.300000X0.237500X-0.300000X0.237500X0*%
%ADD37RoundRect,0.250000X0.325000X0.450000X-0.325000X0.450000X-0.325000X-0.450000X0.325000X-0.450000X0*%
%ADD38R,0.670000X0.300000*%
%ADD39R,0.670001X0.299999*%
%ADD40RoundRect,0.150000X-0.150000X0.587500X-0.150000X-0.587500X0.150000X-0.587500X0.150000X0.587500X0*%
%ADD41RoundRect,0.250000X0.650000X-1.000000X0.650000X1.000000X-0.650000X1.000000X-0.650000X-1.000000X0*%
%ADD42RoundRect,0.375000X0.875000X-0.375000X0.875000X0.375000X-0.875000X0.375000X-0.875000X-0.375000X0*%
%ADD43RoundRect,0.237500X0.237500X-0.300000X0.237500X0.300000X-0.237500X0.300000X-0.237500X-0.300000X0*%
%ADD44R,0.680000X0.700000*%
%ADD45R,0.560000X0.700000*%
%ADD46RoundRect,0.250000X0.554695X0.020944X0.154515X0.533151X-0.554695X-0.020944X-0.154515X-0.533151X0*%
%ADD47RoundRect,0.237500X0.341068X-0.050783X0.033237X0.343222X-0.341068X0.050783X-0.033237X-0.343222X0*%
%ADD48RoundRect,0.150000X0.150000X-0.512500X0.150000X0.512500X-0.150000X0.512500X-0.150000X-0.512500X0*%
%ADD49RoundRect,0.237500X-0.343794X-0.026684X0.044268X-0.341975X0.343794X0.026684X-0.044268X0.341975X0*%
%ADD50RoundRect,0.375000X-0.375000X-0.875000X0.375000X-0.875000X0.375000X0.875000X-0.375000X0.875000X0*%
%ADD51RoundRect,0.250000X-0.325000X-0.450000X0.325000X-0.450000X0.325000X0.450000X-0.325000X0.450000X0*%
G04 APERTURE END LIST*
D10*
G04 #@! TO.C,R2*
X173387500Y-135800000D03*
X175212500Y-135800000D03*
G04 #@! TD*
D11*
G04 #@! TO.C,J8*
X89189778Y-116340115D03*
X88640349Y-114417064D03*
X88090920Y-112494012D03*
D12*
X81916567Y-111814035D03*
X84306583Y-120179309D03*
G04 #@! TD*
D13*
G04 #@! TO.C,U1*
X187345000Y-94940000D03*
X187345000Y-96210000D03*
X187345000Y-97480000D03*
X187345000Y-98750000D03*
X187345000Y-100020000D03*
X187345000Y-101290000D03*
X187345000Y-102560000D03*
X187345000Y-103830000D03*
X187345000Y-105100000D03*
X187345000Y-106370000D03*
X187345000Y-107640000D03*
X187345000Y-108910000D03*
X187345000Y-110180000D03*
X187345000Y-111450000D03*
D14*
X185580000Y-112700000D03*
X184310000Y-112700000D03*
X183040000Y-112700000D03*
X181770000Y-112700000D03*
X180500000Y-112700000D03*
X179230000Y-112700000D03*
X177960000Y-112700000D03*
X176690000Y-112700000D03*
X175420000Y-112700000D03*
X174150000Y-112700000D03*
X172880000Y-112700000D03*
X171610000Y-112700000D03*
D13*
X169845000Y-111450000D03*
X169845000Y-110180000D03*
X169845000Y-108910000D03*
X169845000Y-107640000D03*
X169845000Y-106370000D03*
X169845000Y-105100000D03*
X169845000Y-103830000D03*
X169845000Y-102560000D03*
X169845000Y-101290000D03*
X169845000Y-100020000D03*
X169845000Y-98750000D03*
X169845000Y-97480000D03*
X169845000Y-96210000D03*
X169845000Y-94940000D03*
D15*
X180095000Y-102660000D03*
X181495000Y-102660000D03*
X178695000Y-102660000D03*
X181495000Y-104060000D03*
X180095000Y-104060000D03*
X178695000Y-104060000D03*
X181495000Y-101260000D03*
X180095000Y-101260000D03*
X178695000Y-101260000D03*
G04 #@! TD*
D16*
G04 #@! TO.C,J1*
X106755000Y-67475000D03*
X106755000Y-64525000D03*
D17*
X108280000Y-66000000D03*
G04 #@! TD*
D18*
G04 #@! TO.C,J7*
X212528156Y-111851440D03*
X212308384Y-112620661D03*
D19*
X211992462Y-113726416D03*
X211717748Y-114687942D03*
X211580391Y-115168705D03*
X211305676Y-116130230D03*
D18*
X210989755Y-117235985D03*
X210769983Y-118005206D03*
X210769983Y-118005206D03*
X210989755Y-117235985D03*
D19*
X211168319Y-116610993D03*
X211443033Y-115649467D03*
X211855105Y-114207179D03*
X212129820Y-113245653D03*
D18*
X212308384Y-112620661D03*
X212528156Y-111851440D03*
G04 #@! TD*
D20*
G04 #@! TO.C,Card1*
X110468388Y-135953655D03*
X111554570Y-136127458D03*
X112640753Y-136301262D03*
X113726935Y-136475065D03*
X114813118Y-136648868D03*
X115899300Y-136822671D03*
X116985483Y-136996475D03*
X118071665Y-137170278D03*
D21*
X118721913Y-127916782D03*
X112738035Y-126959285D03*
G04 #@! TD*
D22*
G04 #@! TO.C,J6*
X169977089Y-81020322D03*
X170909091Y-81382776D03*
X171841092Y-81745230D03*
X172773094Y-82107685D03*
D23*
X170169998Y-76937625D03*
X175389206Y-78967369D03*
G04 #@! TD*
D24*
G04 #@! TO.C,J4*
X127126864Y-82107673D03*
X128058872Y-81745235D03*
X128990880Y-81382797D03*
X129922888Y-81020359D03*
D25*
X124510807Y-78967312D03*
X129730051Y-76937659D03*
G04 #@! TD*
D26*
G04 #@! TO.C,U2*
X97300000Y-84000000D03*
X97300000Y-82000000D03*
X97300000Y-80000000D03*
X97300000Y-78000000D03*
X97300000Y-76000000D03*
X97300000Y-74000000D03*
X97300000Y-72000000D03*
X97300000Y-70000000D03*
X112700000Y-70000000D03*
X112700000Y-72000000D03*
X112700000Y-74000000D03*
X112700000Y-76000000D03*
X112700000Y-78000000D03*
X112700000Y-80000000D03*
X112700000Y-82000000D03*
X112700000Y-84000000D03*
G04 #@! TD*
D27*
G04 #@! TO.C,C10*
X107100000Y-97837500D03*
X107100000Y-99562500D03*
G04 #@! TD*
D28*
G04 #@! TO.C,R8*
X121200000Y-79587500D03*
X121200000Y-81412500D03*
G04 #@! TD*
D29*
G04 #@! TO.C,R18*
X208412500Y-112400000D03*
X206587500Y-112400000D03*
G04 #@! TD*
D30*
G04 #@! TO.C,R10*
X87300000Y-99612500D03*
X87300000Y-97787500D03*
G04 #@! TD*
G04 #@! TO.C,R15*
X210400000Y-96650000D03*
X210400000Y-94825000D03*
G04 #@! TD*
D29*
G04 #@! TO.C,R32*
X200612500Y-118700000D03*
X198787500Y-118700000D03*
G04 #@! TD*
D31*
G04 #@! TO.C,Q2*
X98750000Y-115317500D03*
X96850000Y-115317500D03*
X97800000Y-113442500D03*
G04 #@! TD*
D30*
G04 #@! TO.C,R33*
X196900000Y-120512500D03*
X196900000Y-118687500D03*
G04 #@! TD*
D10*
G04 #@! TO.C,R5*
X101587500Y-126500000D03*
X103412500Y-126500000D03*
G04 #@! TD*
D27*
G04 #@! TO.C,C13*
X171500000Y-126637500D03*
X171500000Y-128362500D03*
G04 #@! TD*
D32*
G04 #@! TO.C,C17*
X187612500Y-126637500D03*
X185887500Y-126637500D03*
G04 #@! TD*
D33*
G04 #@! TO.C,R9*
X104598962Y-133955822D03*
X106401038Y-134244178D03*
G04 #@! TD*
D34*
G04 #@! TO.C,RN2*
X122650000Y-82825000D03*
D35*
X122650000Y-83700000D03*
X122650000Y-84500000D03*
D34*
X122650000Y-85375000D03*
X121150000Y-85375000D03*
D35*
X121150000Y-84500000D03*
X121150000Y-83700000D03*
D34*
X121150000Y-82825000D03*
G04 #@! TD*
D30*
G04 #@! TO.C,R14*
X204100000Y-109312500D03*
X204100000Y-107487500D03*
G04 #@! TD*
D36*
G04 #@! TO.C,C18*
X183037500Y-117760000D03*
X184762500Y-117760000D03*
G04 #@! TD*
D37*
G04 #@! TO.C,D4*
X171525000Y-133600000D03*
X169475000Y-133600000D03*
G04 #@! TD*
D30*
G04 #@! TO.C,R11*
X96600000Y-91612500D03*
X96600000Y-89787500D03*
G04 #@! TD*
D27*
G04 #@! TO.C,C11*
X206120000Y-107537500D03*
X206120000Y-109262500D03*
G04 #@! TD*
D38*
G04 #@! TO.C,U4*
X173260000Y-127500000D03*
D39*
X173260000Y-127000000D03*
D38*
X173260000Y-126500000D03*
X174740000Y-126500000D03*
X174740000Y-127000000D03*
X174740000Y-127500000D03*
G04 #@! TD*
D40*
G04 #@! TO.C,Q4*
X198750000Y-120782500D03*
X200650000Y-120782500D03*
X199700000Y-122657500D03*
G04 #@! TD*
D29*
G04 #@! TO.C,R27*
X178012500Y-130400000D03*
X176187500Y-130400000D03*
G04 #@! TD*
D30*
G04 #@! TO.C,R20*
X96800000Y-119162500D03*
X96800000Y-117337500D03*
G04 #@! TD*
D41*
G04 #@! TO.C,D10*
X204400000Y-122700000D03*
X204400000Y-118700000D03*
G04 #@! TD*
D34*
G04 #@! TO.C,RN8*
X111250000Y-109475000D03*
D35*
X111250000Y-110350000D03*
X111250000Y-111150000D03*
D34*
X111250000Y-112025000D03*
X109750000Y-112025000D03*
D35*
X109750000Y-111150000D03*
X109750000Y-110350000D03*
D34*
X109750000Y-109475000D03*
G04 #@! TD*
D42*
G04 #@! TO.C,L2*
X182362500Y-123487500D03*
X182362500Y-119787500D03*
G04 #@! TD*
D36*
G04 #@! TO.C,C19*
X183037500Y-116100000D03*
X184762500Y-116100000D03*
G04 #@! TD*
D27*
G04 #@! TO.C,C7*
X89100000Y-97837500D03*
X89100000Y-99562500D03*
G04 #@! TD*
D43*
G04 #@! TO.C,C6*
X97700000Y-125762500D03*
X97700000Y-124037500D03*
G04 #@! TD*
G04 #@! TO.C,C14*
X178500000Y-128362500D03*
X178500000Y-126637500D03*
G04 #@! TD*
D27*
G04 #@! TO.C,C9*
X96300000Y-105737500D03*
X96300000Y-107462500D03*
G04 #@! TD*
D44*
G04 #@! TO.C,RN1*
X107575000Y-90700000D03*
D45*
X106700000Y-90700000D03*
X105900000Y-90700000D03*
D44*
X105025000Y-90700000D03*
X105025000Y-89200000D03*
D45*
X105900000Y-89200000D03*
X106700000Y-89200000D03*
D44*
X107575000Y-89200000D03*
G04 #@! TD*
G04 #@! TO.C,RN3*
X117225000Y-120000000D03*
D45*
X118100000Y-120000000D03*
X118900000Y-120000000D03*
D44*
X119775000Y-120000000D03*
X119775000Y-121500000D03*
D45*
X118900000Y-121500000D03*
X118100000Y-121500000D03*
D44*
X117225000Y-121500000D03*
G04 #@! TD*
D28*
G04 #@! TO.C,R21*
X100700000Y-113487500D03*
X100700000Y-115312500D03*
G04 #@! TD*
D46*
G04 #@! TO.C,D1*
X181931053Y-76707711D03*
X180668947Y-75092289D03*
G04 #@! TD*
D10*
G04 #@! TO.C,R6*
X105837500Y-117500000D03*
X107662500Y-117500000D03*
G04 #@! TD*
D32*
G04 #@! TO.C,C16*
X187612500Y-124750000D03*
X185887500Y-124750000D03*
G04 #@! TD*
D47*
G04 #@! TO.C,R3*
X183761791Y-75119060D03*
X182638209Y-73680940D03*
G04 #@! TD*
D30*
G04 #@! TO.C,R7*
X119700000Y-86412500D03*
X119700000Y-84587500D03*
G04 #@! TD*
D10*
G04 #@! TO.C,R35*
X209412500Y-84000000D03*
X207587500Y-84000000D03*
G04 #@! TD*
D40*
G04 #@! TO.C,Q1*
X104100000Y-119500000D03*
X106000000Y-119500000D03*
X105050000Y-121375000D03*
G04 #@! TD*
D30*
G04 #@! TO.C,R19*
X98800000Y-119112500D03*
X98800000Y-117287500D03*
G04 #@! TD*
D48*
G04 #@! TO.C,U5*
X187587500Y-122637500D03*
X186637500Y-122637500D03*
X185687500Y-122637500D03*
X185687500Y-120362500D03*
X187587500Y-120362500D03*
G04 #@! TD*
D43*
G04 #@! TO.C,C15*
X176500000Y-128362500D03*
X176500000Y-126637500D03*
G04 #@! TD*
D49*
G04 #@! TO.C,R16*
X99441787Y-131324595D03*
X100858213Y-132475405D03*
G04 #@! TD*
D30*
G04 #@! TO.C,R12*
X98100000Y-107512500D03*
X98100000Y-105687500D03*
G04 #@! TD*
D10*
G04 #@! TO.C,R22*
X95987500Y-111300000D03*
X97812500Y-111300000D03*
G04 #@! TD*
D29*
G04 #@! TO.C,R28*
X174312500Y-130400000D03*
X172487500Y-130400000D03*
G04 #@! TD*
D50*
G04 #@! TO.C,L1*
X171450000Y-123500000D03*
X175150000Y-123500000D03*
G04 #@! TD*
D30*
G04 #@! TO.C,R13*
X105300000Y-99612500D03*
X105300000Y-97787500D03*
G04 #@! TD*
D10*
G04 #@! TO.C,R34*
X169387500Y-137700000D03*
X171212500Y-137700000D03*
G04 #@! TD*
D51*
G04 #@! TO.C,D3*
X169475000Y-135800000D03*
X171525000Y-135800000D03*
G04 #@! TD*
D29*
G04 #@! TO.C,R17*
X207112500Y-115300000D03*
X205287500Y-115300000D03*
G04 #@! TD*
D27*
G04 #@! TO.C,C8*
X98400000Y-89837500D03*
X98400000Y-91562500D03*
G04 #@! TD*
D30*
G04 #@! TO.C,R4*
X104000000Y-117412500D03*
X104000000Y-115587500D03*
G04 #@! TD*
D27*
G04 #@! TO.C,C12*
X212300000Y-96562500D03*
X212300000Y-94837500D03*
G04 #@! TD*
M02*
