M48
; DRILL file {KiCad 8.0.1} date 2024-07-30T22:51:40-0700
; FORMAT={-:-/ absolute / metric / decimal}
; #@! TF.CreationDate,2024-07-30T22:51:40-07:00
; #@! TF.GenerationSoftware,Kicad,Pcbnew,8.0.1
; #@! TF.FileFunction,Plated,1,4,PTH
FMAT,2
METRIC
; #@! TA.AperFunction,Plated,PTH,ViaDrill
T1C0.300
; #@! TA.AperFunction,Plated,PTH,ComponentDrill
T2C0.300
; #@! TA.AperFunction,Plated,PTH,ComponentDrill
T3C0.620
; #@! TA.AperFunction,Plated,PTH,ComponentDrill
T4C0.800
; #@! TA.AperFunction,Plated,PTH,ComponentDrill
T5C1.000
; #@! TA.AperFunction,Plated,PTH,ComponentDrill
T6C1.020
%
G90
G05
T1
X85.7Y-97.75
X86.3Y-117.25
X87.3Y-100.9
X88.1Y-81.0
X90.1Y-76.6
X93.1Y-72.1
X94.2Y-112.0
X94.6Y-105.75
X94.7Y-119.8
X94.8Y-89.75
X96.2Y-67.5
X96.6Y-92.9
X97.3Y-85.6
X98.1Y-108.7
X99.4Y-78.0
X99.5Y-76.0
X100.6Y-63.1
X100.7Y-112.1
X101.2Y-83.8
X101.6Y-60.8
X102.4Y-133.5
X103.0Y-121.85
X103.7Y-97.75
X104.125Y-75.075
X105.3Y-100.8
X105.9Y-93.8
X106.7Y-93.1
X106.8Y-109.5
X107.427Y-110.4
X107.6Y-92.4
X108.1Y-111.2
X108.727Y-112.1
X110.3Y-72.0
X112.05Y-113.85
X112.3Y-111.1
X112.7Y-114.75
X112.961Y-134.7
X113.0Y-110.3
X113.7Y-109.5
X114.05Y-134.4
X114.9Y-78.0
X115.0Y-72.0
X115.1Y-135.05
X115.4Y-120.0
X115.7Y-79.4
X116.607Y-117.893
X117.274Y-135.45
X118.1Y-122.8
X118.15Y-117.55
X118.2Y-118.6
X118.3Y-116.2
X118.9Y-123.2
X119.7Y-87.6
X119.8Y-123.7
X121.2Y-78.4
X121.4Y-109.3
X127.55Y-80.5
X128.3Y-79.8
X129.3Y-79.5
X134.2Y-90.9
X136.2Y-91.0
X143.3Y-102.3
X143.3Y-104.45
X143.325Y-103.375
X148.2Y-135.5
X149.45Y-121.8
X150.0Y-135.5
X152.6Y-95.5
X153.4Y-96.9
X154.25Y-97.75
X154.7Y-96.3
X157.9Y-116.1
X158.8Y-105.15
X159.15Y-115.1
X162.5Y-137.2
X163.2Y-107.65
X163.4Y-133.6
X163.7Y-101.1
X164.3Y-120.0
X164.6Y-101.3
X165.725Y-97.825
X167.2Y-97.75
X168.1Y-111.5
X169.8Y-122.6
X169.8Y-123.6
X169.8Y-124.6
X171.1Y-83.5
X171.3Y-105.15
X171.35Y-106.3
X171.4Y-107.65
X171.41Y-80.21
X171.6Y-101.3
X171.6Y-102.25
X171.664Y-103.063
X172.1Y-83.8
X172.6Y-128.4
X174.2Y-111.3
X174.5Y-134.3
X175.25Y-103.0
X175.5Y-101.3
X176.1Y-104.75
X176.7Y-111.25
X177.957Y-110.143
X178.7Y-115.95
X178.8Y-136.6
X179.2Y-110.5
X180.5Y-110.9
X180.75Y-117.35
X180.8Y-118.3
X181.55Y-117.75
X181.8Y-97.6
X181.9Y-96.2
X183.05Y-114.1
X183.2Y-107.2
X184.15Y-101.29
X184.35Y-110.0
X186.1Y-97.5
X187.6Y-119.0
X188.3Y-113.4
X188.8Y-96.2
X188.8Y-110.2
X189.0Y-108.3
X189.1Y-103.8
X189.4Y-112.3
X193.9Y-73.9
X195.395Y-98.0
X195.8Y-97.1
X199.25Y-126.55
X199.3Y-96.3
X199.35Y-95.45
X199.4Y-61.9
X199.5Y-98.0
X202.0Y-122.2
X202.5Y-107.45
X202.9Y-65.4
X203.0Y-109.3
X205.9Y-69.9
X206.5Y-84.0
X207.6Y-118.7
X208.8Y-94.75
X208.9Y-74.4
X209.25Y-116.692
X210.35Y-113.75
X210.4Y-97.9
X210.6Y-112.1
X210.9Y-78.9
X210.9Y-83.4
X213.35Y-115.75
T2
X177.795Y-101.95
X177.795Y-103.35
X179.395Y-100.25
X179.395Y-104.95
X180.795Y-100.25
X180.795Y-104.95
X182.395Y-101.95
X182.395Y-103.35
T4
X100.0Y-124.0
X105.0Y-124.0
T5
X87.258Y-126.014
X89.313Y-127.507
X91.368Y-129.0
X93.423Y-130.493
X95.478Y-131.986
X97.533Y-133.479
X110.9Y-66.0
X185.871Y-69.061
X187.435Y-71.062
X187.872Y-67.497
X188.998Y-73.064
X189.436Y-69.498
X191.0Y-71.5
X191.4Y-91.48
X191.4Y-94.02
X191.4Y-96.56
X191.4Y-99.1
X191.4Y-101.64
X191.4Y-104.18
X191.4Y-106.72
X191.4Y-109.26
X191.4Y-111.8
X191.4Y-114.34
X191.4Y-116.88
X191.4Y-119.42
X191.4Y-121.96
X191.4Y-124.5
T6
X142.505Y-137.165
X157.495Y-137.165
T3
G00X211.597Y-119.406
M15
G01X210.558Y-119.11
M16
G05
G00X213.97Y-111.099
M15
G01X212.932Y-110.802
M16
G05
G00X215.376Y-120.486
M15
G01X214.818Y-120.327
M16
G05
G00X217.749Y-112.178
M15
G01X217.192Y-112.019
M16
G05
T4
G00X117.52Y-104.18
M15
G01X118.92Y-104.18
M16
G05
G00X117.52Y-106.72
M15
G01X118.92Y-106.72
M16
G05
G00X117.52Y-109.26
M15
G01X118.92Y-109.26
M16
G05
G00X117.52Y-111.8
M15
G01X118.92Y-111.8
M16
G05
M30
